<svg width="80" height="80" viewBox="0 0 80 80" fill="none" xmlns="http://www.w3.org/2000/svg">
<path d="M49.3856 67.7728V68.7872C49.3856 69.3376 49.8448 69.7056 50.304 69.7056C50.7424 69.7056 51.0624 69.4704 51.1744 69.096L50.8352 68.8544L49.3856 67.7728Z" fill="#737373"/>
<path d="M9.62883 39.2239C10.1792 39.2239 10.5472 38.8559 10.5472 38.3055V34.4495C10.5472 33.8991 10.1792 33.5311 9.62883 33.5311C9.07843 33.5311 8.71043 33.8991 8.71043 34.4495V38.3055C8.71043 38.7647 9.07843 39.2239 9.62883 39.2239Z" fill="#737373"/>
<path d="M9.62883 49.4161C10.1792 49.4161 10.5472 49.0481 10.5472 48.4977V44.6417C10.5472 44.0913 10.1792 43.7233 9.62883 43.7233C9.07843 43.7233 8.71043 44.0913 8.71043 44.6417V48.4977C8.71043 48.9569 9.07843 49.4161 9.62883 49.4161Z" fill="#737373"/>
<path d="M15.9648 39.2239C16.5152 39.2239 16.8832 38.8559 16.8832 38.3055V34.4495C16.8832 33.8991 16.5152 33.5311 15.9648 33.5311C15.4144 33.5311 15.0464 33.8991 15.0464 34.4495V38.3055C15.0464 38.7647 15.4128 39.2239 15.9648 39.2239Z" fill="#737373"/>
<path d="M22.2992 39.2239C22.8496 39.2239 23.2176 38.8559 23.2176 38.3055V34.4495C23.2176 33.8991 22.8496 33.5311 22.2992 33.5311C21.7488 33.5311 21.3808 33.8991 21.3808 34.4495V38.3055C21.3808 38.7647 21.84 39.2239 22.2992 39.2239Z" fill="#737373"/>
<path d="M9.62883 29.1249C10.1792 29.1249 10.5472 28.7569 10.5472 28.2065V24.3505C10.5472 23.8001 10.1792 23.4321 9.62883 23.4321C9.07843 23.4321 8.71043 23.8001 8.71043 24.3505V28.2065C8.71043 28.6657 9.07843 29.1249 9.62883 29.1249Z" fill="#737373"/>
<path d="M15.9648 29.1249C16.5152 29.1249 16.8832 28.7569 16.8832 28.2065V24.3505C16.8832 23.8001 16.5152 23.4321 15.9648 23.4321C15.4144 23.4321 15.0464 23.8001 15.0464 24.3505V28.2065C15.0464 28.6657 15.4128 29.1249 15.9648 29.1249Z" fill="#737373"/>
<path d="M22.2992 29.1249C22.8496 29.1249 23.2176 28.7569 23.2176 28.2065V24.3505C23.2176 23.8001 22.8496 23.4321 22.2992 23.4321C21.7488 23.4321 21.3808 23.8001 21.3808 24.3505V28.2065C21.3808 28.6657 21.84 29.1249 22.2992 29.1249Z" fill="#737373"/>
<path d="M39.3776 33.5311C38.8272 33.5311 38.4592 33.8991 38.4592 34.4495V38.3055C38.4592 38.8559 38.8272 39.2239 39.3776 39.2239C39.928 39.2239 40.296 38.8559 40.296 38.3055V34.4495C40.296 33.8991 39.8368 33.5311 39.3776 33.5311Z" fill="#737373"/>
<path d="M39.3776 23.4321C38.8272 23.4321 38.4592 23.8001 38.4592 24.3505V28.2065C38.4592 28.7569 38.8272 29.1249 39.3776 29.1249C39.928 29.1249 40.296 28.7569 40.296 28.2065V24.3505C40.296 23.7985 39.8368 23.4321 39.3776 23.4321Z" fill="#737373"/>
<path d="M39.3776 43.7233C38.8272 43.7233 38.4592 44.0913 38.4592 44.6417V48.4977C38.4592 49.0481 38.8272 49.4161 39.3776 49.4161C39.928 49.4161 40.296 49.0481 40.296 48.4977V44.6417C40.296 44.0897 39.8368 43.7233 39.3776 43.7233Z" fill="#737373"/>
<path d="M39.3776 53.8224C38.8272 53.8224 38.4592 54.1904 38.4592 54.7408V58.5968C38.4592 59.1472 38.8272 59.5152 39.3776 59.5152C39.928 59.5152 40.296 59.1472 40.296 58.5968V54.7408C40.296 54.2816 39.8368 53.8224 39.3776 53.8224Z" fill="#737373"/>
<path d="M33.5936 33.5311C33.0432 33.5311 32.6752 33.8991 32.6752 34.4495V38.3055C32.6752 38.8559 33.0432 39.2239 33.5936 39.2239C34.144 39.2239 34.512 38.8559 34.512 38.3055V34.4495C34.5104 33.8991 34.0528 33.5311 33.5936 33.5311Z" fill="#737373"/>
<path d="M33.5936 23.4321C33.0432 23.4321 32.6752 23.8001 32.6752 24.3505V28.2065C32.6752 28.7569 33.0432 29.1249 33.5936 29.1249C34.144 29.1249 34.512 28.7569 34.512 28.2065V24.3505C34.5104 23.7985 34.0528 23.4321 33.5936 23.4321Z" fill="#737373"/>
<path d="M39.3776 13.24C38.8272 13.24 38.4592 13.608 38.4592 14.1584V18.0144C38.4592 18.5648 38.8272 18.9328 39.3776 18.9328C39.928 18.9328 40.296 18.5648 40.296 18.0144V14.1584C40.296 13.6992 39.8368 13.24 39.3776 13.24Z" fill="#737373"/>
<path d="M33.5936 13.24C33.0432 13.24 32.6752 13.608 32.6752 14.1584V18.0144C32.6752 18.5648 33.0432 18.9328 33.5936 18.9328C34.144 18.9328 34.512 18.5648 34.512 18.0144V14.1584C34.5104 13.6992 34.0528 13.24 33.5936 13.24Z" fill="#737373"/>
<path d="M33.5936 43.7233C33.0432 43.7233 32.6752 44.0913 32.6752 44.6417V48.4977C32.6752 49.0481 33.0432 49.4161 33.5936 49.4161C34.144 49.4161 34.512 49.0481 34.512 48.4977V44.6417C34.5104 44.0897 34.0528 43.7233 33.5936 43.7233Z" fill="#737373"/>
<path d="M33.5936 53.8224C33.0432 53.8224 32.6752 54.1904 32.6752 54.7408V58.5968C32.6752 59.1472 33.0432 59.5152 33.5936 59.5152C34.144 59.5152 34.512 59.1472 34.512 58.5968V54.7408C34.5104 54.2816 34.0528 53.8224 33.5936 53.8224Z" fill="#737373"/>
<path d="M67.3728 73.7376H65.6912L62.9408 75.696C62.1936 76.2272 61.192 76.2272 60.4432 75.696L59.4544 74.992L57.6944 73.7376H46.0896V64.7616C45.912 64.5232 45.7392 64.2816 45.5792 64.0304C45.5792 64.0304 44.8496 63.0176 44.3616 61.6176C44.0944 60.888 43.9008 60.1328 43.7792 59.3648V73.7376H40.4912V64.9312C40.4912 64.224 39.9968 63.7296 39.2896 63.7296H32.9536C32.2464 63.7296 31.752 64.224 31.752 64.9312V73.7376H29.0144V19.768H29.7408C30.448 19.768 30.9424 19.2736 30.9424 18.5664V12.4144C30.9424 11.7072 30.448 11.2128 29.7408 11.2128H26.4432V10.5872H43.776V25.6288H43.0496C42.3424 25.6288 41.848 26.1232 41.848 26.8304C41.848 27.5376 42.3424 28.032 43.0496 28.032H43.776V30.4016H43.0496C42.3424 30.4016 41.848 30.896 41.848 31.6032V37.7552C41.848 38.4624 42.3424 38.9568 43.0496 38.9568H43.776V39.3344C43.9024 39.1264 44.0896 38.9568 44.3216 38.856L47.368 37.5408V37.5632L47.4816 37.4928L49.872 36.4608H44.16V32.7136H58.5536L60.496 31.8752L61.2192 31.56C61.5248 31.4288 61.8704 31.4288 62.1744 31.56L62.8976 31.8752L64.8368 32.7136H69.208V34.6016L71.6128 35.64V31.512C71.6128 30.8048 71.1184 30.3104 70.4112 30.3104H69.5936V27.9408H70.4112C71.1184 27.9408 71.6128 27.4464 71.6128 26.7392C71.6128 26.032 71.1184 25.5376 70.4112 25.5376H46.088V10.4944H46.8144C47.5216 10.4944 48.016 10 48.016 9.29284V4.24164C48.016 3.53444 47.5216 3.04004 46.8144 3.04004H23.6768C22.9696 3.04004 22.4752 3.53444 22.4752 4.24164V9.29124C22.4752 9.99844 22.9696 10.4928 23.6768 10.4928H23.944V11.1184H18.0848V8.55684C18.0848 7.84964 17.5904 7.35524 16.8832 7.35524H11.0064C10.2992 7.35524 9.80482 7.84964 9.80482 8.55684V11.12H2.28482C1.57762 11.12 1.08322 11.6144 1.08322 12.3216V18.4736C1.08322 19.1808 1.57762 19.6752 2.28482 19.6752H2.91842V73.7376H1.45762C0.75042 73.7376 0.25602 74.232 0.25602 74.9392C0.25602 75.6464 0.75042 76.1408 1.45762 76.1408H71.5136C72.2208 76.1408 72.7152 75.6464 72.7152 74.9392C72.7152 74.232 72.2208 73.7376 71.5136 73.7376H69.6864V70.8944L67.3744 72.5408V73.7376H67.3728ZM64.8192 28.0304H67.1888V30.4H64.8192V28.0304ZM60.2272 28.0304H62.5056V30.4H60.2272V28.0304ZM55.5456 28.0304H57.824V30.4H55.5456V28.0304ZM50.9552 28.0304H53.2336V30.4H50.9552V28.0304ZM46.1808 28.0304H48.5504V30.4H46.1808V28.0304ZM24.8784 5.44484H45.6112V8.09124H24.8784V5.44484ZM12.208 9.76004H15.68V11.12H12.208V9.76004ZM11.3728 67.5872C10.6048 67.5872 10.0048 66.9856 10.0048 66.2192V62.912C10.0048 62.144 10.6064 61.5424 11.3728 61.5424H11.9232C12.6912 61.5424 13.2912 62.144 13.2912 62.912V66.2176C13.2912 66.9856 12.6896 67.5856 11.9232 67.5856H11.3728V67.5872ZM20.9232 69.2384C19.9824 69.2384 19.1872 68.4432 19.1872 67.5024V65.2992C19.1872 64.3584 19.9824 63.5632 20.9232 63.5632C21.864 63.5632 22.6592 64.3584 22.6592 65.2992V67.4912C22.5744 68.5376 21.8768 69.2384 20.9232 69.2384ZM26.6064 73.7376H22.1248V71.4768C23.8656 70.9024 25.0624 69.3344 25.0624 67.5936V65.392C25.0624 63.1088 23.2048 61.2528 20.9216 61.2528C18.6384 61.2528 16.7808 63.1104 16.7808 65.392V67.5952C16.7808 69.4192 18.0032 71.0208 19.7184 71.4912V73.7392H12.8512V69.848C14.4896 69.4592 15.6976 67.9392 15.6976 66.2192V62.912C15.6976 60.832 14.0048 59.1392 11.9248 59.1392H11.3744C9.29442 59.1392 7.60162 60.832 7.60162 62.912V66.2176C7.60162 67.952 8.78562 69.4416 10.448 69.8448V73.7376H5.32162V57.8704H26.6064V73.7376ZM5.32162 55.4672V52.7296H7.50882V55.4672H5.32162ZM9.91362 55.4672V52.7296H12.2832V55.4672H9.91362ZM14.688 55.4672V52.7296H17.0576V55.4672H14.688ZM17.8096 50.3248V45.016H21.832V50.3248H17.8096ZM21.832 52.7296V55.4672H19.4624V52.7296H21.832ZM26.6064 55.4672H24.2368V52.7296H26.6064V55.4672ZM26.6064 50.3248H24.2368V43.8144C24.2368 43.1072 23.7424 42.6128 23.0352 42.6128H16.608C15.9008 42.6128 15.4064 43.1072 15.4064 43.8144V50.3248H5.32162V19.6752H26.6064V50.3248ZM28.5344 17.3632H3.48642V13.616H28.5344V17.3632ZM38.0832 73.7376H34.152V66.1344H38.0832V73.7376Z" fill="#737373"/>
<path d="M46.0096 57.408C46.0112 57.8112 46.0384 58.2112 46.088 58.6064V40.728L46.0096 40.7616V57.408Z" fill="#737373"/>
<path d="M61.6912 67.7009L57.6384 64.8161C57.6416 64.8545 57.648 64.8929 57.648 64.9329V67.7841L60.992 70.1649C61.4112 70.4625 61.9728 70.4625 62.392 70.1649L67.3728 66.6193V63.6625L61.6912 67.7009Z" fill="#737373"/>
<path d="M72.5488 43.9345V57.4081C72.5392 59.0369 71.7456 60.5601 70.4144 61.4993L69.6848 62.0177V64.9729L71.8144 63.4561C73.7776 62.0657 74.9488 59.8129 74.96 57.4081V43.1361C74.96 42.6561 74.6768 42.2209 74.2368 42.0289L69.6848 40.0625V42.6961L72.5488 43.9345Z" fill="#737373"/>
<path d="M48.4224 43.1344V57.4064C48.4336 59.8128 49.6048 62.064 51.568 63.4544L55.8112 66.4752V64.9312C55.8112 64.448 56.0944 64.1056 56.536 64.0288L52.968 61.4896C52.1008 60.8784 51.4624 60.016 51.12 59.04C50.976 59.3344 50.6848 59.5136 50.3024 59.5136C49.8432 59.5136 49.384 59.1456 49.384 58.5952V54.7392C49.384 54.1888 49.752 53.8208 50.3024 53.8208C50.5088 53.8208 50.6896 53.872 50.8336 53.9664V49.2688C50.688 49.3616 50.5072 49.4144 50.3024 49.4144C49.8432 49.4144 49.384 48.9552 49.384 48.496V44.64C49.384 44.0896 49.752 43.7216 50.3024 43.7216C50.5344 43.7216 50.7296 43.7888 50.8832 43.9056L61.6912 39.2384L67.3728 41.6944V39.0608L66.9168 38.864H56.4688L49.1472 42.0272C48.7072 42.2192 48.4224 42.6544 48.4224 43.1344Z" fill="#737373"/>
<path d="M50.8832 43.9073C50.7296 43.7921 50.5344 43.7233 50.3024 43.7233C49.752 43.7233 49.384 44.0913 49.384 44.6417V48.4977C49.384 48.9569 49.8432 49.4161 50.3024 49.4161C50.5088 49.4161 50.6896 49.3649 50.8336 49.2705V43.9281L50.8832 43.9073Z" fill="#737373"/>
<path d="M50.8352 53.968C50.6896 53.8752 50.5088 53.8224 50.304 53.8224C49.7536 53.8224 49.3856 54.1904 49.3856 54.7408V58.5968C49.3856 59.1472 49.8448 59.5152 50.304 59.5152C50.688 59.5152 50.9776 59.3344 51.1216 59.0416C50.9392 58.5232 50.84 57.9728 50.8352 57.408V53.968Z" fill="#737373"/>
<path d="M57.6384 64.816L56.536 64.032C56.0944 64.1088 55.8112 64.4496 55.8112 64.9344V66.4784L57.648 67.7856V64.9344C57.648 64.8912 57.6432 64.8544 57.6384 64.816Z" fill="#737373"/>
<path d="M62.1744 36.816C61.8672 36.6816 61.5168 36.6816 61.2096 36.816L56.4672 38.864H66.9152L62.1744 36.816Z" fill="#737373"/>
<path d="M67.3728 63.6609V66.6177L69.6848 64.9713V62.0161L67.3728 63.6609Z" fill="#737373"/>
<path d="M69.6848 42.696V40.0608L67.3728 39.0624V41.696L69.6848 42.696Z" fill="#737373"/>
<path d="M59.0688 57.5408L57.6496 56.4768V58.5984C57.6496 58.8864 57.5472 59.1232 57.3712 59.2848L58.5552 60.1728C59.0768 60.5632 59.8144 60.4704 60.2208 59.9616L62.1472 57.5536V54.7424C62.1472 54.192 62.5152 53.824 63.0656 53.824C63.616 53.824 63.984 54.192 63.984 54.7424V55.2592L67.3728 51.024V47.1616L59.0688 57.5408Z" fill="#737373"/>
<path d="M69.872 47.8976C70.288 47.3776 70.2048 46.6192 69.6848 46.2032V48.1312L69.872 47.8976Z" fill="#737373"/>
<path d="M55.1776 54.6225C54.8336 54.3633 54.376 54.3089 53.9792 54.4785C53.5824 54.6481 53.3072 55.0161 53.256 55.4433C53.2048 55.8705 53.3856 56.2945 53.7296 56.5521L55.8112 58.1137V55.0977L55.1776 54.6225Z" fill="#737373"/>
<path d="M57.648 58.5969V56.4753L55.8112 55.0977V58.1137L57.3696 59.2833C57.5456 59.1217 57.648 58.8849 57.648 58.5969Z" fill="#737373"/>
<path d="M63.0656 53.8224C62.5152 53.8224 62.1472 54.1904 62.1472 54.7408V57.552L63.984 55.256V54.7392C63.984 54.1904 63.616 53.8224 63.0656 53.8224Z" fill="#737373"/>
<path d="M69.6848 46.2032L69.6832 46.2016C69.1632 45.7856 68.4032 45.8688 67.9872 46.3904L67.3728 47.1584V51.0208L69.6848 48.1296V46.2032Z" fill="#737373"/>
<path d="M79.0624 38.856L76.016 37.5408L71.6128 35.64V37.664C71.6128 37.8688 71.5696 38.056 71.4944 38.2176L76.016 40.1712L77.3728 40.7568V43.7696V57.408C77.3616 60.5952 75.8112 63.5792 73.2128 65.4224L69.6848 67.9344V70.896L74.6112 67.3904C77.8464 65.0944 79.7744 61.3776 79.7856 57.4096V43.7712V39.9648C79.7872 39.4832 79.5024 39.048 79.0624 38.856Z" fill="#737373"/>
<path d="M46.088 40.728L48.1936 39.8176L48.216 39.808L50.3984 38.8656H46.088V40.728Z" fill="#737373"/>
<path d="M47.6048 66.4433L49.3856 67.7729V64.9313C49.3856 64.8881 49.392 64.8465 49.3968 64.8049C47.5696 63.2129 46.392 61.0049 46.0896 58.6049V64.7601C46.5424 65.3665 47.048 65.9313 47.6048 66.4433Z" fill="#737373"/>
<path d="M51.2224 66.1696V68.7888C51.2224 68.9008 51.2032 69.0032 51.1744 69.0976L57.408 73.5344L57.6944 73.7376H58.392H61.9568H64.3616H65.6928L67.3744 72.5408V69.5792L61.6928 73.6224L51.2224 66.1696Z" fill="#737373"/>
<path d="M49.3856 67.7728L50.8352 68.856L51.1744 69.0976C51.2032 69.0032 51.2224 68.9008 51.2224 68.7888V66.1696L50.1712 65.4208C49.9008 65.2288 49.6432 65.0224 49.3968 64.8064C49.392 64.848 49.3856 64.888 49.3856 64.9328V67.7728Z" fill="#737373"/>
<path d="M61.6912 33.9824L67.4288 36.4608H69.208V34.6016L65.3104 32.9184L64.8368 32.7136H58.5536L56.0464 33.7952L54.1888 34.5984C54.1904 34.5968 54.1904 34.5952 54.192 34.5952L53.0656 35.0816L49.8704 36.4608H55.9584L61.6912 33.9824Z" fill="#737373"/>
<path d="M43.5984 39.9633V42.3185V43.7697V44.7313V47.1441V49.5569V51.9697V54.3825V56.7953C43.5984 58.0913 43.7488 59.2081 43.7488 59.2081C43.7568 59.2609 43.768 59.3137 43.776 59.3681V39.3345C43.6624 39.5217 43.5968 39.7361 43.5984 39.9633Z" fill="#737373"/>
<path d="M67.3728 69.5793V72.5409L69.6848 70.8945V67.9329L67.3728 69.5793Z" fill="#737373"/>
<path d="M69.2096 36.4609H67.4304L71.4944 38.2161C71.5712 38.0545 71.6128 37.8673 71.6128 37.6625V35.6385L69.208 34.6001V36.4609H69.2096Z" fill="#737373"/>
<path d="M61.9552 73.7377H58.3904H57.6928L59.4528 74.9921L60.4416 75.6961C61.1888 76.2273 62.1904 76.2273 62.9392 75.6961L65.6896 73.7377H64.3584H61.9552Z" fill="#737373"/>
<path d="M46.0096 57.408V40.7616L46.088 40.728V38.8656H50.3968L55.9568 36.4608H49.8688L47.4784 37.4928L47.3648 37.5632V37.5408L44.3184 38.856C44.0864 38.9568 43.8992 39.1264 43.7728 39.3344V59.3648C43.896 60.1328 44.088 60.888 44.3552 61.6176C44.8448 63.016 45.5728 64.0304 45.5728 64.0304C45.7344 64.2816 45.9056 64.5232 46.0832 64.7616V58.6064C46.0384 58.2112 46.0112 57.8112 46.0096 57.408Z" fill="#737373"/>
<path d="M62.8976 31.8753L62.1744 31.5601C61.8688 31.4289 61.5232 31.4289 61.2192 31.5601L60.496 31.8753L58.5536 32.7137H64.8368L62.8976 31.8753Z" fill="#737373"/>
</svg>
