<svg width="26" height="26" viewBox="0 0 26 26" fill="none" xmlns="http://www.w3.org/2000/svg">
<path fill-rule="evenodd" clip-rule="evenodd" d="M4.33334 5.41667C3.73998 5.41667 3.25 5.90664 3.25 6.5V19.5C3.25 20.0934 3.73998 20.5833 4.33334 20.5833H21.6667C22.26 20.5833 22.75 20.0934 22.75 19.5V6.5C22.75 5.90664 22.26 5.41667 21.6667 5.41667H4.33334ZM1.08334 6.5C1.08334 4.71002 2.54336 3.25 4.33334 3.25H21.6667C23.4566 3.25 24.9167 4.71002 24.9167 6.5V19.5C24.9167 21.29 23.4566 22.75 21.6667 22.75H4.33334C2.54336 22.75 1.08334 21.29 1.08334 19.5V6.5Z" fill="#737373"/>
<path fill-rule="evenodd" clip-rule="evenodd" d="M1.27916 5.87868C1.62227 5.38853 2.29776 5.26932 2.78791 5.61243L13 12.7609L23.2121 5.61243C23.7022 5.26932 24.3777 5.38853 24.7208 5.87868C25.0639 6.36883 24.9447 7.04432 24.4546 7.38743L13.6212 14.9708C13.2482 15.2319 12.7518 15.2319 12.3787 14.9708L1.54541 7.38743C1.05526 7.04432 0.936054 6.36883 1.27916 5.87868Z" fill="#737373"/>
</svg>
