<svg width="80" height="81" viewBox="0 0 80 81" fill="none" xmlns="http://www.w3.org/2000/svg">
<path d="M8.00002 14.8037H16C16.7364 14.8037 17.3334 14.2011 17.3334 13.4579C17.3334 12.7146 16.7364 12.1121 16 12.1121H8.00002C7.26364 12.1121 6.66669 12.7146 6.66669 13.4579C6.66669 14.2011 7.26364 14.8037 8.00002 14.8037Z" fill="#737373"/>
<path d="M22.6667 14.8037H34.6667C35.4031 14.8037 36 14.2011 36 13.4579C36 12.7146 35.4031 12.1121 34.6667 12.1121H22.6667C21.9303 12.1121 21.3333 12.7146 21.3333 13.4579C21.3333 14.2011 21.9303 14.8037 22.6667 14.8037Z" fill="#737373"/>
<path d="M8.00002 29.6076H50.6667C51.4031 29.6076 52 29.0051 52 28.2618C52 27.5185 51.4031 26.916 50.6667 26.916H8.00002C7.26364 26.916 6.66669 27.5185 6.66669 28.2618C6.66669 29.0051 7.26364 29.6076 8.00002 29.6076Z" fill="#737373"/>
<path d="M8.00002 34.9907H26.6667C27.4031 34.9907 28 34.3881 28 33.6449C28 32.9016 27.4031 32.2991 26.6667 32.2991H8.00002C7.26364 32.2991 6.66669 32.9016 6.66669 33.6449C6.66669 34.3881 7.26364 34.9907 8.00002 34.9907Z" fill="#737373"/>
<path d="M8.00002 45.757H26.6667C27.4031 45.757 28 45.1545 28 44.4112C28 43.668 27.4031 43.0654 26.6667 43.0654H8.00002C7.26364 43.0654 6.66669 43.668 6.66669 44.4112C6.66669 45.1545 7.26364 45.757 8.00002 45.757Z" fill="#737373"/>
<path d="M8.00002 56.5234H26.6667C27.4031 56.5234 28 55.9208 28 55.1776C28 54.4343 27.4031 53.8318 26.6667 53.8318H8.00002C7.26364 53.8318 6.66669 54.4343 6.66669 55.1776C6.66669 55.9208 7.26364 56.5234 8.00002 56.5234Z" fill="#737373"/>
<path d="M8.00002 67.2897H26.6667C27.4031 67.2897 28 66.6872 28 65.9439C28 65.2007 27.4031 64.5981 26.6667 64.5981H8.00002C7.26364 64.5981 6.66669 65.2007 6.66669 65.9439C6.66669 66.6872 7.26364 67.2897 8.00002 67.2897Z" fill="#737373"/>
<path d="M79.2 39.203L64 32.5776V4.03738C64 1.8076 62.2091 0 60 0H9.33333C7.12419 0 5.33333 1.8076 5.33333 4.03738V5.38318H4C1.79086 5.38318 0 7.19078 0 9.42056V76.7103C0 78.9401 1.79086 80.7477 4 80.7477H54.6667C55.7454 80.7452 56.7771 80.302 57.5267 79.519L58.62 80.3036C59.4465 80.8957 60.5535 80.8957 61.38 80.3036L74.28 71.0351C77.856 68.4733 79.9864 64.3261 80 59.9V40.4384C80.0008 39.9026 79.6866 39.4173 79.2 39.203ZM8 4.03738C8 3.29412 8.59695 2.69159 9.33333 2.69159H60C60.7364 2.69159 61.3333 3.29412 61.3333 4.03738V31.4149L60.5333 31.0636C60.1963 30.9169 59.8143 30.9169 59.4773 31.0636L58.6773 31.4149V22.8785C58.6773 22.8489 58.6627 22.8206 58.66 22.791C58.6534 22.6783 58.6319 22.5669 58.596 22.46C58.5867 22.429 58.588 22.3967 58.576 22.3671C58.564 22.3375 58.5547 22.3375 58.548 22.3213C58.4831 22.1749 58.3928 22.0414 58.2813 21.927L42.2813 5.7775C42.168 5.66499 42.0357 5.57384 41.8907 5.50834C41.8733 5.50026 41.8613 5.4868 41.8453 5.48008C41.8293 5.47335 41.784 5.46931 41.7547 5.45989C41.6472 5.42377 41.5357 5.40161 41.4227 5.39394C41.3893 5.39798 41.3627 5.38318 41.3333 5.38318H8V4.03738ZM42.6667 9.97772L54.1147 21.5327H44C43.2636 21.5327 42.6667 20.9302 42.6667 20.1869V9.97772ZM54.6667 78.0561H4C3.26362 78.0561 2.66667 77.4536 2.66667 76.7103V9.42056C2.66667 8.6773 3.26362 8.07477 4 8.07477H40V20.1869C40 22.4167 41.7909 24.2243 44 24.2243H56V32.5776L51.708 34.4523C51.8922 34.2238 51.995 33.9394 52 33.6449C52 32.9016 51.403 32.2991 50.6667 32.2991H32C31.2636 32.2991 30.6667 32.9016 30.6667 33.6449C30.6667 34.3881 31.2636 34.9907 32 34.9907H50.4653L44.292 37.6822H8C7.26362 37.6822 6.66667 38.2848 6.66667 39.028C6.66667 39.7713 7.26362 40.3738 8 40.3738H40.0093C40.0093 40.3954 40 40.4156 40 40.4384V43.0654H32C31.2636 43.0654 30.6667 43.668 30.6667 44.4112C30.6667 45.1545 31.2636 45.757 32 45.757H40V48.4486H8C7.26362 48.4486 6.66667 49.0511 6.66667 49.7944C6.66667 50.5377 7.26362 51.1402 8 51.1402H40V53.8318H32C31.2636 53.8318 30.6667 54.4343 30.6667 55.1776C30.6667 55.9208 31.2636 56.5234 32 56.5234H40V59.215H8C7.26362 59.215 6.66667 59.8175 6.66667 60.5608C6.66667 61.304 7.26362 61.9066 8 61.9066H40.1667C40.2992 62.8248 40.5253 63.7267 40.8413 64.5981H32C31.2636 64.5981 30.6667 65.2007 30.6667 65.9439C30.6667 66.6872 31.2636 67.2897 32 67.2897H42.188C42.8181 68.2799 43.5714 69.1845 44.4293 69.9813H8C7.26362 69.9813 6.66667 70.5838 6.66667 71.3271C6.66667 72.0704 7.26362 72.6729 8 72.6729H48L55.264 77.8919C55.0809 77.9943 54.876 78.0507 54.6667 78.0561ZM77.3333 59.9C77.3204 63.455 75.6077 66.785 72.7347 68.8414L60 77.9915L47.2653 68.8401C44.3927 66.7839 42.6801 63.4545 42.6667 59.9V41.328L45.08 40.2756L45.1053 40.2648L60 33.7646L77.3333 41.3226V59.9Z" fill="#737373"/>
<path d="M59.4666 36.9273L46.1333 42.7411C45.6468 42.9555 45.3325 43.4407 45.3333 43.9766V59.9C45.3454 62.5839 46.6404 65.0969 48.8106 66.6478L59.2266 74.1318C59.6895 74.4644 60.3104 74.4644 60.7733 74.1318L71.1893 66.6478C73.3592 65.0966 74.6541 62.5838 74.6666 59.9V43.9766C74.6674 43.4407 74.3532 42.9555 73.8666 42.7411L60.5333 36.9273C60.1932 36.7775 59.8067 36.7775 59.4666 36.9273ZM72 44.8675V59.9C71.9902 61.7164 71.1117 63.4163 69.6413 64.4636L60 71.3837L50.3586 64.4555C48.89 63.4103 48.0116 61.7138 48 59.9V44.8608L60 39.6297L72 44.8675Z" fill="#737373"/>
<path d="M52.8 56.7926C52.4189 56.5041 51.9143 56.4427 51.4762 56.6316C51.0382 56.8205 50.7332 57.2309 50.6762 57.7082C50.6192 58.1856 50.8189 58.6574 51.2 58.9459L56.5333 62.9832C57.1094 63.4196 57.9246 63.3153 58.3746 62.7477L69.0413 49.2898C69.5015 48.7093 69.4084 47.8621 68.8333 47.3976C68.2582 46.9331 67.4189 47.027 66.9586 47.6075L57.1 60.0481L52.8 56.7926Z" fill="#737373"/>
</svg>
