<svg width="82" height="82" viewBox="0 0 82 82" fill="none" xmlns="http://www.w3.org/2000/svg">
<g clip-path="url(#clip0)">
<path d="M41.0001 8.19991C41.7548 8.19991 42.3667 7.588 42.3667 6.83326V1.36665C42.3667 0.611919 41.7548 0 41.0001 0C40.2453 0 39.6334 0.611919 39.6334 1.36665V6.83326C39.6334 7.588 40.2452 8.19991 41.0001 8.19991Z" fill="#26C765"/>
<path d="M24.1 6.26205L26.8333 10.9948C27.2064 11.6509 28.0408 11.8804 28.6969 11.5073C29.3531 11.1342 29.5825 10.2998 29.2094 9.64366C29.2065 9.63837 29.2035 9.63324 29.2004 9.62795L26.4671 4.89523C26.094 4.23907 25.2596 4.00964 24.6035 4.38274C23.9473 4.75583 23.7179 5.59017 24.091 6.24634C24.0939 6.25163 24.097 6.25693 24.1 6.26205Z" fill="#26C765"/>
<path d="M13.08 18.2575C13.0852 18.2606 13.0905 18.2635 13.0957 18.2666L17.8285 20.9999C18.4797 21.3815 19.3169 21.1632 19.6986 20.512C20.0802 19.8608 19.8619 19.0235 19.2107 18.6419C19.2055 18.6388 19.2002 18.6359 19.1949 18.6328L14.4622 15.8995C13.811 15.5179 12.9738 15.7362 12.5921 16.3874C12.2105 17.0384 12.4288 17.8759 13.08 18.2575Z" fill="#26C765"/>
<path d="M16.4004 32.7998C16.4004 32.045 15.7884 31.4331 15.0337 31.4331H9.56709C8.81236 31.4331 8.20044 32.045 8.20044 32.7998C8.20044 33.5545 8.81236 34.1664 9.56709 34.1664H15.0337C15.7884 34.1664 16.4004 33.5545 16.4004 32.7998Z" fill="#26C765"/>
<path d="M17.8444 44.5903C17.8391 44.5934 17.8338 44.5965 17.8285 44.5996L13.0958 47.3329C12.4396 47.7058 12.21 48.5401 12.583 49.1963C12.9559 49.8525 13.7902 50.0821 14.4464 49.7091C14.4517 49.7061 14.457 49.703 14.4623 49.6999L19.195 46.9666C19.8512 46.5937 20.0808 45.7593 19.7078 45.1032C19.3349 44.447 18.5006 44.2174 17.8444 44.5903Z" fill="#26C765"/>
<path d="M68.9202 47.3419C68.9149 47.3388 68.9096 47.3357 68.9043 47.3326L64.1716 44.5993C63.5206 44.2175 62.6832 44.4359 62.3014 45.0869C61.9196 45.7379 62.1379 46.5754 62.7889 46.9572C62.7942 46.9602 62.7995 46.9633 62.8048 46.9664L67.5375 49.6997C68.1886 50.0815 69.026 49.8632 69.4078 49.2121C69.7896 48.5609 69.5713 47.7237 68.9202 47.3419Z" fill="#26C765"/>
<path d="M72.4332 31.4331H66.9666C66.2118 31.4331 65.5999 32.045 65.5999 32.7998C65.5999 33.5545 66.2118 34.1664 66.9666 34.1664H72.4332C73.1879 34.1664 73.7998 33.5545 73.7998 32.7998C73.7998 32.045 73.1879 31.4331 72.4332 31.4331Z" fill="#26C765"/>
<path d="M63.4897 21.1833C63.7296 21.1833 63.9653 21.1201 64.1731 21.0002L68.9058 18.2669C69.562 17.8938 69.7914 17.0595 69.4183 16.4033C69.0452 15.7471 68.2108 15.5177 67.5547 15.8908C67.5494 15.8937 67.5443 15.8968 67.539 15.8998L62.8062 18.6332C62.1526 19.0105 61.9287 19.8464 62.3061 20.5C62.5503 20.9228 63.0015 21.1833 63.4897 21.1833Z" fill="#26C765"/>
<path d="M53.2982 11.4953C53.2987 11.4956 53.2993 11.496 53.2998 11.4961C53.9535 11.8731 54.7894 11.6488 55.1665 10.9949C55.1665 10.9947 55.1666 10.9946 55.1666 10.9946L57.8999 6.26184C58.2817 5.6108 58.0634 4.77339 57.4124 4.39158C56.7613 4.00977 55.9239 4.22809 55.5421 4.87913C55.539 4.88443 55.536 4.88972 55.5329 4.89502L52.7996 9.62774C52.4217 10.2812 52.645 11.1172 53.2982 11.4953Z" fill="#26C765"/>
<path d="M43.7334 54.6661C44.4882 54.6661 45.1001 54.0541 45.1001 53.2994V38.2662H47.8334C50.8525 38.2662 53.3 35.8187 53.3 32.7996C53.3 29.7805 50.8525 27.333 47.8334 27.333C44.8143 27.333 42.3668 29.7805 42.3668 32.7996V35.5329H39.6335V32.7996C39.6335 29.7805 37.186 27.333 34.1669 27.333C31.1478 27.333 28.7003 29.7805 28.7003 32.7996C28.7003 35.8187 31.1478 38.2662 34.1669 38.2662H36.9002V53.2994C36.9002 54.0541 37.5121 54.6661 38.2668 54.6661C39.0216 54.6661 39.6335 54.0541 39.6335 53.2994V38.2662H42.3668V53.2994C42.3668 54.0541 42.9785 54.6661 43.7334 54.6661ZM45.1001 32.7996C45.1001 31.29 46.3237 30.0663 47.8334 30.0663C49.343 30.0663 50.5667 31.29 50.5667 32.7996C50.5667 34.3093 49.343 35.5329 47.8334 35.5329H45.1001V32.7996ZM36.9002 35.5329H34.1669C32.6572 35.5329 31.4336 34.3093 31.4336 32.7996C31.4336 31.29 32.6572 30.0663 34.1669 30.0663C35.6765 30.0663 36.9002 31.29 36.9002 32.7996V35.5329Z" fill="#26C765"/>
<path d="M42.0619 10.959C29.9994 10.3795 19.7508 19.6883 19.1714 31.7509C18.8394 38.658 21.7943 45.3149 27.1395 49.7022C28.1028 50.4568 28.6759 51.6044 28.7002 52.8278V56.0326C28.7074 57.7638 29.8012 59.304 31.4335 59.8811V61.4992C31.4371 62.511 31.817 63.4854 32.4995 64.2325C31.0782 65.7775 31.0782 68.1541 32.4995 69.6991C30.9801 71.3647 31.0987 73.9466 32.7643 75.466C33.5209 76.1562 34.5093 76.5368 35.5335 76.5323C36.2691 76.5517 36.8811 75.9708 36.9003 75.2352C36.9078 74.9482 36.8224 74.6664 36.6568 74.4318C36.6136 74.3483 36.5624 74.269 36.5038 74.1954C36.3914 74.0925 36.2631 74.0085 36.1238 73.9466C36.0842 73.9261 36.0446 73.9097 36.0036 73.8933C35.8652 73.8429 35.7202 73.8139 35.5731 73.8072C35.5594 73.8072 35.5471 73.799 35.5335 73.799C34.7787 73.799 34.1668 73.1871 34.1668 72.4324C34.1668 71.6777 34.7787 71.0657 35.5335 71.0657H41.0001C41.7548 71.0657 42.3667 70.4538 42.3667 69.6991C42.3667 68.9444 41.7548 68.3324 41.0001 68.3324H35.5335C34.7787 68.3324 34.1668 67.7205 34.1668 66.9658C34.1668 66.211 34.7787 65.5991 35.5335 65.5991H41.0001C41.7548 65.5991 42.3667 64.9872 42.3667 64.2325C42.3667 63.4777 41.7548 62.8658 41.0001 62.8658H35.5335C34.7787 62.8658 34.1668 62.2539 34.1668 61.4992V60.1325H41.0001C41.7548 60.1325 42.3667 59.5206 42.3667 58.7659C42.3667 58.0111 41.7548 57.3992 41.0001 57.3992H32.8001C32.0454 57.3992 31.4335 56.7873 31.4335 56.0326V52.8278C31.4111 50.7843 30.47 48.8593 28.871 47.5867C20.7073 40.8774 19.5284 28.8205 26.2377 20.6568C30.0756 15.9869 35.8944 13.4053 41.9321 13.6937C52.0295 14.2943 59.961 22.5696 60.1332 32.6833C60.1822 38.5005 57.5666 44.0202 53.0334 47.6659C51.4464 48.9731 50.5389 50.9303 50.5666 52.9863V56.0326C50.5666 56.7873 49.9547 57.3992 49.2 57.3992H45.1C44.3453 57.3992 43.7334 58.0111 43.7334 58.7659C43.7334 59.5206 44.3453 60.1325 45.1 60.1325H47.8333V61.4992C47.8333 62.2539 47.2214 62.8658 46.4667 62.8658H45.1C44.3453 62.8658 43.7334 63.4777 43.7334 64.2325C43.7334 64.9872 44.3453 65.5991 45.1 65.5991H46.4667C47.2214 65.5991 47.8333 66.211 47.8333 66.9658C47.8333 67.7205 47.2214 68.3324 46.4667 68.3324H45.1C44.3453 68.3324 43.7334 68.9444 43.7334 69.6991C43.7334 70.4538 44.3453 71.0657 45.1 71.0657H46.4667C47.2214 71.0657 47.8333 71.6777 47.8333 72.4324C47.8333 73.1871 47.2214 73.799 46.4667 73.799H39.6334C38.8787 73.799 38.2668 74.411 38.2668 75.1657C38.2668 75.9204 38.8787 76.5323 39.6334 76.5323H44.8663C44.1118 78.6672 41.7693 79.7862 39.6344 79.0316C38.9808 78.8006 38.3966 78.4076 37.936 77.8894C37.4341 77.3257 36.5701 77.2755 36.0063 77.7774C35.4426 78.2793 35.3923 79.1433 35.8942 79.7071C38.3937 82.5236 42.7031 82.7807 45.5196 80.2814C46.6829 79.2491 47.4583 77.8501 47.7172 76.3164C49.8575 75.6474 51.0503 73.3701 50.3814 71.2297C50.2038 70.661 49.9029 70.1385 49.5006 69.6991C50.922 68.1541 50.922 65.7775 49.5006 64.2325C50.1831 63.4854 50.563 62.511 50.5666 61.4992V59.8811C52.1989 59.304 53.2928 57.7638 53.2999 56.0326V52.9863C53.2817 51.7585 53.8136 50.5868 54.7499 49.7924C59.9337 45.625 62.9242 39.3138 62.8665 32.6628C62.669 21.103 53.603 11.6452 42.0619 10.959Z" fill="#26C765"/>
</g>
<defs>
<clipPath id="clip0">
<rect width="82" height="82" fill="white"/>
</clipPath>
</defs>
</svg>
