<svg width="26" height="26" viewBox="0 0 26 26" fill="none" xmlns="http://www.w3.org/2000/svg">
<path fill-rule="evenodd" clip-rule="evenodd" d="M13 2.16667C10.7015 2.16667 8.49705 3.07976 6.87174 4.70507C5.24642 6.33039 4.33333 8.53479 4.33333 10.8333C4.33333 14.1896 6.51705 17.4463 8.91145 19.9737C10.0865 21.214 11.2652 22.2294 12.1514 22.9351C12.4812 23.1977 12.7693 23.4165 13 23.587C13.2307 23.4165 13.5188 23.1977 13.8486 22.9351C14.7348 22.2294 15.9135 21.214 17.0885 19.9737C19.4829 17.4463 21.6667 14.1896 21.6667 10.8333C21.6667 8.53479 20.7536 6.33039 19.1283 4.70507C17.5029 3.07976 15.2985 2.16667 13 2.16667ZM13 24.9167C12.3991 25.8181 12.3988 25.8179 12.3985 25.8177L12.3954 25.8156L12.3882 25.8107L12.3633 25.794C12.3422 25.7796 12.3122 25.7591 12.2737 25.7324C12.1967 25.6791 12.0862 25.6015 11.9468 25.5008C11.6681 25.2995 11.2736 25.0057 10.8017 24.63C9.85977 23.88 8.601 22.7964 7.33855 21.4638C4.85795 18.8454 2.16666 15.0604 2.16666 10.8333C2.16666 7.96015 3.30803 5.20465 5.33967 3.17301C7.37132 1.14137 10.1268 0 13 0C15.8732 0 18.6287 1.14137 20.6603 3.17301C22.692 5.20465 23.8333 7.96015 23.8333 10.8333C23.8333 15.0604 21.142 18.8454 18.6614 21.4638C17.399 22.7964 16.1402 23.88 15.1983 24.63C14.7264 25.0057 14.3319 25.2995 14.0532 25.5008C13.9138 25.6015 13.8033 25.6791 13.7263 25.7324C13.6878 25.7591 13.6577 25.7796 13.6367 25.794L13.6118 25.8107L13.6046 25.8156L13.6023 25.8171C13.602 25.8173 13.6009 25.8181 13 24.9167ZM13 24.9167L13.6009 25.8181C13.237 26.0606 12.7624 26.0603 12.3985 25.8177L13 24.9167Z" fill="#737373"/>
<path fill-rule="evenodd" clip-rule="evenodd" d="M13 8.66667C11.8034 8.66667 10.8333 9.63672 10.8333 10.8333C10.8333 12.0299 11.8034 13 13 13C14.1966 13 15.1667 12.0299 15.1667 10.8333C15.1667 9.63672 14.1966 8.66667 13 8.66667ZM8.66666 10.8333C8.66666 8.4401 10.6068 6.5 13 6.5C15.3932 6.5 17.3333 8.4401 17.3333 10.8333C17.3333 13.2266 15.3932 15.1667 13 15.1667C10.6068 15.1667 8.66666 13.2266 8.66666 10.8333Z" fill="#737373"/>
</svg>
