<svg width="82" height="82" viewBox="0 0 82 82" fill="none" xmlns="http://www.w3.org/2000/svg">
<path d="M26.9063 12.8125C23.3586 12.8125 19.8905 13.8645 16.9407 15.8355C13.9909 17.8065 11.6918 20.608 10.3342 23.8856C8.97653 27.1633 8.62131 30.7699 9.31343 34.2494C10.0056 37.729 11.7139 40.9251 14.2225 43.4337C16.7311 45.9423 19.9273 47.6507 23.4068 48.3428C26.8864 49.035 30.493 48.6797 33.7707 47.3221C37.0483 45.9644 39.8498 43.6653 41.8208 40.7155C43.7918 37.7657 44.8438 34.2977 44.8438 30.75C44.8387 25.9942 42.9472 21.4347 39.5844 18.0719C36.2215 14.7091 31.662 12.8176 26.9063 12.8125ZM26.9063 46.125C23.8654 46.125 20.8928 45.2233 18.3644 43.5338C15.836 41.8444 13.8653 39.4432 12.7016 36.6338C11.5379 33.8243 11.2334 30.7329 11.8267 27.7505C12.4199 24.768 13.8843 22.0285 16.0345 19.8782C18.1847 17.728 20.9243 16.2637 23.9068 15.6704C26.8892 15.0772 29.9806 15.3817 32.79 16.5454C35.5994 17.709 38.0007 19.6797 39.6901 22.2081C41.3795 24.7365 42.2813 27.7091 42.2813 30.75C42.2769 34.8264 40.6556 38.7345 37.7732 41.6169C34.8907 44.4993 30.9826 46.1206 26.9063 46.125Z" fill="#26C765"/>
<path d="M28.3262 36.6431H24.2368V40H21.9053V36.6431H19.3784V34.7144H21.9053V33.042H19.3784V31.1255H21.9053V22.2266H28.4604C30.3647 22.2266 31.8743 22.7108 32.9892 23.6792C34.1042 24.6476 34.6616 25.9578 34.6616 27.6099C34.6616 29.3433 34.1245 30.682 33.0503 31.626C31.9842 32.5618 30.4665 33.0339 28.4971 33.042H24.2368V34.7144H28.3262V36.6431ZM24.2368 31.1255H28.4604C29.7218 31.1255 30.6821 30.8285 31.3413 30.2344C32.0005 29.6403 32.3301 28.7736 32.3301 27.6343C32.3301 26.6007 31.9883 25.7666 31.3047 25.1318C30.6211 24.4889 29.6974 24.1634 28.5337 24.1553H24.2368V31.1255Z" fill="#26C765"/>
<path d="M57.3262 56.6431H53.2368V60H50.9053V56.6431H48.3784V54.7144H50.9053V53.042H48.3784V51.1255H50.9053V42.2266H57.4604C59.3647 42.2266 60.8743 42.7108 61.9892 43.6792C63.1042 44.6476 63.6616 45.9578 63.6616 47.6099C63.6616 49.3433 63.1245 50.682 62.0503 51.626C60.9842 52.5618 59.4665 53.0339 57.4971 53.042H53.2368V54.7144H57.3262V56.6431ZM53.2368 51.1255H57.4604C58.7218 51.1255 59.6821 50.8285 60.3413 50.2344C61.0005 49.6403 61.3301 48.7736 61.3301 47.6343C61.3301 46.6007 60.9883 45.7666 60.3047 45.1318C59.6211 44.4889 58.6974 44.1634 57.5337 44.1553H53.2368V51.1255Z" fill="#26C765"/>
<path d="M55.0937 26.9064C53.7106 26.9033 52.33 27.0233 50.9681 27.2652C50.289 22.4467 48.1858 17.9411 44.9284 14.3261C41.6711 10.7112 37.408 8.15181 32.6861 6.97626C27.9642 5.80072 22.9988 6.06263 18.4267 7.72839C13.8547 9.39416 9.88453 12.3878 7.02552 16.3254C4.16652 20.263 2.54903 24.9649 2.38054 29.828C2.21205 34.6911 3.50024 39.4937 6.07988 43.6197C8.65951 47.7457 12.413 51.0069 16.8587 52.9851C21.3045 54.9633 26.2399 55.5683 31.0319 54.7223C31.7004 59.3376 33.6813 63.6635 36.7387 67.1848C39.7961 70.7061 43.8012 73.2745 48.2769 74.5841C52.7527 75.8937 57.5105 75.8894 61.9839 74.5716C66.4572 73.2537 70.4575 70.678 73.5085 67.1511C76.5594 63.6241 78.5324 59.2946 79.1924 54.6782C79.8525 50.0617 79.1718 45.3528 77.2314 41.1122C75.2911 36.8716 72.1728 33.2781 68.248 30.7595C64.3232 28.2409 59.7572 26.9035 55.0937 26.9064ZM55.0937 35.8752C58.1286 35.8728 61.0963 36.7686 63.6229 38.4498C66.1496 40.131 68.1222 42.5223 69.2922 45.3226C70.4622 48.1228 70.7774 51.2067 70.1979 54.1857C69.6185 57.1647 68.1704 59.9056 66.036 62.0631C63.9017 64.2206 61.1765 65.6982 58.2039 66.3098C55.2313 66.9213 52.1442 66.6394 49.3315 65.4997C46.5188 64.3599 44.1064 62.4132 42.398 59.9048C40.6897 57.3965 39.7619 54.4386 39.7316 51.4039C45.1131 48.0563 48.9783 42.7433 50.5069 36.5927C51.9895 36.1177 53.5369 35.8756 55.0937 35.8752ZM26.9062 52.5314C22.5983 52.5314 18.3871 51.254 14.8052 48.8606C11.2233 46.4672 8.43157 43.0655 6.783 39.0855C5.13443 35.1055 4.70308 30.726 5.54352 26.5008C6.38395 22.2757 8.45842 18.3946 11.5046 15.3485C14.5507 12.3023 18.4318 10.2279 22.6569 9.38742C26.8821 8.54699 31.2616 8.97833 35.2416 10.6269C39.2216 12.2755 42.6233 15.0672 45.0167 18.6491C47.41 22.231 48.6875 26.4422 48.6875 30.7502C48.6794 36.5244 46.3819 42.0598 42.2989 46.1428C38.2159 50.2258 32.6805 52.5233 26.9062 52.5314ZM55.0937 73.0314C49.8321 73.0045 44.7565 71.0814 40.798 67.6149C36.8396 64.1483 34.2638 59.3708 33.5431 54.1586C34.8086 53.7927 36.0425 53.3257 37.2331 52.762C37.5344 56.4178 38.9469 59.8938 41.2811 62.7234C43.6154 65.553 46.7595 67.6006 50.2913 68.5914C53.8231 69.5821 57.5735 69.4685 61.0388 68.2658C64.5042 67.0632 67.5186 64.829 69.6773 61.8633C71.8359 58.8976 73.0355 55.3424 73.1149 51.6752C73.1944 48.0079 72.1498 44.4041 70.1215 41.3478C68.0933 38.2914 65.1784 35.9288 61.7684 34.5772C58.3583 33.2256 54.6164 32.9498 51.045 33.7867C51.1724 32.7794 51.2408 31.7655 51.25 30.7502C51.25 30.4427 51.2116 30.1608 51.1987 29.8533C54.1739 29.3103 57.2295 29.3934 60.1707 30.097C63.1119 30.8007 65.8743 32.1096 68.2815 33.9402C70.6888 35.7709 72.6881 38.0831 74.1521 40.7294C75.616 43.3757 76.5124 46.298 76.7841 49.31C77.0558 52.322 76.6969 55.3576 75.7301 58.2232C74.7634 61.0888 73.2101 63.7214 71.1693 65.9533C69.1286 68.1852 66.6451 69.9673 63.8772 71.186C61.1094 72.4046 58.118 73.0331 55.0937 73.0314Z" fill="#26C765"/>
</svg>
