<svg width="73" height="98" viewBox="0 0 73 98" fill="none" xmlns="http://www.w3.org/2000/svg">
<path d="M72.6075 20.9407C72.6075 39.4739 72.6075 58.0071 72.6075 76.5403C72.587 76.5454 72.5614 76.5403 72.541 76.5505C72.27 76.7093 71.999 76.8681 71.7279 77.0269C71.4825 77.1703 71.237 77.3086 70.9916 77.4521C70.741 77.5955 70.4853 77.744 70.2348 77.8926C69.9842 78.036 69.7285 78.1846 69.478 78.328C69.1405 78.5227 68.803 78.7224 68.4655 78.9171C68.1126 79.122 67.7598 79.3218 67.407 79.5267C67.0695 79.7213 66.732 79.9211 66.3945 80.1158C66.0417 80.3207 65.6888 80.5204 65.336 80.7253C64.8707 80.9968 64.4104 81.2683 63.9451 81.5398C63.7048 81.6781 63.4644 81.8164 63.2241 81.9496C62.9735 82.093 62.7178 82.2416 62.4673 82.3901C62.2014 82.5438 61.9355 82.6975 61.6696 82.8512C61.4292 82.9895 61.1889 83.1278 60.9537 83.2661C60.7133 83.4044 60.4781 83.5427 60.2378 83.6861C60.1866 83.7169 60.1304 83.7476 60.0793 83.7732C60.0281 83.7476 59.9872 83.7322 59.9463 83.7066C59.7315 83.5837 59.5219 83.4607 59.3071 83.3378C58.9543 83.1329 58.6014 82.9331 58.2486 82.7282C57.9111 82.5336 57.5736 82.3338 57.2361 82.1391C56.7759 81.8728 56.3157 81.6115 55.8554 81.3503C55.385 81.0788 54.9146 80.8022 54.4441 80.5256C54.214 80.3924 53.9788 80.2592 53.7435 80.126C53.3958 79.9262 53.0532 79.7213 52.7106 79.5216C52.3629 79.3218 52.0152 79.1271 51.6726 78.9273C51.3351 78.7327 50.9976 78.5329 50.6601 78.3383C50.2817 78.118 49.9033 77.8977 49.5249 77.6775C49.351 77.5801 49.1771 77.4828 48.9982 77.3803C48.9624 77.4674 48.9828 77.5545 48.9828 77.6365C48.9828 81.7345 48.9828 85.8376 48.9828 89.9356C48.9828 90.0175 48.9828 90.1046 48.9777 90.1866C48.8959 90.2327 48.8294 90.2788 48.7527 90.3249C48.4868 90.4786 48.2209 90.6374 47.955 90.791C47.7249 90.9242 47.4897 91.0574 47.2544 91.1906C46.9937 91.3391 46.7329 91.4877 46.4772 91.6414C46.0579 91.8821 45.6437 92.128 45.2244 92.3739C44.9329 92.5429 44.6414 92.712 44.3499 92.881C44.0022 93.0808 43.6545 93.2754 43.3119 93.4752C43.0767 93.6084 42.8466 93.7467 42.6164 93.8799C42.3761 94.0182 42.1358 94.1565 41.9006 94.2948C41.6398 94.4434 41.379 94.5919 41.1233 94.7405C40.7756 94.9402 40.433 95.1451 40.0904 95.3449C39.85 95.4832 39.6097 95.6164 39.3693 95.7547C39.0216 95.9545 38.679 96.1594 38.3364 96.3592C37.9887 96.559 37.6461 96.7536 37.2983 96.9534C37.0376 97.1019 36.7819 97.2556 36.5211 97.4042C36.4904 97.4247 36.4546 97.4349 36.4239 97.4503C36.3421 97.4042 36.2654 97.3683 36.1938 97.3273C35.9279 97.1737 35.662 97.02 35.3961 96.8663C35.1507 96.7229 34.9052 96.5846 34.6546 96.4411C34.3069 96.2414 33.9643 96.0365 33.6217 95.8367C33.274 95.6369 32.9263 95.4423 32.5836 95.2425C32.2462 95.0478 31.9087 94.848 31.5712 94.6534C31.1928 94.4331 30.8092 94.2231 30.4308 94.0028C29.9655 93.7365 29.5002 93.4598 29.04 93.1935C28.7996 93.0552 28.5593 92.922 28.3189 92.7837C27.961 92.5788 27.603 92.3688 27.24 92.1639C26.9894 92.0204 26.7337 91.877 26.4832 91.7284C26.0383 91.4723 25.5934 91.2111 25.1485 90.9549C24.7957 90.75 24.4429 90.5503 24.09 90.3454C24.0184 90.3044 23.952 90.2532 23.8906 90.2122C23.8804 90.1917 23.8753 90.1815 23.8753 90.1763C23.8753 85.9503 23.8701 81.7293 23.8701 77.5033C23.8701 77.4777 23.8701 77.4572 23.8701 77.4316C23.8701 77.4265 23.865 77.4162 23.865 77.4111C23.8599 77.406 23.8548 77.4008 23.8446 77.3855C23.5838 77.534 23.3179 77.6826 23.052 77.8414C22.7963 77.995 22.5304 78.1385 22.2747 78.287C22.0088 78.4407 21.7429 78.5944 21.477 78.7481C21.2111 78.9017 20.9452 79.0605 20.6793 79.2091C20.4134 79.3628 20.1424 79.5113 19.8765 79.665C19.6157 79.8135 19.36 79.9672 19.0992 80.1158C18.8333 80.2694 18.5674 80.4282 18.3015 80.5819C18.0356 80.7356 17.7697 80.8841 17.5038 81.0378C17.243 81.1864 16.9873 81.34 16.7265 81.4937C16.4606 81.6474 16.1947 81.8062 15.9288 81.9599C15.6629 82.1135 15.3919 82.2621 15.126 82.4158C14.8601 82.5694 14.5941 82.7231 14.3282 82.8819C14.0675 83.0305 13.8118 83.1893 13.551 83.3327C13.2851 83.4812 13.0243 83.6452 12.7584 83.7783C12.6459 83.7169 12.5436 83.6605 12.4465 83.6042C12.0987 83.4044 11.7561 83.1995 11.4135 82.9997C11.0658 82.7999 10.7181 82.6053 10.3755 82.4055C10.0277 82.2057 9.68513 82.0008 9.34252 81.8011C9.07662 81.6474 8.8056 81.4988 8.53969 81.3452C8.0897 81.0839 7.63971 80.8227 7.1846 80.5563C6.91358 80.3975 6.64257 80.2387 6.37155 80.0799C6.13121 79.9416 5.89087 79.8084 5.65053 79.6701C5.40508 79.5267 5.15963 79.3884 4.90907 79.2449C4.56135 79.0452 4.21874 78.8403 3.87613 78.6405C3.52841 78.4407 3.18069 78.246 2.83808 78.0463C2.50058 77.8516 2.16309 77.6518 1.82559 77.4572C1.44719 77.2369 1.06879 77.0166 0.690383 76.7964C0.511409 76.6939 0.32732 76.5966 0.148346 76.4942C0.148346 57.9917 0.148346 39.4893 0.148346 20.9868C0.480727 20.7973 0.813109 20.6078 1.14549 20.4131C1.37049 20.2851 1.59548 20.1519 1.82048 20.0187C2.16309 19.8189 2.51081 19.614 2.85342 19.4142C3.09376 19.2759 3.33409 19.1376 3.57443 19.0044C3.82499 18.861 4.08067 18.7125 4.33124 18.5639C4.5818 18.4205 4.83748 18.2719 5.08804 18.1285C5.43065 17.9287 5.77837 17.7238 6.12098 17.524C6.4687 17.3243 6.81643 17.1296 7.15903 16.9298C7.49653 16.7352 7.83402 16.5354 8.17152 16.3407C8.52435 16.1358 8.87719 15.9361 9.23003 15.7312C9.69025 15.4648 10.1454 15.1984 10.6005 14.9321C10.8459 14.7886 11.0914 14.6503 11.3368 14.5069C11.5874 14.3635 11.8431 14.2149 12.0936 14.0664C12.3442 13.9229 12.5999 13.7744 12.8504 13.6309C13.193 13.4312 13.5408 13.2263 13.8834 13.0265C14.2311 12.8267 14.5788 12.6321 14.9214 12.4323C15.2589 12.2376 15.5964 12.0379 15.9339 11.8432C16.2867 11.6383 16.6396 11.4385 16.9924 11.2336C17.4526 10.9673 17.9077 10.7009 18.3628 10.4345C18.6083 10.2911 18.8537 10.1528 19.0992 10.0093C19.3498 9.86592 19.6054 9.71737 19.856 9.56881C20.1066 9.42538 20.3622 9.27683 20.6128 9.1334C21.0577 8.87728 21.5026 8.61603 21.9474 8.35991C22.1929 8.21648 22.4383 8.07817 22.6889 7.93474C23.0264 7.74008 23.3639 7.54031 23.7014 7.34565C24.0542 7.14075 24.4071 6.94098 24.7599 6.73608C25.2099 6.47483 25.6599 6.20846 26.115 5.94721C26.3604 5.80378 26.6059 5.66548 26.8513 5.52205C27.1888 5.32739 27.5263 5.12761 27.8638 4.93296C28.2422 4.71269 28.6206 4.49242 28.999 4.27216C29.2394 4.13385 29.4797 3.99554 29.7201 3.86236C29.9655 3.71893 30.211 3.58062 30.4615 3.43719C30.799 3.24254 31.1365 3.04276 31.474 2.8481C31.8268 2.64321 32.1797 2.44343 32.5325 2.23853C32.9825 1.97728 33.4325 1.71603 33.8876 1.44966C34.1586 1.29087 34.4296 1.13207 34.7007 0.973273C34.9205 0.845211 35.1404 0.717149 35.3603 0.594209C35.6722 0.414922 35.9842 0.235635 36.2961 0.0563474C36.3165 0.0409799 36.3626 0.02049 36.3984 0C36.4495 0.0307349 36.4955 0.0563474 36.5313 0.0819599C36.7921 0.230512 37.0529 0.379064 37.3086 0.527617C37.6716 0.737639 38.0398 0.952783 38.4029 1.16281C38.6688 1.31648 38.9347 1.47016 39.2006 1.62383C39.4256 1.75701 39.6506 1.88508 39.8756 2.01826C40.2233 2.21804 40.571 2.41269 40.9136 2.61247C41.2614 2.81225 41.604 3.01715 41.9466 3.21692C42.2943 3.4167 42.642 3.61136 42.9846 3.81113C43.4346 4.07238 43.8846 4.33875 44.3397 4.6C44.6874 4.79977 45.0352 4.99443 45.3778 5.19421C45.8431 5.4657 46.3033 5.73719 46.7687 6.00868C47.009 6.14699 47.2493 6.2853 47.4897 6.41848C47.7402 6.56191 47.9959 6.71046 48.2465 6.85901C48.4715 6.9922 48.6965 7.12026 48.901 7.2432C48.9828 7.35077 48.9573 7.45322 48.9573 7.55055C48.9573 10.0606 48.9624 12.5655 48.9624 15.0755C48.9624 16.6583 48.9624 18.2412 48.9624 19.824C48.9624 19.906 48.9675 19.9931 48.9675 20.0904C49.1004 20.0187 49.2181 19.9521 49.3357 19.8855C49.6834 19.6857 50.026 19.4808 50.3686 19.2811C50.7163 19.0813 51.064 18.8866 51.4067 18.6868C51.7442 18.4922 52.0816 18.2924 52.4191 18.0978C52.7975 17.8775 53.1759 17.6572 53.5543 17.437C53.7947 17.2987 54.035 17.1655 54.2754 17.0272C54.5259 16.8837 54.7816 16.7352 55.0322 16.5917C55.4515 16.351 55.8657 16.1051 56.285 15.8592C56.5509 15.7056 56.8219 15.557 57.0878 15.4033C57.5378 15.1421 57.9878 14.8808 58.4429 14.6145C58.7139 14.4557 58.9849 14.2969 59.256 14.1381C59.4605 14.0203 59.6651 13.8973 59.8747 13.7846C59.9361 13.7539 59.9872 13.7027 60.0793 13.7027C60.2122 13.7795 60.3605 13.8615 60.5037 13.9434C60.7798 14.1073 61.0611 14.2713 61.3372 14.4301C61.5775 14.5684 61.8179 14.7015 62.0582 14.8399C62.3241 14.9935 62.59 15.1472 62.8559 15.3009C63.0758 15.4289 63.2957 15.557 63.5156 15.6799C63.7559 15.8183 63.9962 15.9514 64.2366 16.0897C64.5945 16.2946 64.9525 16.5047 65.3104 16.7096C65.561 16.853 65.8167 16.9964 66.0672 17.145C66.4047 17.3396 66.7422 17.5394 67.0797 17.7341C67.4325 17.939 67.7854 18.1387 68.1382 18.3385C68.5984 18.6049 69.0535 18.8713 69.5087 19.1376C69.7541 19.2811 69.9995 19.4194 70.245 19.5628C70.4956 19.7062 70.7512 19.8548 71.0018 20.0033C71.2677 20.157 71.5336 20.3107 71.7995 20.4644C72.0757 20.6385 72.3416 20.7922 72.6075 20.9407ZM37.1398 42.3323C37.1398 42.4193 37.1398 42.5116 37.1398 42.6038C37.1398 60.0868 37.1398 77.5648 37.1398 95.0478C37.1398 95.1093 37.1398 95.1708 37.1398 95.2322C37.1398 95.2681 37.1245 95.3091 37.1705 95.3347C37.3341 95.2425 37.5029 95.1503 37.6716 95.0529C38.0091 94.8583 38.3466 94.6585 38.6841 94.4639C39.1443 94.1975 39.6046 93.9362 40.0597 93.675C40.5301 93.4035 41.0006 93.1269 41.471 92.8503C41.7011 92.7171 41.9363 92.5839 42.1716 92.4507C42.5193 92.2509 42.8619 92.046 43.2045 91.8463C43.5522 91.6465 43.9 91.4518 44.2426 91.2521C44.5801 91.0574 44.9176 90.8576 45.255 90.663C45.6079 90.4581 45.9607 90.2583 46.3136 90.0534C46.6715 89.8434 47.0294 89.6333 47.3874 89.4233C47.4283 89.4028 47.459 89.3721 47.4999 89.3414C47.4999 75.6694 47.4999 62.0026 47.4999 48.3512C47.5408 48.2795 47.5971 48.2539 47.6482 48.2231C47.8221 48.1258 47.9959 48.0285 48.1698 47.926C48.5073 47.7314 48.8448 47.5316 49.1823 47.3369C49.5351 47.132 49.8879 46.9323 50.2408 46.7274C50.6908 46.4661 51.1408 46.1997 51.5959 45.9385C51.8464 45.7899 52.1021 45.6465 52.3527 45.5031C52.6032 45.3597 52.8589 45.2111 53.1095 45.0626C53.36 44.9191 53.6157 44.7706 53.8663 44.6271C54.214 44.4274 54.5566 44.2225 54.8992 44.0227C55.2469 43.8229 55.5947 43.6283 55.9373 43.4285C56.285 43.2287 56.6276 43.0238 56.9702 42.824C57.3179 42.6242 57.6657 42.4296 58.0083 42.2298C58.3458 42.0352 58.6832 41.8354 59.0207 41.6356C59.4043 41.4102 59.7878 41.1848 60.1764 40.9646C60.34 40.8672 60.5088 40.775 60.6775 40.6828C60.6929 40.6726 60.7184 40.6777 60.7338 40.6777C60.744 40.6879 60.7491 40.6931 60.7542 40.7033C60.7594 40.7084 60.7593 40.7187 60.7593 40.7238C60.7593 40.7289 60.7593 40.7392 60.7593 40.7494C60.7593 40.7597 60.7593 40.7648 60.7593 40.775C60.7593 40.7853 60.7593 40.7904 60.7593 40.8006C60.7593 40.8109 60.7593 40.816 60.7593 40.8263C60.7593 40.8365 60.7593 40.8416 60.7593 40.8519C60.7593 54.3804 60.7593 67.9089 60.7593 81.4374C60.7593 81.4476 60.7593 81.4527 60.7593 81.463C60.7593 81.4732 60.7593 81.4783 60.7593 81.4886C60.7593 81.504 60.7593 81.5193 60.7593 81.5347C60.7593 81.5449 60.7593 81.5501 60.7593 81.5603C60.7593 81.5705 60.7593 81.5757 60.7593 81.5859C60.7593 81.5962 60.7593 81.6013 60.7593 81.6064C60.7593 81.6115 60.7645 81.6218 60.7696 81.6269C60.7747 81.632 60.7798 81.6371 60.7849 81.6474C60.8054 81.6474 60.8309 81.6525 60.8514 81.6423C61.0764 81.5142 61.3065 81.3861 61.5315 81.253C61.9048 81.0378 62.273 80.8227 62.6463 80.6075C62.8661 80.4795 63.086 80.3514 63.3059 80.2285C63.5565 80.0799 63.8121 79.9365 64.0627 79.7879C64.3133 79.6445 64.569 79.4959 64.8195 79.3525C65.1672 79.1527 65.5098 78.9478 65.8525 78.7481C66.2002 78.5483 66.5479 78.3536 66.8905 78.1538C67.228 77.9592 67.5655 77.7594 67.903 77.5648C68.2558 77.3599 68.6087 77.1601 68.9615 76.9552C69.299 76.7605 69.6365 76.5607 69.974 76.361C70.3268 76.1561 70.6797 75.9563 71.0325 75.7514C71.0785 75.7258 71.1143 75.6848 71.1552 75.6489C71.1501 57.9917 71.145 40.3447 71.1399 22.6926C71.1399 22.6875 71.1297 22.6824 71.1245 22.6721C71.1194 22.6721 71.1092 22.667 71.1041 22.6721C59.8287 29.1931 48.5533 35.7089 37.2779 42.2298C37.2472 42.2503 37.1961 42.2913 37.1398 42.3323ZM35.6876 42.322C35.5393 42.2401 35.3859 42.153 35.2325 42.0659C34.762 41.7944 34.2916 41.5178 33.8211 41.2412C33.5603 41.0926 33.3047 40.9389 33.0439 40.7904C32.8035 40.6521 32.5632 40.5189 32.3229 40.3806C32.057 40.2269 31.791 40.0732 31.5251 39.9196C31.3053 39.7915 31.0854 39.6634 30.8655 39.5405C30.5178 39.3407 30.17 39.1461 29.8274 38.9463C29.4593 38.7363 29.0962 38.5211 28.7331 38.3111C28.4826 38.1677 28.2269 38.0191 27.9763 37.8757C27.6184 37.6708 27.2604 37.4608 26.9025 37.2508C26.6724 37.1176 26.4372 36.9793 26.207 36.8461C25.9411 36.6924 25.6752 36.5387 25.4093 36.3851C25.3786 36.3697 25.3531 36.339 25.3122 36.3543C25.3071 36.3646 25.3019 36.3697 25.3019 36.3748C25.3019 36.3799 25.3019 36.3902 25.3019 36.3953C25.3019 36.4055 25.3019 36.4107 25.3019 36.4209C25.3019 43.1672 25.3019 49.9187 25.3019 56.665C25.3019 56.6804 25.3019 56.6957 25.3019 56.7111C25.3019 56.7213 25.3019 56.7265 25.3019 56.7367C25.3019 56.747 25.3019 56.7521 25.3019 56.7623C25.3019 56.7674 25.2968 56.7777 25.2968 56.7828C25.2917 56.7879 25.2866 56.7931 25.2764 56.8084C25.2508 56.7982 25.2252 56.7879 25.1997 56.7777C24.9542 56.6394 24.7088 56.496 24.4633 56.3525C24.2179 56.2091 23.9724 56.0657 23.727 55.9274C23.4662 55.7788 23.2054 55.6302 22.9497 55.4817C22.602 55.2819 22.2594 55.077 21.9168 54.8772C21.6764 54.7389 21.4361 54.6058 21.1958 54.4674C20.9452 54.324 20.6895 54.1755 20.4389 54.0269C20.1782 53.8784 19.9174 53.7298 19.6617 53.5761C19.314 53.3764 18.9714 53.1715 18.6287 52.9717C18.3884 52.8334 18.1481 52.6951 17.9077 52.5619C17.6572 52.4184 17.4015 52.2699 17.1509 52.1213C16.9004 51.9779 16.6447 51.8294 16.3941 51.6859C16.0464 51.4862 15.7038 51.2813 15.3612 51.0815C15.0135 50.8817 14.6657 50.687 14.3231 50.4873C13.9856 50.2926 13.6481 50.0928 13.3106 49.8982C12.9578 49.6933 12.605 49.4935 12.2521 49.2886C12.1805 49.2476 12.1141 49.1964 12.0374 49.1452C12.0374 48.802 12.0374 48.4639 12.0374 48.1207C12.0374 47.7826 12.0374 47.4394 12.0374 47.1013C12.0374 46.753 12.0374 46.4046 12.0374 46.0614C12.0374 45.7234 12.0374 45.3801 12.0374 45.0421C12.0374 44.704 12.0374 44.3608 12.0374 44.0227C12.0374 43.6846 12.0374 43.3414 12.0374 43.0033C12.0374 42.655 12.0374 42.3067 12.0374 41.9634C12.0374 41.6254 12.0374 41.2822 12.0374 40.9441C12.0374 40.606 12.0374 40.2628 12.0374 39.9247C12.0374 39.5866 12.0374 39.2434 12.0374 38.9053C12.0374 38.557 12.0374 38.2087 12.0374 37.8655C12.0374 37.5274 12.0374 37.1842 12.0374 36.8461C12.0374 36.508 12.0374 36.1648 12.0374 35.8267C12.0374 35.4886 12.0374 35.1454 12.0374 34.8073C12.0374 34.459 12.0374 34.1107 12.0374 33.7675C12.0374 33.4294 12.0374 33.0862 12.0374 32.7481C12.0374 32.41 12.0374 32.0668 12.0374 31.7287C12.0374 31.3906 12.0374 31.0474 12.0374 30.7093C12.0374 30.361 12.0374 30.0127 12.0374 29.6695C12.0374 29.3314 12.0425 28.9933 12.0323 28.6603C12.0016 28.6347 11.9862 28.6194 11.9658 28.6091C11.6129 28.4042 11.2652 28.1993 10.9124 27.9944C10.4522 27.728 9.99195 27.4668 9.53684 27.2055C8.97946 26.8828 8.42208 26.5601 7.86471 26.2323C7.39426 25.9608 6.92381 25.6842 6.45336 25.4076C5.94201 25.1105 5.43065 24.8185 4.9193 24.5214C4.41305 24.2294 3.91193 23.9374 3.40568 23.6454C2.88921 23.3483 2.36763 23.0512 1.84605 22.749C1.79491 22.7182 1.74889 22.6875 1.6773 22.6773C1.6773 22.7234 1.67219 22.7644 1.67219 22.8002C1.67219 40.4267 1.67219 58.0532 1.67219 75.6848C1.76423 75.7411 1.84605 75.7975 1.93298 75.8436C2.2807 76.0434 2.62842 76.238 2.97103 76.4378C3.33921 76.6478 3.70227 76.863 4.06533 77.073C4.3159 77.2164 4.57157 77.365 4.82214 77.5084C5.0727 77.6518 5.32838 77.8004 5.57894 77.9489C5.84996 78.1077 6.12098 78.2665 6.39711 78.4253C6.63745 78.5636 6.87779 78.6968 7.11813 78.8351C7.36869 78.9786 7.62437 79.1271 7.87493 79.2705C8.1255 79.414 8.38118 79.5625 8.63174 79.7111C8.90276 79.8699 9.17378 80.0287 9.44991 80.1875C9.69025 80.3258 9.93058 80.459 10.1709 80.5973C10.4368 80.7509 10.7027 80.9046 10.9686 81.0583C11.301 81.253 11.6334 81.4425 11.9658 81.632C11.9811 81.6423 12.0067 81.6371 12.022 81.6423C12.0323 81.632 12.0374 81.6269 12.0425 81.6167C12.0476 81.6115 12.0425 81.6013 12.0476 81.5962C12.0476 81.591 12.0476 81.5808 12.0476 81.5757C12.0476 81.5654 12.0476 81.5603 12.0476 81.5501C12.0476 81.5398 12.0476 81.5347 12.0476 81.5244C12.0476 81.5142 12.0476 81.5091 12.0476 81.4988C12.0476 81.4835 12.0476 81.4681 12.0476 81.4527C12.0476 74.7679 12.0476 68.0779 12.0476 61.3931C12.0476 61.3777 12.0476 61.3623 12.0476 61.347C12.0476 61.3316 12.0476 61.3162 12.0476 61.3008C12.0476 61.2906 12.0476 61.2855 12.0476 61.2752C12.0476 61.265 12.0476 61.2599 12.0476 61.2496C12.0476 61.2394 12.0476 61.2343 12.0476 61.224C12.0476 61.2189 12.0476 61.2086 12.0476 61.2035C12.0476 61.1984 12.0527 61.1882 12.0629 61.1728C12.155 61.224 12.2521 61.265 12.3442 61.3213C12.6817 61.516 13.0192 61.7158 13.3567 61.9104C13.7095 62.1153 14.0623 62.3151 14.4152 62.52C14.8754 62.7864 15.3305 63.0527 15.7856 63.3191C16.0311 63.4625 16.2765 63.6008 16.522 63.7443C16.9413 63.985 17.3555 64.2309 17.7748 64.4768C18.1225 64.6766 18.4702 64.8712 18.8128 65.071C19.1503 65.2657 19.4878 65.4654 19.8253 65.6652C20.1782 65.8701 20.531 66.0699 20.8838 66.2748C21.3338 66.536 21.7838 66.8024 22.2389 67.0637C22.6633 67.3095 23.0929 67.5554 23.5173 67.8013C24.0133 68.0882 24.5145 68.3801 25.0105 68.6721C25.1076 68.7285 25.2048 68.7899 25.3071 68.8514C25.3071 75.6899 25.3071 82.5233 25.3071 89.367C25.5883 89.5309 25.8644 89.6897 26.1457 89.8536C26.4065 90.0022 26.6673 90.1507 26.9229 90.2993C27.1837 90.4478 27.4394 90.6015 27.7002 90.75C27.9508 90.8935 28.2064 91.042 28.457 91.1855C28.7076 91.3289 28.9632 91.4774 29.2138 91.6209C29.4797 91.7745 29.7456 91.9282 30.0115 92.0819C30.2416 92.2151 30.4769 92.3534 30.707 92.4866C30.9729 92.6403 31.2388 92.7888 31.5047 92.9425C31.7553 93.0859 32.0109 93.2345 32.2615 93.3779C32.5274 93.5316 32.7933 93.6852 33.0592 93.8389C33.2995 93.9772 33.5399 94.1155 33.7802 94.2538C34.0512 94.4126 34.3223 94.5714 34.5984 94.7302C34.9154 94.9146 35.2376 95.099 35.5546 95.2835C35.6006 95.3091 35.6416 95.3398 35.6927 95.3449C35.7029 95.1298 35.7029 42.5474 35.6876 42.322ZM23.8548 34.6332C23.9111 34.5973 23.9622 34.5614 24.0184 34.5358C24.1872 34.4385 24.3508 34.3463 24.5196 34.249C24.7701 34.1055 25.0258 33.957 25.2764 33.8084C25.5269 33.665 25.7826 33.5165 26.0332 33.373C26.3962 33.163 26.7644 32.9479 27.1275 32.7378C27.3576 32.6047 27.5928 32.4663 27.8229 32.3332C28.0633 32.1949 28.3036 32.0565 28.5388 31.9182C28.7996 31.7697 29.0604 31.6211 29.3161 31.4726C29.6638 31.2728 30.0064 31.0679 30.349 30.8681C30.5894 30.7298 30.8297 30.5966 31.07 30.4583C31.3206 30.3149 31.5763 30.1663 31.8268 30.0178C32.0774 29.8744 32.3331 29.7309 32.5836 29.5824C32.9211 29.3877 33.2586 29.188 33.5961 28.9933C33.949 28.7884 34.3018 28.5886 34.6546 28.3837C35.1046 28.1225 35.5546 27.8612 36.0097 27.5949C36.2808 27.4361 36.5518 27.2773 36.8228 27.1185C37.0631 26.9802 37.3035 26.847 37.5438 26.7087C37.7892 26.5652 38.0347 26.4269 38.2802 26.2835C38.6381 26.0786 38.9961 25.8686 39.354 25.6586C39.5841 25.5254 39.8193 25.3871 40.0494 25.2539C40.2949 25.1105 40.5403 24.967 40.7858 24.8287C41.0466 24.6802 41.3074 24.5316 41.5631 24.3831C41.9108 24.1833 42.2534 23.9784 42.596 23.7786C42.9437 23.5788 43.2914 23.3842 43.634 23.1844C43.9818 22.9846 44.3244 22.7797 44.667 22.5799C45.0147 22.3802 45.3624 22.1855 45.705 21.9857C46.0783 21.7706 46.4465 21.5554 46.8198 21.3403C47.0397 21.2122 47.2544 21.0842 47.4794 20.9561C47.4794 20.869 47.4794 20.7819 47.4794 20.7C47.4794 16.894 47.4794 13.088 47.4794 9.28195C47.4794 9.21024 47.4794 9.14365 47.4794 9.07193C47.4794 9.04632 47.4692 9.01558 47.459 8.9746C47.3669 9.02583 47.2851 9.06681 47.2033 9.10779C46.9425 9.25634 46.6868 9.41002 46.426 9.55857C46.1755 9.70712 45.9198 9.85055 45.6692 9.99398C45.3215 10.1938 44.9789 10.3987 44.6363 10.5984C44.396 10.7367 44.1556 10.8699 43.9153 11.0082C43.6647 11.1517 43.4091 11.3002 43.1585 11.4488C42.8977 11.5973 42.642 11.7459 42.3812 11.8995C42.0284 12.1044 41.6756 12.3093 41.3278 12.5142C41.0977 12.6474 40.8625 12.7806 40.6324 12.9189C40.3818 13.0624 40.1261 13.2109 39.8756 13.3595C39.625 13.5029 39.3693 13.6514 39.1188 13.7949C38.7455 14.01 38.3773 14.2252 38.004 14.4403C37.7841 14.5684 37.5643 14.6964 37.3444 14.8194C37.0938 14.9679 36.8381 15.1113 36.5876 15.2599C36.3217 15.4136 36.0558 15.5672 35.7898 15.7209C35.4524 15.9156 35.1149 16.1154 34.7723 16.31C34.5268 16.4534 34.2813 16.5969 34.0359 16.7352C33.7956 16.8735 33.5552 17.0118 33.32 17.1501C33.0592 17.2987 32.7984 17.4472 32.5427 17.5958C32.195 17.7955 31.8524 18.0004 31.5098 18.2002C31.1621 18.4 30.8144 18.5946 30.4717 18.7944C30.124 18.9942 29.7814 19.1991 29.4388 19.3989C29.0911 19.5987 28.7434 19.7933 28.4008 19.9931C27.9508 20.2543 27.5008 20.5156 27.0457 20.7819C26.7798 20.9356 26.5139 21.0944 26.2479 21.2481C26.0076 21.3864 25.7673 21.5196 25.5269 21.6579C25.2764 21.8013 25.0207 21.9499 24.7701 22.0933C24.3508 22.3341 23.9366 22.5799 23.5173 22.8258C23.2514 22.9795 22.9804 23.128 22.7145 23.2817C22.2543 23.5481 21.7992 23.8145 21.344 24.0808C21.1037 24.2191 20.8634 24.3523 20.623 24.4906C20.2753 24.6904 19.9327 24.8953 19.5901 25.0951C19.2168 25.3102 18.8486 25.5254 18.4753 25.7405C18.2555 25.8686 18.0356 25.9966 17.8157 26.1196C17.468 26.3194 17.1202 26.514 16.7776 26.7138C16.4299 26.9136 16.0873 27.1185 15.7447 27.3182C15.4788 27.4719 15.2078 27.6205 14.9419 27.7741C14.4765 28.0456 14.0112 28.3171 13.551 28.5886C13.5152 28.6091 13.4794 28.6398 13.4487 28.6655C13.4487 29.6029 13.4487 30.53 13.4487 31.4521C13.4487 36.6924 13.4487 41.9378 13.4487 47.1781C13.4487 47.2499 13.4487 47.3164 13.4538 47.3882C13.4538 47.4087 13.4692 47.424 13.4845 47.4548C13.6737 47.3523 13.8527 47.2499 14.0317 47.1474C14.3692 46.9528 14.7066 46.753 15.0441 46.5583C15.5044 46.292 15.9646 46.0307 16.4197 45.7695C16.885 45.498 17.3452 45.2265 17.8106 44.955C18.0509 44.8167 18.2913 44.6835 18.5316 44.5452C18.8793 44.3454 19.2219 44.1405 19.5645 43.9407C19.9123 43.741 20.26 43.5463 20.6026 43.3465C20.9503 43.1467 21.2929 42.9418 21.6355 42.7421C21.9832 42.5423 22.331 42.3476 22.6736 42.1479C23.0264 41.943 23.3741 41.7381 23.727 41.5332C23.7679 41.5127 23.7986 41.4819 23.8395 41.4563C23.8395 41.1234 23.8395 40.8006 23.8395 40.4779C23.8395 40.1552 23.8395 39.8274 23.8395 39.5047C23.8395 39.1819 23.8395 38.8541 23.8395 38.5314C23.8395 38.2087 23.8395 37.8808 23.8395 37.5581C23.8395 37.2354 23.8395 36.9075 23.8395 36.5848C23.8395 36.2621 23.8395 35.9343 23.8395 35.6116C23.8548 35.2837 23.8548 34.961 23.8548 34.6332ZM36.4137 1.69554C36.2808 1.76726 36.1683 1.82873 36.0558 1.89532C35.8154 2.03363 35.5802 2.17194 35.3399 2.31024C35.074 2.46392 34.808 2.61247 34.5421 2.76615C34.1944 2.96592 33.8518 3.17082 33.5092 3.3706C33.2689 3.50891 33.0285 3.64721 32.7882 3.7804C32.5376 3.92383 32.2819 4.07238 32.0314 4.22093C31.7808 4.36436 31.5251 4.51291 31.2746 4.65634C30.9269 4.85612 30.5842 5.06102 30.2416 5.2608C29.8939 5.46058 29.5462 5.65523 29.2036 5.85501C28.7536 6.11625 28.3036 6.3775 27.8485 6.64387C27.5775 6.80267 27.3065 6.96147 27.0354 7.12026C26.7951 7.25857 26.5548 7.39688 26.3144 7.53006C26.0741 7.66837 25.8337 7.80155 25.5934 7.93986C25.2457 8.13964 24.9031 8.34454 24.5605 8.54432C24.315 8.68775 24.0696 8.82605 23.8241 8.96948C23.5736 9.11291 23.3179 9.26146 23.0673 9.41002C22.8168 9.55345 22.5611 9.702 22.3105 9.84543C21.973 10.0401 21.6355 10.2399 21.298 10.4345C20.9452 10.6394 20.5924 10.8392 20.2395 11.0441C19.902 11.2387 19.5645 11.4385 19.227 11.6332C18.8742 11.8381 18.5214 12.0379 18.1685 12.2428C17.7032 12.5142 17.243 12.7857 16.7776 13.0572C16.5373 13.1955 16.297 13.3338 16.0566 13.467C15.8061 13.6105 15.5504 13.759 15.2998 13.9076C15.0493 14.051 14.7936 14.1995 14.543 14.343C14.1953 14.5428 13.8527 14.7477 13.5101 14.9474C13.1624 15.1472 12.8146 15.3419 12.472 15.5416C12.1345 15.7363 11.797 15.9361 11.4595 16.1307C11.1067 16.3356 10.7539 16.5354 10.401 16.7403C9.94081 17.0067 9.4857 17.273 9.0306 17.5394C8.78515 17.6828 8.5397 17.8211 8.29424 17.9646C8.04368 18.108 7.788 18.2566 7.53744 18.4051C7.28687 18.5485 7.0312 18.6971 6.78063 18.8405C6.43291 19.0403 6.0903 19.2452 5.74769 19.445C5.39997 19.6448 5.05225 19.8394 4.70964 20.0392C4.25965 20.3004 3.80965 20.5668 3.35455 20.828C3.07841 20.992 2.79717 21.1508 2.51592 21.3147C2.48524 21.3352 2.44945 21.3454 2.44433 21.3966C5.88576 23.3842 9.32718 25.3768 12.7737 27.3695C12.8095 27.349 12.8555 27.3336 12.8913 27.308C13.2442 27.1082 13.597 26.9033 13.9498 26.6984C14.2873 26.5038 14.6248 26.304 14.9623 26.1093C15.3356 25.8942 15.7038 25.679 16.0771 25.4639C16.3072 25.3307 16.5424 25.1975 16.7776 25.0643C17.0384 24.9158 17.2992 24.7672 17.5549 24.6136C17.9026 24.4138 18.2452 24.2089 18.5878 24.0091C18.8282 23.8708 19.0685 23.7325 19.3088 23.5993C19.5594 23.4559 19.8151 23.3073 20.0657 23.1588C20.3162 23.0154 20.5719 22.8668 20.8225 22.7234C21.1958 22.5082 21.5639 22.2931 21.9372 22.0779C22.1571 21.9499 22.377 21.8218 22.5969 21.6989C22.8474 21.5503 23.1031 21.4069 23.3537 21.2583C23.6042 21.1149 23.8599 20.9664 24.1105 20.8229C24.4582 20.6231 24.8008 20.4182 25.1434 20.2185C25.4911 20.0187 25.8389 19.824 26.1815 19.6243C26.519 19.4296 26.8565 19.2298 27.194 19.0352C27.5468 18.8303 27.8996 18.6305 28.2525 18.4256C28.59 18.2309 28.9275 18.0312 29.2649 17.8314C29.7252 17.565 30.1854 17.3038 30.6405 17.0425C31.1109 16.771 31.5814 16.4944 32.0518 16.2178C32.3126 16.0693 32.5683 15.9156 32.8291 15.7619C33.0439 15.639 33.2535 15.516 33.4683 15.3931C33.816 15.1933 34.1637 14.9987 34.5063 14.7989C34.8541 14.5991 35.1967 14.3942 35.5393 14.1944C35.8052 14.0407 36.0762 13.8922 36.3421 13.7385C36.8023 13.4722 37.2574 13.2058 37.7177 12.9394C37.958 12.8011 38.1983 12.6679 38.4387 12.5296C38.7762 12.335 39.1137 12.1352 39.4512 11.9405C39.804 11.7356 40.1568 11.5358 40.5097 11.3309C40.8472 11.1363 41.1847 10.9365 41.5221 10.7419C41.875 10.537 42.2278 10.3372 42.5807 10.1323C43.0255 9.87616 43.4704 9.61492 43.9153 9.35367C44.3755 9.0873 44.8357 8.82605 45.2908 8.56481C45.7715 8.28819 46.2471 8.01158 46.7226 7.72984C46.738 7.71959 46.7482 7.6991 46.7687 7.67349C43.3068 5.68084 39.8654 3.69332 36.4137 1.69554ZM36.4137 41.0465C36.7154 40.8724 37.0018 40.7084 37.2881 40.5445C37.641 40.3396 37.9938 40.1398 38.3466 39.9349C38.587 39.7966 38.8222 39.6583 39.0625 39.52C39.3029 39.3817 39.5432 39.2434 39.7784 39.1051C40.0392 38.9565 40.3 38.808 40.5557 38.6594C40.9034 38.4597 41.246 38.2548 41.5886 38.055C41.9363 37.8552 42.2841 37.6606 42.6267 37.4608C42.9744 37.261 43.317 37.0561 43.6596 36.8563C44.0073 36.6565 44.3551 36.4619 44.6977 36.2621C45.0352 36.0675 45.3727 35.8677 45.7102 35.673C46.1704 35.4067 46.6306 35.1454 47.0908 34.8842C47.5561 34.6127 48.0164 34.3412 48.4817 34.0697C48.722 33.9314 48.9624 33.7931 49.2027 33.6599C49.4533 33.5165 49.709 33.3679 49.9595 33.2194C50.2305 33.0606 50.5016 32.9018 50.7777 32.743C51.2021 32.4971 51.6265 32.2512 52.0561 32.0053C52.3066 31.8619 52.5623 31.7133 52.8129 31.5699C53.1606 31.3701 53.5032 31.1652 53.8458 30.9655C54.1935 30.7657 54.5413 30.571 54.8839 30.3713C55.2316 30.1715 55.5742 29.9666 55.9168 29.7668C56.2645 29.567 56.6123 29.3724 56.9549 29.1726C57.4049 28.9113 57.8548 28.6501 58.31 28.3837C58.581 28.2249 58.852 28.0661 59.123 27.9073C59.3633 27.769 59.6037 27.6358 59.844 27.4975C60.0895 27.3541 60.3349 27.2158 60.5804 27.0724C60.9281 26.8726 61.2707 26.6677 61.6133 26.4679C61.8537 26.3296 62.094 26.1913 62.3343 26.0581C62.5849 25.9147 62.8406 25.7661 63.0911 25.6176C63.3417 25.4741 63.5974 25.3256 63.8479 25.1822C64.1957 24.9824 64.5383 24.7775 64.8809 24.5777C65.2286 24.3779 65.5763 24.1833 65.9189 23.9835C66.2564 23.7888 66.5939 23.5891 66.9314 23.3944C67.3916 23.128 67.8519 22.8668 68.3121 22.6056C68.7825 22.3341 69.253 22.0574 69.7234 21.7808C69.9229 21.663 70.1223 21.5503 70.3217 21.4325C70.3473 21.4171 70.378 21.4069 70.3728 21.3659C70.3677 21.3557 70.3677 21.3454 70.3626 21.3454C66.9774 19.3835 63.5872 17.4216 60.1969 15.4597C60.156 15.4341 60.115 15.4136 60.0741 15.3931C60.069 15.388 60.0588 15.388 60.0537 15.388C60.0486 15.388 60.0383 15.388 60.023 15.388C59.7827 15.5263 59.5423 15.6697 59.2918 15.808C58.8315 16.0744 58.3713 16.3356 57.9111 16.5969C57.4458 16.8684 56.9855 17.1399 56.5202 17.4113C56.2799 17.5497 56.0395 17.688 55.7992 17.8211C55.5486 17.9646 55.293 18.1131 55.0424 18.2617C54.7765 18.4154 54.5106 18.569 54.2447 18.7227C53.8203 18.9686 53.3958 19.2145 52.9714 19.4603C52.7106 19.6089 52.4498 19.7574 52.1941 19.906C51.8464 20.1058 51.5038 20.3107 51.1612 20.5105C50.9209 20.6488 50.6805 20.7819 50.4402 20.9203C50.1794 21.0688 49.9237 21.2225 49.6629 21.371C49.4175 21.5145 49.1669 21.6528 48.9215 21.7962C48.584 21.9909 48.2465 22.1906 47.909 22.3853C47.5561 22.5902 47.2033 22.79 46.8505 22.9949C46.513 23.1895 46.1755 23.3893 45.838 23.5839C45.3778 23.8503 44.9175 24.1116 44.4573 24.3728C43.9869 24.6443 43.5164 24.9209 43.046 25.1975C42.7136 25.3922 42.3812 25.5766 42.0488 25.7713C41.5221 26.0735 41.0006 26.386 40.479 26.6882C40.0188 26.9545 39.5585 27.2158 39.1034 27.477C38.633 27.7485 38.1625 28.0251 37.6921 28.3018C37.4518 28.4401 37.2114 28.5784 36.9762 28.7167C36.7307 28.8601 36.4853 29.0035 36.2398 29.1419C35.979 29.2904 35.7183 29.439 35.4626 29.5875C35.1149 29.7873 34.7723 29.9922 34.4296 30.192C34.0819 30.3917 33.7342 30.5864 33.3916 30.7862C33.0439 30.9859 32.7013 31.1908 32.3587 31.3906C32.0109 31.5904 31.6632 31.7851 31.3206 31.9848C30.8706 32.2461 30.4206 32.5125 29.9655 32.7737C29.6178 32.9735 29.2701 33.1681 28.9275 33.3679C28.4775 33.6292 28.0275 33.8955 27.5724 34.1568C27.1479 34.4026 26.7184 34.6434 26.2991 34.8944C26.2224 34.9405 26.1355 34.9661 26.0792 35.0532C26.1303 35.1096 26.1917 35.1454 26.2531 35.1761C26.4525 35.2888 26.6519 35.4067 26.8513 35.5245C27.0661 35.6474 27.2758 35.7704 27.4905 35.8933C27.8383 36.0931 28.186 36.2877 28.5286 36.4875C28.8763 36.6873 29.2189 36.8922 29.5615 37.092C29.8274 37.2456 30.0985 37.3942 30.3644 37.5479C30.8144 37.8091 31.2644 38.0704 31.7195 38.3367C31.9905 38.4955 32.2615 38.6543 32.5325 38.8131C32.7729 38.9514 33.0132 39.0846 33.2535 39.2229C33.499 39.3663 33.7444 39.5047 33.995 39.6481C34.2456 39.7915 34.5012 39.9401 34.7518 40.0886C35.0228 40.2474 35.2938 40.4062 35.57 40.565C35.841 40.7187 36.1222 40.8775 36.4137 41.0465ZM59.3122 81.6371C59.3224 81.6166 59.3327 81.6064 59.3327 81.591C59.3327 68.8053 59.3327 56.0196 59.3327 43.2338C59.3327 43.2185 59.3224 43.2082 59.3071 43.1826C59.2611 43.2031 59.2099 43.2236 59.169 43.2492C58.9031 43.4029 58.6372 43.5565 58.3713 43.7102C58.1259 43.8536 57.8804 43.992 57.6299 44.1354C57.2821 44.3352 56.9395 44.5401 56.5969 44.7398C56.2492 44.9396 55.9015 45.1343 55.5589 45.334C55.2214 45.5287 54.8839 45.7285 54.5464 45.9231C54.0862 46.1895 53.6259 46.4507 53.1708 46.712C52.7055 46.9835 52.2453 47.255 51.7799 47.5265C51.5396 47.6648 51.2993 47.798 51.0589 47.9363C50.7112 48.136 50.3686 48.3409 50.026 48.5407C49.6834 48.7405 49.3357 48.9403 48.9931 49.1349C48.9879 49.1503 48.9828 49.1554 48.9828 49.1605C48.9777 49.1913 48.9777 49.222 48.9777 49.2528C48.9777 58.0481 48.9777 66.8434 48.9777 75.6336C48.9777 75.6387 48.9777 75.6489 48.9828 75.6541C48.9828 75.6592 48.9879 75.6694 48.9982 75.6848C49.2794 75.8487 49.5709 76.0178 49.8624 76.1868C50.2101 76.3866 50.5578 76.5812 50.9004 76.781C51.2379 76.9757 51.5754 77.1755 51.9129 77.3701C52.3731 77.6365 52.8333 77.8977 53.2936 78.159C53.764 78.4305 54.2344 78.7071 54.7049 78.9837C54.9657 79.1322 55.2214 79.2859 55.4822 79.4396C55.6969 79.5625 55.9066 79.6855 56.1214 79.8084C56.4691 80.0082 56.8168 80.2028 57.1594 80.4026C57.5071 80.6024 57.8497 80.8073 58.1923 81.0071C58.4838 81.1761 58.7753 81.3452 59.0719 81.5142C59.1435 81.5654 59.2151 81.632 59.3122 81.6371ZM23.8497 75.6541C23.8497 73.6665 23.8497 71.6995 23.8497 69.7325C23.8497 69.7273 23.8446 69.7171 23.8446 69.712C23.8395 69.7069 23.8395 69.6966 23.8343 69.6864C23.819 69.6761 23.8037 69.6556 23.7832 69.6454C23.4969 69.4815 23.2105 69.3124 22.9292 69.1485C22.6838 69.0051 22.4383 68.8668 22.1929 68.7233C21.7736 68.4826 21.3594 68.2367 20.9401 67.9908C20.5924 67.791 20.2497 67.5964 19.902 67.3966C19.5645 67.202 19.227 67.0022 18.8895 66.8024C18.5367 66.5975 18.1839 66.3977 17.831 66.1928C17.3657 65.9213 16.9055 65.6498 16.4401 65.3784C16.1794 65.2298 15.9237 65.0761 15.6629 64.9276C15.443 64.7995 15.2231 64.6766 15.0032 64.5485C14.7527 64.4 14.497 64.2565 14.2464 64.108C14.0265 63.9799 13.8067 63.8518 13.5868 63.7289C13.5612 63.7135 13.5356 63.6931 13.4947 63.734C13.4947 63.8057 13.4896 63.8928 13.4896 63.9748C13.4896 69.7735 13.4896 75.567 13.4896 81.3656C13.4896 81.4374 13.4896 81.504 13.4947 81.5757C13.4947 81.5962 13.5101 81.6167 13.5203 81.6423C13.5714 81.6167 13.6226 81.591 13.6686 81.5654C13.8271 81.4732 13.9856 81.3759 14.1442 81.2837C14.3896 81.1403 14.6351 81.002 14.8805 80.8585C15.2231 80.6587 15.5708 80.4538 15.9134 80.2541C16.2612 80.0543 16.6089 79.8596 16.9515 79.6599C17.2992 79.4601 17.6418 79.2552 17.9844 79.0554C18.3322 78.8556 18.6799 78.661 19.0225 78.4612C19.36 78.2665 19.6975 78.0668 20.035 77.8721C20.3878 77.6672 20.7406 77.4674 21.0935 77.2677C21.5384 77.0115 21.9832 76.7503 22.4281 76.489C22.8577 76.238 23.2923 75.9921 23.727 75.7411C23.773 75.7258 23.8037 75.6899 23.8497 75.6541ZM14.2106 48.7354C14.364 48.8276 14.4919 48.8993 14.6146 48.971C14.8856 49.1298 15.1618 49.2835 15.4328 49.4423C15.6578 49.5755 15.8828 49.7035 16.1078 49.8367C16.4555 50.0365 16.7981 50.2311 17.1458 50.4309C17.4833 50.6256 17.8208 50.8254 18.1583 51.02C18.5111 51.2249 18.864 51.4247 19.2168 51.6296C19.5543 51.8242 19.8918 52.024 20.2293 52.2187C20.6895 52.485 21.1497 52.7463 21.6048 53.0075C22.0753 53.279 22.5457 53.5556 23.0162 53.8323C23.277 53.9808 23.5326 54.1345 23.7934 54.283C23.8037 54.2882 23.819 54.2779 23.8446 54.2728C23.8548 54.1908 23.8497 54.1089 23.8497 54.0269C23.8497 50.4975 23.8497 46.9732 23.8497 43.4438C23.8497 43.3721 23.8497 43.3055 23.8497 43.2338C23.8497 43.2133 23.8343 43.198 23.8241 43.1672C23.7679 43.1928 23.7219 43.2133 23.6758 43.2389C23.3895 43.4029 23.1031 43.5668 22.8168 43.7358C22.3565 43.9971 21.8963 44.2583 21.4412 44.5247C20.9708 44.7962 20.5003 45.0728 20.0299 45.3494C19.7998 45.4826 19.5645 45.6158 19.3293 45.749C18.9662 45.959 18.5981 46.1741 18.235 46.3842C18.01 46.5173 17.785 46.6454 17.56 46.7786C17.2174 46.9784 16.8697 47.1833 16.5271 47.383C16.2663 47.5316 16.0055 47.675 15.7447 47.8236C15.2743 48.0951 14.8038 48.3717 14.3334 48.6432C14.2976 48.6688 14.2669 48.6944 14.2106 48.7354Z" fill="white"/>
</svg>
