<svg width="42" height="53" viewBox="0 0 42 53" fill="none" xmlns="http://www.w3.org/2000/svg">
<path d="M41.1558 11.3854C41.1558 21.4618 41.1558 31.5382 41.1558 41.6146C41.1445 41.6174 41.1302 41.6146 41.1189 41.6202C40.9681 41.7065 40.8174 41.7929 40.6667 41.8792C40.5301 41.9572 40.3936 42.0324 40.2571 42.1104C40.1177 42.1883 39.9755 42.2691 39.8362 42.3499C39.6968 42.4278 39.5546 42.5086 39.4152 42.5866C39.2275 42.6924 39.0398 42.8011 38.8521 42.9069C38.6559 43.0183 38.4596 43.1269 38.2634 43.2383C38.0756 43.3441 37.8879 43.4528 37.7002 43.5586C37.504 43.67 37.3077 43.7786 37.1115 43.89C36.8527 44.0376 36.5967 44.1852 36.3379 44.3328C36.2042 44.408 36.0705 44.4832 35.9369 44.5556C35.7975 44.6336 35.6553 44.7144 35.5159 44.7952C35.368 44.8787 35.2201 44.9623 35.0722 45.0458C34.9386 45.121 34.8049 45.1962 34.6741 45.2714C34.5404 45.3466 34.4096 45.4218 34.2759 45.4998C34.2474 45.5165 34.2162 45.5332 34.1877 45.5471C34.1593 45.5332 34.1365 45.5249 34.1138 45.5109C33.9943 45.4441 33.8777 45.3772 33.7583 45.3104C33.562 45.199 33.3658 45.0904 33.1695 44.979C32.9818 44.8731 32.7941 44.7645 32.6064 44.6587C32.3504 44.5139 32.0944 44.3718 31.8385 44.2298C31.5768 44.0822 31.3151 43.9318 31.0535 43.7814C30.9255 43.709 30.7947 43.6366 30.6638 43.5642C30.4704 43.4555 30.2799 43.3441 30.0893 43.2355C29.8959 43.1269 29.7025 43.0211 29.512 42.9125C29.3243 42.8066 29.1365 42.698 28.9488 42.5922C28.7384 42.4724 28.5279 42.3527 28.3174 42.2329C28.2207 42.18 28.124 42.1271 28.0245 42.0714C28.0046 42.1187 28.016 42.1661 28.016 42.2106C28.016 44.4387 28.016 46.6695 28.016 48.8976C28.016 48.9421 28.016 48.9895 28.0131 49.034C27.9676 49.0591 27.9306 49.0842 27.888 49.1092C27.7401 49.1928 27.5922 49.2791 27.4443 49.3627C27.3163 49.4351 27.1855 49.5075 27.0546 49.5799C26.9096 49.6607 26.7645 49.7415 26.6223 49.825C26.3891 49.9559 26.1587 50.0896 25.9255 50.2233C25.7634 50.3152 25.6013 50.4071 25.4392 50.499C25.2458 50.6076 25.0524 50.7135 24.8618 50.8221C24.731 50.8945 24.603 50.9697 24.475 51.0421C24.3413 51.1173 24.2077 51.1925 24.0768 51.2677C23.9318 51.3484 23.7867 51.4292 23.6445 51.51C23.4511 51.6186 23.2606 51.73 23.07 51.8386C22.9363 51.9138 22.8027 51.9862 22.669 52.0614C22.4756 52.17 22.285 52.2814 22.0945 52.3901C21.9011 52.4987 21.7105 52.6045 21.5171 52.7131C21.3721 52.7939 21.2299 52.8775 21.0848 52.9582C21.0677 52.9694 21.0478 52.9749 21.0308 52.9833C20.9853 52.9582 20.9426 52.9387 20.9028 52.9164C20.7549 52.8329 20.607 52.7493 20.4591 52.6658C20.3226 52.5878 20.1861 52.5126 20.0467 52.4346C19.8533 52.326 19.6627 52.2146 19.4722 52.106C19.2788 51.9974 19.0854 51.8915 18.8948 51.7829C18.7071 51.6771 18.5194 51.5685 18.3317 51.4626C18.1212 51.3429 17.9079 51.2287 17.6974 51.1089C17.4386 50.9641 17.1798 50.8137 16.9238 50.6689C16.7902 50.5937 16.6565 50.5213 16.5228 50.4461C16.3237 50.3347 16.1246 50.2205 15.9227 50.1091C15.7833 50.0311 15.6411 49.9531 15.5018 49.8724C15.2543 49.7331 15.0069 49.5911 14.7595 49.4518C14.5632 49.3404 14.367 49.2318 14.1707 49.1204C14.1309 49.0981 14.0939 49.0703 14.0598 49.048C14.0541 49.0368 14.0513 49.0313 14.0513 49.0285C14.0513 46.7308 14.0484 44.4359 14.0484 42.1382C14.0484 42.1243 14.0484 42.1131 14.0484 42.0992C14.0484 42.0964 14.0456 42.0909 14.0456 42.0881C14.0427 42.0853 14.0399 42.0825 14.0342 42.0741C13.8892 42.1549 13.7413 42.2357 13.5934 42.322C13.4512 42.4056 13.3033 42.4836 13.1611 42.5643C13.0132 42.6479 12.8653 42.7314 12.7174 42.815C12.5695 42.8985 12.4216 42.9849 12.2737 43.0656C12.1258 43.1492 11.975 43.2299 11.8272 43.3135C11.6821 43.3943 11.5399 43.4778 11.3948 43.5586C11.247 43.6421 11.0991 43.7285 10.9512 43.812C10.8033 43.8956 10.6554 43.9764 10.5075 44.0599C10.3624 44.1407 10.2202 44.2242 10.0752 44.3078C9.92727 44.3913 9.77938 44.4777 9.63148 44.5612C9.48359 44.6448 9.33285 44.7255 9.18496 44.8091C9.03706 44.8926 8.88917 44.9762 8.74127 45.0625C8.59622 45.1433 8.45401 45.2296 8.30896 45.3076C8.16107 45.3884 8.01602 45.4775 7.86812 45.5499C7.80555 45.5165 7.74867 45.4859 7.69463 45.4552C7.50123 45.3466 7.31067 45.2352 7.12012 45.1266C6.92671 45.018 6.73331 44.9121 6.54276 44.8035C6.34936 44.6949 6.1588 44.5835 5.96824 44.4749C5.82035 44.3913 5.66961 44.3106 5.52171 44.227C5.27143 44.085 5.02115 43.9429 4.76802 43.7981C4.61728 43.7118 4.46654 43.6254 4.3158 43.5391C4.18213 43.4639 4.04845 43.3915 3.91478 43.3163C3.77826 43.2383 3.64174 43.1631 3.50238 43.0851C3.30898 42.9765 3.11842 42.8651 2.92786 42.7565C2.73446 42.6479 2.54106 42.542 2.35051 42.4334C2.16279 42.3276 1.97508 42.219 1.78737 42.1131C1.5769 41.9934 1.36644 41.8736 1.15597 41.7539C1.05643 41.6982 0.954037 41.6452 0.854492 41.5895C0.854492 31.5298 0.854492 21.4702 0.854492 11.4105C1.03936 11.3074 1.22423 11.2044 1.4091 11.0985C1.53424 11.0289 1.65938 10.9565 1.78452 10.8841C1.97508 10.7755 2.16848 10.6641 2.35904 10.5554C2.49271 10.4802 2.62639 10.405 2.76006 10.3326C2.89942 10.2547 3.04163 10.1739 3.18099 10.0931C3.32035 10.0151 3.46256 9.93437 3.60192 9.85638C3.79248 9.74777 3.98588 9.63636 4.17644 9.52775C4.36984 9.41913 4.56324 9.31329 4.7538 9.20468C4.94151 9.09884 5.12922 8.99023 5.31694 8.88439C5.51318 8.77299 5.70943 8.66437 5.90567 8.55297C6.16164 8.40814 6.41477 8.26332 6.6679 8.1185C6.80442 8.04051 6.94094 7.96532 7.07745 7.88734C7.21682 7.80935 7.35902 7.72859 7.49838 7.64782C7.63775 7.56984 7.77995 7.48907 7.91932 7.41109C8.10987 7.30247 8.30327 7.19107 8.49383 7.08245C8.68723 6.97383 8.88063 6.868 9.07119 6.75938C9.2589 6.65355 9.44662 6.54493 9.63433 6.4391C9.83057 6.32769 10.0268 6.21908 10.2231 6.10767C10.479 5.96285 10.7322 5.81802 10.9853 5.6732C11.1218 5.59522 11.2583 5.52002 11.3948 5.44204C11.5342 5.36406 11.6764 5.28329 11.8158 5.20252C11.9551 5.12454 12.0973 5.04377 12.2367 4.96579C12.4841 4.82654 12.7316 4.6845 12.979 4.54524C13.1155 4.46726 13.2521 4.39207 13.3914 4.31408C13.5791 4.20825 13.7669 4.09963 13.9546 3.9938C14.1508 3.8824 14.3471 3.77378 14.5433 3.66238C14.7936 3.52034 15.0439 3.37551 15.297 3.23347C15.4335 3.15549 15.57 3.08029 15.7066 3.00231C15.8943 2.89648 16.082 2.78786 16.2697 2.68203C16.4802 2.56227 16.6906 2.44251 16.9011 2.32275C17.0348 2.24756 17.1684 2.17236 17.3021 2.09995C17.4386 2.02197 17.5751 1.94677 17.7145 1.86879C17.9022 1.76295 18.0899 1.65434 18.2776 1.5485C18.4739 1.4371 18.6701 1.32848 18.8664 1.21708C19.1167 1.07504 19.3669 0.933001 19.6201 0.788177C19.7708 0.701839 19.9216 0.615502 20.0723 0.529164C20.1946 0.459538 20.3169 0.389911 20.4392 0.323069C20.6127 0.225591 20.7862 0.128114 20.9597 0.0306358C20.971 0.0222806 20.9966 0.0111403 21.0165 0C21.045 0.0167105 21.0706 0.0306358 21.0905 0.0445612C21.2355 0.125328 21.3806 0.206096 21.5228 0.286863C21.7247 0.401051 21.9295 0.518024 22.1314 0.632212C22.2793 0.715765 22.4272 0.799317 22.5751 0.882869C22.7003 0.955281 22.8254 1.02491 22.9506 1.09732C23.144 1.20594 23.3374 1.31177 23.5279 1.42039C23.7213 1.52901 23.9119 1.64041 24.1024 1.74903C24.2958 1.85765 24.4892 1.96348 24.6798 2.0721C24.9301 2.21414 25.1804 2.35896 25.4335 2.501C25.6269 2.60962 25.8203 2.71545 26.0108 2.82407C26.2697 2.97168 26.5256 3.11929 26.7844 3.26689C26.9181 3.34209 27.0518 3.41729 27.1855 3.4897C27.3248 3.56768 27.467 3.64845 27.6064 3.72922C27.7315 3.80163 27.8567 3.87126 27.9704 3.9381C28.016 3.99658 28.0017 4.05229 28.0017 4.1052C28.0017 5.46989 28.0046 6.83179 28.0046 8.19648C28.0046 9.05707 28.0046 9.91766 28.0046 10.7782C28.0046 10.8228 28.0074 10.8702 28.0074 10.9231C28.0814 10.8841 28.1468 10.8479 28.2122 10.8117C28.4056 10.703 28.5962 10.5916 28.7867 10.483C28.9801 10.3744 29.1735 10.2686 29.3641 10.16C29.5518 10.0541 29.7395 9.94551 29.9272 9.83967C30.1377 9.71992 30.3481 9.60016 30.5586 9.4804C30.6923 9.4052 30.826 9.33279 30.9596 9.25759C31.099 9.17961 31.2412 9.09884 31.3806 9.02086C31.6138 8.88996 31.8442 8.75628 32.0774 8.6226C32.2253 8.53904 32.376 8.45828 32.5239 8.37472C32.7742 8.23269 33.0245 8.09065 33.2776 7.94582C33.4283 7.85948 33.5791 7.77315 33.7298 7.68681C33.8436 7.62275 33.9573 7.55591 34.074 7.49464C34.1081 7.47793 34.1365 7.45008 34.1877 7.45008C34.2617 7.49186 34.3441 7.53642 34.4238 7.58098C34.5774 7.6701 34.7338 7.75922 34.8874 7.84556C35.0211 7.92076 35.1547 7.99317 35.2884 8.06837C35.4363 8.15192 35.5842 8.23547 35.7321 8.31902C35.8544 8.38865 35.9767 8.45828 36.099 8.52512C36.2327 8.60032 36.3663 8.67273 36.5 8.74792C36.6991 8.85933 36.8982 8.97352 37.0973 9.08492C37.2366 9.1629 37.3788 9.24088 37.5182 9.32165C37.7059 9.42748 37.8936 9.5361 38.0813 9.64193C38.2776 9.75334 38.4738 9.86195 38.6701 9.97057C38.926 10.1154 39.1792 10.2602 39.4323 10.405C39.5688 10.483 39.7053 10.5582 39.8419 10.6362C39.9812 10.7142 40.1234 10.795 40.2628 10.8757C40.4107 10.9593 40.5586 11.0428 40.7065 11.1264C40.8601 11.2211 41.008 11.3046 41.1558 11.3854ZM21.4289 23.0159C21.4289 23.0632 21.4289 23.1133 21.4289 23.1635C21.4289 32.6689 21.4289 42.1716 21.4289 51.6771C21.4289 51.7105 21.4289 51.7439 21.4289 51.7774C21.4289 51.7968 21.4204 51.8191 21.446 51.8331C21.537 51.7829 21.6309 51.7328 21.7247 51.6799C21.9124 51.574 22.1002 51.4654 22.2879 51.3596C22.5438 51.2148 22.7998 51.0727 23.0529 50.9307C23.3146 50.7831 23.5763 50.6327 23.8379 50.4823C23.9659 50.4099 24.0967 50.3375 24.2276 50.2651C24.421 50.1564 24.6115 50.045 24.8021 49.9364C24.9955 49.8278 25.1889 49.722 25.3794 49.6133C25.5672 49.5075 25.7549 49.3989 25.9426 49.2931C26.1388 49.1817 26.3351 49.073 26.5313 48.9616C26.7304 48.8475 26.9295 48.7333 27.1286 48.6191C27.1513 48.6079 27.1684 48.5912 27.1912 48.5745C27.1912 41.1411 27.1912 33.7106 27.1912 26.2883C27.2139 26.2493 27.2452 26.2354 27.2736 26.2187C27.3703 26.1658 27.467 26.1129 27.5637 26.0572C27.7515 25.9513 27.9392 25.8427 28.1269 25.7369C28.3231 25.6255 28.5194 25.5169 28.7156 25.4055C28.9659 25.2634 29.2162 25.1186 29.4693 24.9766C29.6087 24.8958 29.7509 24.8178 29.8902 24.7398C30.0296 24.6618 30.1718 24.5811 30.3112 24.5003C30.4505 24.4223 30.5927 24.3416 30.7321 24.2636C30.9255 24.155 31.1161 24.0436 31.3066 23.9349C31.5 23.8263 31.6934 23.7205 31.884 23.6119C32.0774 23.5033 32.2679 23.3919 32.4585 23.2832C32.6519 23.1746 32.8453 23.0688 33.0359 22.9602C33.2236 22.8543 33.4113 22.7457 33.599 22.6371C33.8123 22.5146 34.0256 22.392 34.2418 22.2723C34.3328 22.2193 34.4266 22.1692 34.5205 22.1191C34.529 22.1135 34.5432 22.1163 34.5518 22.1163C34.5575 22.1219 34.5603 22.1246 34.5631 22.1302C34.566 22.133 34.566 22.1386 34.566 22.1414C34.566 22.1441 34.566 22.1497 34.566 22.1553C34.566 22.1609 34.566 22.1636 34.566 22.1692C34.566 22.1748 34.566 22.1776 34.566 22.1831C34.566 22.1887 34.566 22.1915 34.566 22.1971C34.566 22.2026 34.566 22.2054 34.566 22.211C34.566 29.5664 34.566 36.9218 34.566 44.2771C34.566 44.2827 34.566 44.2855 34.566 44.2911C34.566 44.2966 34.566 44.2994 34.566 44.305C34.566 44.3134 34.566 44.3217 34.566 44.3301C34.566 44.3356 34.566 44.3384 34.566 44.344C34.566 44.3496 34.566 44.3523 34.566 44.3579C34.566 44.3635 34.566 44.3663 34.566 44.369C34.566 44.3718 34.5688 44.3774 34.5717 44.3802C34.5745 44.383 34.5774 44.3858 34.5802 44.3913C34.5916 44.3913 34.6058 44.3941 34.6172 44.3885C34.7423 44.3189 34.8703 44.2493 34.9955 44.1769C35.2031 44.0599 35.4079 43.9429 35.6155 43.826C35.7378 43.7563 35.8601 43.6867 35.9824 43.6199C36.1217 43.5391 36.2639 43.4611 36.4033 43.3803C36.5427 43.3024 36.6849 43.2216 36.8242 43.1436C37.0176 43.035 37.2082 42.9236 37.3987 42.815C37.5921 42.7064 37.7855 42.6005 37.9761 42.4919C38.1638 42.3861 38.3515 42.2775 38.5392 42.1716C38.7355 42.0602 38.9317 41.9516 39.128 41.8402C39.3157 41.7344 39.5034 41.6257 39.6911 41.5171C39.8874 41.4057 40.0836 41.2971 40.2799 41.1857C40.3055 41.1718 40.3254 41.1495 40.3481 41.13C40.3453 31.5298 40.3424 21.9353 40.3396 12.3379C40.3396 12.3351 40.3339 12.3323 40.331 12.3267C40.3282 12.3267 40.3225 12.324 40.3197 12.3267C34.0484 15.8721 27.7771 19.4148 21.5057 22.9602C21.4887 22.9713 21.4602 22.9936 21.4289 23.0159ZM20.6212 23.0103C20.5387 22.9657 20.4534 22.9184 20.3681 22.871C20.1064 22.7234 19.8448 22.573 19.5831 22.4226C19.4381 22.3419 19.2958 22.2583 19.1508 22.1776C19.0171 22.1024 18.8834 22.03 18.7498 21.9548C18.6019 21.8712 18.454 21.7877 18.3061 21.7041C18.1838 21.6345 18.0615 21.5648 17.9392 21.498C17.7458 21.3894 17.5524 21.2836 17.3618 21.1749C17.1571 21.0607 16.9551 20.9438 16.7532 20.8296C16.6138 20.7516 16.4716 20.6708 16.3323 20.5929C16.1332 20.4815 15.9341 20.3673 15.735 20.2531C15.607 20.1807 15.4762 20.1055 15.3482 20.0331C15.2003 19.9495 15.0524 19.8659 14.9045 19.7824C14.8874 19.774 14.8732 19.7573 14.8505 19.7657C14.8476 19.7713 14.8448 19.774 14.8448 19.7768C14.8448 19.7796 14.8448 19.7852 14.8448 19.788C14.8448 19.7935 14.8448 19.7963 14.8448 19.8019C14.8448 23.4698 14.8448 27.1406 14.8448 30.8085C14.8448 30.8169 14.8448 30.8252 14.8448 30.8336C14.8448 30.8391 14.8448 30.8419 14.8448 30.8475C14.8448 30.8531 14.8448 30.8559 14.8448 30.8614C14.8448 30.8642 14.8419 30.8698 14.8419 30.8726C14.8391 30.8754 14.8362 30.8781 14.8306 30.8865C14.8163 30.8809 14.8021 30.8754 14.7879 30.8698C14.6514 30.7946 14.5149 30.7166 14.3783 30.6386C14.2418 30.5606 14.1053 30.4827 13.9688 30.4075C13.8237 30.3267 13.6787 30.2459 13.5365 30.1652C13.3431 30.0565 13.1525 29.9451 12.962 29.8365C12.8283 29.7613 12.6946 29.6889 12.5609 29.6137C12.4216 29.5357 12.2794 29.455 12.14 29.3742C11.995 29.2934 11.8499 29.2127 11.7077 29.1291C11.5143 29.0205 11.3237 28.9091 11.1332 28.8005C10.9995 28.7253 10.8658 28.6501 10.7322 28.5777C10.5928 28.4997 10.4506 28.4189 10.3112 28.3382C10.1719 28.2602 10.0297 28.1794 9.8903 28.1014C9.6969 27.9928 9.50634 27.8814 9.31579 27.7728C9.12239 27.6642 8.92898 27.5583 8.73843 27.4497C8.55071 27.3439 8.363 27.2353 8.17529 27.1294C7.97904 27.018 7.7828 26.9094 7.58655 26.798C7.54674 26.7757 7.50976 26.7479 7.4671 26.72C7.4671 26.5334 7.4671 26.3496 7.4671 26.163C7.4671 25.9792 7.4671 25.7926 7.4671 25.6088C7.4671 25.4194 7.4671 25.23 7.4671 25.0434C7.4671 24.8596 7.4671 24.673 7.4671 24.4892C7.4671 24.3054 7.4671 24.1188 7.4671 23.9349C7.4671 23.7511 7.4671 23.5645 7.4671 23.3807C7.4671 23.1913 7.4671 23.0019 7.4671 22.8153C7.4671 22.6315 7.4671 22.4449 7.4671 22.2611C7.4671 22.0773 7.4671 21.8907 7.4671 21.7069C7.4671 21.5231 7.4671 21.3365 7.4671 21.1527C7.4671 20.9633 7.4671 20.7739 7.4671 20.5873C7.4671 20.4035 7.4671 20.2169 7.4671 20.0331C7.4671 19.8492 7.4671 19.6626 7.4671 19.4788C7.4671 19.295 7.4671 19.1084 7.4671 18.9246C7.4671 18.7352 7.4671 18.5458 7.4671 18.3592C7.4671 18.1754 7.4671 17.9888 7.4671 17.805C7.4671 17.6212 7.4671 17.4346 7.4671 17.2508C7.4671 17.0669 7.4671 16.8803 7.4671 16.6965C7.4671 16.5071 7.4671 16.3178 7.4671 16.1312C7.4671 15.9473 7.46994 15.7635 7.46426 15.5825C7.44719 15.5686 7.43866 15.5602 7.42728 15.5547C7.23104 15.4432 7.03764 15.3318 6.84139 15.2204C6.58542 15.0756 6.32945 14.9336 6.07632 14.7915C5.76631 14.6161 5.4563 14.4406 5.14629 14.2624C4.88463 14.1148 4.62297 13.9644 4.36131 13.814C4.07689 13.6524 3.79248 13.4937 3.50807 13.3322C3.2265 13.1734 2.94777 13.0147 2.6662 12.8559C2.37895 12.6944 2.08885 12.5328 1.79874 12.3685C1.7703 12.3518 1.74471 12.3351 1.70489 12.3295C1.70489 12.3546 1.70204 12.3769 1.70204 12.3964C1.70204 21.9798 1.70204 31.5633 1.70204 41.1495C1.75324 41.1801 1.79874 41.2108 1.84709 41.2358C2.0405 41.3445 2.2339 41.4503 2.42445 41.5589C2.62923 41.6731 2.83116 41.7901 3.0331 41.9043C3.17246 41.9822 3.31467 42.063 3.45403 42.141C3.59339 42.219 3.7356 42.2997 3.87496 42.3805C4.0257 42.4668 4.17644 42.5532 4.33002 42.6395C4.4637 42.7147 4.59737 42.7871 4.73104 42.8623C4.87041 42.9403 5.01261 43.0211 5.15198 43.0991C5.29134 43.177 5.43355 43.2578 5.57291 43.3386C5.72365 43.4249 5.87439 43.5112 6.02797 43.5976C6.16164 43.6728 6.29532 43.7452 6.42899 43.8204C6.57689 43.9039 6.72478 43.9875 6.87268 44.071C7.05754 44.1769 7.24241 44.2799 7.42728 44.383C7.43581 44.3885 7.45004 44.3858 7.45857 44.3885C7.46426 44.383 7.4671 44.3802 7.46994 44.3746C7.47279 44.3718 7.46994 44.3663 7.47279 44.3635C7.47279 44.3607 7.47279 44.3551 7.47279 44.3523C7.47279 44.3468 7.47279 44.344 7.47279 44.3384C7.47279 44.3328 7.47279 44.3301 7.47279 44.3245C7.47279 44.3189 7.47279 44.3161 7.47279 44.3106C7.47279 44.3022 7.47279 44.2938 7.47279 44.2855C7.47279 40.651 7.47279 37.0137 7.47279 33.3791C7.47279 33.3708 7.47279 33.3624 7.47279 33.3541C7.47279 33.3457 7.47279 33.3374 7.47279 33.329C7.47279 33.3234 7.47279 33.3207 7.47279 33.3151C7.47279 33.3095 7.47279 33.3067 7.47279 33.3012C7.47279 33.2956 7.47279 33.2928 7.47279 33.2872C7.47279 33.2844 7.47279 33.2789 7.47279 33.2761C7.47279 33.2733 7.47563 33.2677 7.48132 33.2594C7.53252 33.2872 7.58655 33.3095 7.63775 33.3401C7.82546 33.446 8.01317 33.5546 8.20089 33.6604C8.39713 33.7718 8.59338 33.8805 8.78962 33.9919C9.04559 34.1367 9.29872 34.2815 9.55185 34.4263C9.68837 34.5043 9.82489 34.5795 9.9614 34.6575C10.1946 34.7884 10.425 34.9221 10.6582 35.0558C10.8516 35.1644 11.045 35.2702 11.2356 35.3788C11.4233 35.4847 11.611 35.5933 11.7987 35.7019C11.995 35.8133 12.1912 35.9219 12.3874 36.0333C12.6377 36.1754 12.888 36.3202 13.1411 36.4622C13.3772 36.5959 13.6161 36.7296 13.8522 36.8633C14.1281 37.0192 14.4068 37.178 14.6827 37.3367C14.7367 37.3674 14.7907 37.4008 14.8476 37.4342C14.8476 41.1523 14.8476 44.8676 14.8476 48.5884C15.0041 48.6776 15.1576 48.7639 15.3141 48.853C15.4591 48.9338 15.6042 49.0146 15.7464 49.0953C15.8914 49.1761 16.0336 49.2596 16.1787 49.3404C16.318 49.4184 16.4602 49.4992 16.5996 49.5771C16.739 49.6551 16.8812 49.7359 17.0205 49.8139C17.1684 49.8974 17.3163 49.981 17.4642 50.0645C17.5922 50.1369 17.723 50.2121 17.851 50.2845C17.9989 50.3681 18.1468 50.4489 18.2947 50.5324C18.4341 50.6104 18.5763 50.6912 18.7156 50.7692C18.8635 50.8527 19.0114 50.9363 19.1593 51.0198C19.293 51.095 19.4267 51.1702 19.5604 51.2454C19.7111 51.3317 19.8618 51.4181 20.0154 51.5044C20.1917 51.6047 20.3709 51.7049 20.5473 51.8052C20.5729 51.8191 20.5956 51.8358 20.6241 51.8386C20.6297 51.7217 20.6297 23.1328 20.6212 23.0103ZM14.0399 18.8299C14.0712 18.8104 14.0996 18.7909 14.1309 18.777C14.2248 18.7241 14.3158 18.6739 14.4096 18.621C14.549 18.543 14.6912 18.4623 14.8306 18.3815C14.9699 18.3035 15.1121 18.2228 15.2515 18.1448C15.4534 18.0306 15.6582 17.9136 15.8601 17.7994C15.9881 17.727 16.119 17.6518 16.2469 17.5794C16.3806 17.5042 16.5143 17.429 16.6451 17.3538C16.7902 17.273 16.9352 17.1923 17.0774 17.1115C17.2708 17.0029 17.4614 16.8915 17.6519 16.7829C17.7856 16.7077 17.9193 16.6353 18.053 16.5601C18.1923 16.4821 18.3345 16.4013 18.4739 16.3205C18.6133 16.2426 18.7555 16.1646 18.8948 16.0838C19.0825 15.978 19.2703 15.8694 19.458 15.7635C19.6542 15.6521 19.8505 15.5435 20.0467 15.4321C20.297 15.2901 20.5473 15.148 20.8004 15.0032C20.9511 14.9169 21.1019 14.8305 21.2526 14.7442C21.3863 14.669 21.52 14.5966 21.6536 14.5214C21.7901 14.4434 21.9267 14.3682 22.0632 14.2902C22.2623 14.1788 22.4614 14.0646 22.6605 13.9504C22.7884 13.878 22.9193 13.8028 23.0473 13.7304C23.1838 13.6524 23.3203 13.5745 23.4568 13.4993C23.6019 13.4185 23.7469 13.3377 23.8891 13.257C24.0825 13.1483 24.2731 13.0369 24.4636 12.9283C24.657 12.8197 24.8504 12.7139 25.041 12.6053C25.2344 12.4966 25.425 12.3852 25.6155 12.2766C25.8089 12.168 26.0023 12.0622 26.1929 11.9535C26.4005 11.8366 26.6053 11.7196 26.8129 11.6026C26.9352 11.533 27.0546 11.4634 27.1798 11.3937C27.1798 11.3464 27.1798 11.2991 27.1798 11.2545C27.1798 9.18518 27.1798 7.11587 27.1798 5.04656C27.1798 5.00757 27.1798 4.97136 27.1798 4.93237C27.1798 4.91844 27.1741 4.90173 27.1684 4.87945C27.1172 4.9073 27.0717 4.92958 27.0262 4.95187C26.8811 5.03263 26.7389 5.11619 26.5939 5.19695C26.4545 5.27772 26.3123 5.3557 26.173 5.43368C25.9796 5.5423 25.789 5.6537 25.5984 5.76232C25.4648 5.83752 25.3311 5.90993 25.1974 5.98513C25.0581 6.06311 24.9159 6.14388 24.7765 6.22465C24.6314 6.30541 24.4892 6.38618 24.3442 6.46973C24.1479 6.58114 23.9517 6.69254 23.7583 6.80394C23.6303 6.87635 23.4995 6.94876 23.3715 7.02396C23.2321 7.10194 23.0899 7.18271 22.9506 7.26348C22.8112 7.34146 22.669 7.42223 22.5296 7.50021C22.322 7.61718 22.1172 7.73416 21.9096 7.85113C21.7873 7.92076 21.665 7.99038 21.5427 8.05723C21.4033 8.13799 21.2611 8.21597 21.1218 8.29674C20.9739 8.38029 20.826 8.46385 20.6781 8.5474C20.4904 8.65323 20.3027 8.76185 20.1121 8.86768C19.9756 8.94566 19.8391 9.02365 19.7026 9.09884C19.5689 9.17404 19.4352 9.24924 19.3044 9.32444C19.1593 9.4052 19.0143 9.48597 18.8721 9.56674C18.6787 9.67535 18.4881 9.78676 18.2976 9.89538C18.1042 10.004 17.9108 10.1098 17.7202 10.2184C17.5268 10.3271 17.3362 10.4385 17.1457 10.5471C16.9523 10.6557 16.7589 10.7615 16.5683 10.8702C16.318 11.0122 16.0678 11.1542 15.8146 11.2991C15.6667 11.3826 15.5188 11.4689 15.3709 11.5525C15.2373 11.6277 15.1036 11.7001 14.9699 11.7753C14.8306 11.8533 14.6884 11.9341 14.549 12.012C14.3158 12.1429 14.0854 12.2766 13.8522 12.4103C13.7043 12.4939 13.5535 12.5746 13.4056 12.6582C13.1497 12.803 12.8965 12.9478 12.6434 13.0926C12.5097 13.1678 12.3761 13.2403 12.2424 13.3154C12.049 13.4241 11.8584 13.5355 11.6679 13.6441C11.4603 13.7611 11.2555 13.878 11.0479 13.995C10.9256 14.0646 10.8033 14.1343 10.681 14.2011C10.4876 14.3097 10.2942 14.4156 10.1036 14.5242C9.91021 14.6328 9.71965 14.7442 9.5291 14.8528C9.3812 14.9364 9.23046 15.0171 9.08257 15.1007C8.82375 15.2483 8.56494 15.3959 8.30896 15.5435C8.28905 15.5547 8.26915 15.5714 8.25208 15.5853C8.25208 16.095 8.25208 16.5991 8.25208 17.1004C8.25208 19.9495 8.25208 22.8014 8.25208 25.6506C8.25208 25.6895 8.25208 25.7257 8.25492 25.7647C8.25492 25.7759 8.26346 25.7842 8.27199 25.8009C8.37722 25.7452 8.47677 25.6895 8.57631 25.6338C8.76402 25.528 8.95174 25.4194 9.13945 25.3136C9.39542 25.1687 9.65139 25.0267 9.90452 24.8847C10.1633 24.737 10.4193 24.5894 10.6781 24.4418C10.8118 24.3666 10.9455 24.2942 11.0791 24.219C11.2725 24.1104 11.4631 23.999 11.6537 23.8904C11.8471 23.7818 12.0405 23.6759 12.231 23.5673C12.4244 23.4587 12.615 23.3473 12.8055 23.2387C12.9989 23.1301 13.1923 23.0242 13.3829 22.9156C13.5791 22.8042 13.7725 22.6928 13.9688 22.5814C13.9915 22.5703 14.0086 22.5535 14.0314 22.5396C14.0314 22.3586 14.0314 22.1831 14.0314 22.0077C14.0314 21.8322 14.0314 21.654 14.0314 21.4785C14.0314 21.303 14.0314 21.1248 14.0314 20.9493C14.0314 20.7739 14.0314 20.5956 14.0314 20.4202C14.0314 20.2447 14.0314 20.0665 14.0314 19.891C14.0314 19.7156 14.0314 19.5373 14.0314 19.3619C14.0399 19.1836 14.0399 19.0081 14.0399 18.8299ZM21.0251 0.92186C20.9511 0.960851 20.8886 0.994272 20.826 1.03048C20.6923 1.10568 20.5615 1.18087 20.4278 1.25607C20.2799 1.33962 20.132 1.42039 19.9841 1.50394C19.7907 1.61256 19.6002 1.72396 19.4096 1.83258C19.2759 1.90778 19.1423 1.98297 19.0086 2.05539C18.8692 2.13337 18.727 2.21414 18.5877 2.2949C18.4483 2.37288 18.3061 2.45365 18.1667 2.53163C17.9733 2.64025 17.7828 2.75166 17.5922 2.86027C17.3988 2.96889 17.2054 3.07472 17.0149 3.18334C16.7646 3.32538 16.5143 3.46742 16.2612 3.61224C16.1104 3.69858 15.9597 3.78492 15.8089 3.87126C15.6753 3.94645 15.5416 4.02165 15.4079 4.09406C15.2742 4.16926 15.1406 4.24167 15.0069 4.31687C14.8135 4.42549 14.6229 4.53689 14.4324 4.64551C14.2959 4.72349 14.1593 4.79869 14.0228 4.87667C13.8835 4.95465 13.7413 5.03542 13.6019 5.11618C13.4625 5.19417 13.3203 5.27493 13.181 5.35292C12.9932 5.45875 12.8055 5.56737 12.6178 5.6732C12.4216 5.7846 12.2253 5.89322 12.0291 6.00462C11.8414 6.11046 11.6537 6.21908 11.466 6.32491C11.2697 6.43631 11.0735 6.54493 10.8772 6.65633C10.6184 6.80394 10.3624 6.95155 10.1036 7.09916C9.96994 7.17436 9.83626 7.24955 9.70259 7.32197C9.56323 7.39995 9.42102 7.48071 9.28166 7.56148C9.14229 7.63946 9.00009 7.72023 8.86072 7.79821C8.66732 7.90683 8.47677 8.01823 8.28621 8.12685C8.09281 8.23547 7.89941 8.3413 7.70885 8.44992C7.52114 8.55575 7.33343 8.66437 7.14571 8.7702C6.94947 8.88161 6.75322 8.99023 6.55698 9.10163C6.30101 9.24645 6.04788 9.39128 5.79475 9.5361C5.65823 9.61408 5.52171 9.68928 5.3852 9.76726C5.24583 9.84524 5.10363 9.92601 4.96426 10.0068C4.8249 10.0848 4.68269 10.1655 4.54333 10.2435C4.34993 10.3521 4.15937 10.4635 3.96882 10.5721C3.77542 10.6808 3.58202 10.7866 3.39146 10.8952C3.14117 11.0373 2.89089 11.1821 2.63776 11.3241C2.48418 11.4132 2.32775 11.4996 2.17133 11.5887C2.15426 11.5998 2.13435 11.6054 2.13151 11.6333C4.04561 12.7139 5.95971 13.7973 7.87665 14.8807C7.89656 14.8695 7.92216 14.8612 7.94207 14.8472C8.13831 14.7386 8.33456 14.6272 8.53081 14.5158C8.71852 14.41 8.90623 14.3014 9.09394 14.1955C9.30157 14.0786 9.50634 13.9616 9.71396 13.8446C9.84195 13.7722 9.97278 13.6998 10.1036 13.6274C10.2487 13.5466 10.3937 13.4658 10.5359 13.3823C10.7293 13.2737 10.9199 13.1623 11.1104 13.0537C11.2441 12.9785 11.3778 12.9033 11.5115 12.8308C11.6508 12.7529 11.793 12.6721 11.9324 12.5913C12.0717 12.5133 12.214 12.4326 12.3533 12.3546C12.5609 12.2376 12.7657 12.1207 12.9733 12.0037C13.0956 11.9341 13.2179 11.8644 13.3402 11.7976C13.4796 11.7168 13.6218 11.6388 13.7612 11.5581C13.9005 11.4801 14.0427 11.3993 14.1821 11.3213C14.3755 11.2127 14.5661 11.1013 14.7566 10.9927C14.95 10.8841 15.1434 10.7782 15.334 10.6696C15.5217 10.5638 15.7094 10.4552 15.8971 10.3493C16.0934 10.2379 16.2896 10.1293 16.4858 10.0179C16.6736 9.91209 16.8613 9.80347 17.049 9.69485C17.305 9.55003 17.5609 9.40799 17.8141 9.26595C18.0757 9.11834 18.3374 8.96795 18.599 8.81755C18.7441 8.73678 18.8863 8.65323 19.0313 8.56968C19.1508 8.50284 19.2674 8.436 19.3869 8.36915C19.5803 8.26054 19.7737 8.1547 19.9642 8.04609C20.1576 7.93747 20.3482 7.82606 20.5387 7.71745C20.6866 7.63389 20.8374 7.55313 20.9853 7.46957C21.2412 7.32475 21.4944 7.17993 21.7503 7.0351C21.884 6.95991 22.0177 6.88749 22.1514 6.8123C22.3391 6.70646 22.5268 6.59785 22.7145 6.49201C22.9107 6.38061 23.107 6.27199 23.3032 6.16059C23.4909 6.05476 23.6787 5.94614 23.8664 5.8403C24.0626 5.7289 24.2589 5.62028 24.4551 5.50888C24.7025 5.36963 24.95 5.22759 25.1974 5.08555C25.4534 4.94073 25.7094 4.79869 25.9625 4.65665C26.2298 4.50625 26.4943 4.35586 26.7588 4.20268C26.7674 4.19711 26.7731 4.18597 26.7844 4.17204C24.859 3.08865 22.9449 2.00804 21.0251 0.92186ZM21.0251 22.3168C21.1929 22.2221 21.3522 22.133 21.5114 22.0439C21.7077 21.9325 21.9039 21.8239 22.1002 21.7125C22.2338 21.6373 22.3647 21.5621 22.4983 21.4869C22.632 21.4117 22.7657 21.3365 22.8965 21.2613C23.0416 21.1805 23.1866 21.0997 23.3288 21.019C23.5222 20.9104 23.7128 20.799 23.9033 20.6903C24.0967 20.5817 24.2901 20.4759 24.4807 20.3673C24.6741 20.2586 24.8647 20.1472 25.0552 20.0386C25.2486 19.93 25.442 19.8242 25.6326 19.7156C25.8203 19.6097 26.008 19.5011 26.1957 19.3953C26.4517 19.2504 26.7077 19.1084 26.9636 18.9664C27.2224 18.8188 27.4784 18.6712 27.7372 18.5235C27.8709 18.4483 28.0046 18.3731 28.1383 18.3007C28.2776 18.2228 28.4198 18.142 28.5592 18.0612C28.7099 17.9749 28.8607 17.8885 29.0142 17.8022C29.2503 17.6685 29.4864 17.5348 29.7253 17.4012C29.8646 17.3232 30.0068 17.2424 30.1462 17.1644C30.3396 17.0558 30.5302 16.9444 30.7207 16.8358C30.9141 16.7272 31.1075 16.6213 31.2981 16.5127C31.4915 16.4041 31.682 16.2927 31.8726 16.1841C32.066 16.0755 32.2594 15.9696 32.45 15.861C32.7002 15.719 32.9505 15.5769 33.2037 15.4321C33.3544 15.3458 33.5051 15.2594 33.6559 15.1731C33.7895 15.0979 33.9232 15.0255 34.0569 14.9503C34.1934 14.8723 34.3299 14.7971 34.4664 14.7191C34.6598 14.6105 34.8504 14.4991 35.041 14.3905C35.1746 14.3153 35.3083 14.2401 35.442 14.1677C35.5813 14.0897 35.7236 14.0089 35.8629 13.9282C36.0023 13.8502 36.1445 13.7694 36.2838 13.6914C36.4772 13.5828 36.6678 13.4714 36.8584 13.3628C37.0518 13.2542 37.2452 13.1483 37.4357 13.0397C37.6234 12.9339 37.8111 12.8253 37.9989 12.7194C38.2548 12.5746 38.5108 12.4326 38.7668 12.2905C39.0284 12.1429 39.2901 11.9925 39.5518 11.8421C39.6627 11.7781 39.7736 11.7168 39.8845 11.6528C39.8987 11.6444 39.9158 11.6388 39.913 11.6166C39.9101 11.611 39.9101 11.6054 39.9073 11.6054C38.0245 10.5387 36.1388 9.47204 34.2531 8.40536C34.2304 8.39143 34.2076 8.38029 34.1849 8.36915C34.182 8.36637 34.1763 8.36637 34.1735 8.36637C34.1707 8.36637 34.165 8.36637 34.1564 8.36637C34.0228 8.44157 33.8891 8.51955 33.7497 8.59475C33.4938 8.73957 33.2378 8.88161 32.9818 9.02365C32.723 9.17126 32.467 9.31886 32.2082 9.46647C32.0745 9.54167 31.9409 9.61687 31.8072 9.68928C31.6678 9.76726 31.5256 9.84803 31.3863 9.9288C31.2384 10.0123 31.0905 10.0959 30.9426 10.1795C30.7065 10.3131 30.4704 10.4468 30.2344 10.5805C30.0893 10.6613 29.9443 10.742 29.8021 10.8228C29.6087 10.9314 29.4181 11.0428 29.2276 11.1514C29.0939 11.2266 28.9602 11.2991 28.8265 11.3743C28.6815 11.455 28.5393 11.5386 28.3942 11.6193C28.2577 11.6973 28.1183 11.7725 27.9818 11.8505C27.7941 11.9563 27.6064 12.0649 27.4187 12.1708C27.2224 12.2822 27.0262 12.3908 26.83 12.5022C26.6422 12.608 26.4545 12.7167 26.2668 12.8225C26.0108 12.9673 25.7549 13.1094 25.4989 13.2514C25.2372 13.399 24.9756 13.5494 24.7139 13.6998C24.5291 13.8056 24.3442 13.9059 24.1593 14.0117C23.8664 14.176 23.5763 14.3459 23.2862 14.5102C23.0302 14.6551 22.7742 14.7971 22.5211 14.9391C22.2594 15.0868 21.9978 15.2372 21.7361 15.3875C21.6024 15.4627 21.4688 15.5379 21.3379 15.6131C21.2014 15.6911 21.0649 15.7691 20.9284 15.8443C20.7833 15.9251 20.6383 16.0058 20.4961 16.0866C20.3027 16.1952 20.1121 16.3066 19.9216 16.4152C19.7282 16.5239 19.5348 16.6297 19.3442 16.7383C19.1508 16.8469 18.9602 16.9583 18.7697 17.0669C18.5763 17.1756 18.3829 17.2814 18.1923 17.39C17.942 17.5321 17.6918 17.6769 17.4386 17.8189C17.2452 17.9275 17.0518 18.0334 16.8613 18.142C16.611 18.284 16.3607 18.4288 16.1076 18.5709C15.8715 18.7046 15.6326 18.8355 15.3994 18.9719C15.3567 18.997 15.3084 19.0109 15.2771 19.0583C15.3055 19.0889 15.3397 19.1084 15.3738 19.1251C15.4847 19.1864 15.5956 19.2504 15.7066 19.3145C15.826 19.3813 15.9426 19.4482 16.0621 19.515C16.2555 19.6236 16.4489 19.7295 16.6394 19.8381C16.8328 19.9467 17.0234 20.0581 17.2139 20.1667C17.3618 20.2503 17.5126 20.3311 17.6605 20.4146C17.9108 20.5566 18.161 20.6987 18.4142 20.8435C18.5649 20.9298 18.7156 21.0162 18.8664 21.1025C19.0001 21.1777 19.1337 21.2501 19.2674 21.3253C19.4039 21.4033 19.5404 21.4785 19.6798 21.5565C19.8192 21.6345 19.9614 21.7152 20.1007 21.796C20.2515 21.8823 20.4022 21.9687 20.5558 22.055C20.7065 22.1386 20.863 22.2249 21.0251 22.3168ZM33.7611 44.3858C33.7668 44.3746 33.7725 44.369 33.7725 44.3607C33.7725 37.4091 33.7725 30.4576 33.7725 23.506C33.7725 23.4977 33.7668 23.4921 33.7583 23.4782C33.7327 23.4893 33.7042 23.5005 33.6815 23.5144C33.5336 23.5979 33.3857 23.6815 33.2378 23.7651C33.1013 23.843 32.9647 23.9182 32.8254 23.9962C32.632 24.1048 32.4414 24.2162 32.2509 24.3249C32.0575 24.4335 31.8641 24.5393 31.6735 24.6479C31.4858 24.7538 31.2981 24.8624 31.1104 24.9682C30.8544 25.113 30.5984 25.2551 30.3453 25.3971C30.0865 25.5447 29.8305 25.6923 29.5717 25.8399C29.438 25.9151 29.3043 25.9875 29.1707 26.0627C28.9773 26.1714 28.7867 26.2828 28.5962 26.3914C28.4056 26.5 28.2122 26.6086 28.0216 26.7145C28.0188 26.7228 28.016 26.7256 28.016 26.7284C28.0131 26.7451 28.0131 26.7618 28.0131 26.7785C28.0131 31.5605 28.0131 36.3425 28.0131 41.1217C28.0131 41.1244 28.0131 41.13 28.016 41.1328C28.016 41.1356 28.0188 41.1411 28.0245 41.1495C28.1809 41.2386 28.343 41.3305 28.5051 41.4224C28.6985 41.5311 28.8919 41.6369 29.0825 41.7455C29.2702 41.8513 29.4579 41.96 29.6456 42.0658C29.9016 42.2106 30.1576 42.3527 30.4136 42.4947C30.6752 42.6423 30.9369 42.7927 31.1985 42.9431C31.3436 43.0239 31.4858 43.1074 31.6308 43.191C31.7503 43.2578 31.8669 43.3246 31.9864 43.3915C32.1798 43.5001 32.3732 43.6059 32.5637 43.7146C32.7571 43.8232 32.9477 43.9346 33.1382 44.0432C33.3004 44.1351 33.4625 44.227 33.6274 44.3189C33.6672 44.3468 33.7071 44.383 33.7611 44.3858ZM14.037 41.1328C14.037 40.0522 14.037 38.9827 14.037 37.9132C14.037 37.9105 14.0342 37.9049 14.0342 37.9021C14.0314 37.8993 14.0314 37.8937 14.0285 37.8882C14.02 37.8826 14.0114 37.8715 14.0001 37.8659C13.8408 37.7768 13.6815 37.6849 13.5251 37.5957C13.3886 37.5178 13.2521 37.4426 13.1155 37.3646C12.8823 37.2337 12.652 37.1 12.4187 36.9663C12.2253 36.8577 12.0348 36.7519 11.8414 36.6432C11.6537 36.5374 11.466 36.4288 11.2782 36.3202C11.082 36.2088 10.8857 36.1002 10.6895 35.9888C10.4307 35.8411 10.1747 35.6935 9.9159 35.5459C9.77085 35.4652 9.62864 35.3816 9.48359 35.3008C9.36129 35.2312 9.23899 35.1644 9.1167 35.0947C8.97733 35.014 8.83513 34.936 8.69577 34.8552C8.57347 34.7856 8.45117 34.716 8.32887 34.6491C8.31465 34.6408 8.30043 34.6296 8.27768 34.6519C8.27768 34.6909 8.27483 34.7383 8.27483 34.7828C8.27483 37.9355 8.27483 41.0854 8.27483 44.2382C8.27483 44.2771 8.27483 44.3133 8.27768 44.3523C8.27768 44.3635 8.28621 44.3746 8.2919 44.3885C8.32034 44.3746 8.34878 44.3607 8.37438 44.3468C8.46255 44.2966 8.55071 44.2437 8.63888 44.1936C8.7754 44.1156 8.91192 44.0404 9.04844 43.9624C9.23899 43.8538 9.4324 43.7424 9.62295 43.6338C9.81635 43.5252 10.0098 43.4193 10.2003 43.3107C10.3937 43.2021 10.5843 43.0907 10.7748 42.9821C10.9682 42.8735 11.1616 42.7676 11.3522 42.659C11.5399 42.5532 11.7276 42.4446 11.9153 42.3387C12.1116 42.2273 12.3078 42.1187 12.5041 42.0101C12.7515 41.8708 12.9989 41.7288 13.2464 41.5868C13.4853 41.4503 13.727 41.3166 13.9688 41.1801C13.9944 41.1718 14.0114 41.1523 14.037 41.1328ZM8.67586 26.4972C8.76118 26.5473 8.83228 26.5863 8.90054 26.6253C9.05128 26.7117 9.20487 26.7952 9.3556 26.8816C9.48075 26.954 9.60589 27.0236 9.73103 27.096C9.92443 27.2046 10.115 27.3105 10.3084 27.4191C10.4961 27.5249 10.6838 27.6335 10.8715 27.7394C11.0678 27.8508 11.264 27.9594 11.4603 28.0708C11.648 28.1766 11.8357 28.2852 12.0234 28.3911C12.2794 28.5359 12.5353 28.6779 12.7885 28.82C13.0501 28.9676 13.3118 29.118 13.5735 29.2684C13.7185 29.3491 13.8607 29.4327 14.0058 29.5135C14.0114 29.5162 14.02 29.5107 14.0342 29.5079C14.0399 29.4633 14.037 29.4188 14.037 29.3742C14.037 27.4553 14.037 25.5391 14.037 23.6202C14.037 23.5812 14.037 23.545 14.037 23.506C14.037 23.4949 14.0285 23.4865 14.0228 23.4698C13.9915 23.4838 13.9659 23.4949 13.9403 23.5088C13.7811 23.5979 13.6218 23.6871 13.4625 23.779C13.2066 23.921 12.9506 24.0631 12.6975 24.2079C12.4358 24.3555 12.1741 24.5059 11.9125 24.6563C11.7845 24.7287 11.6537 24.8011 11.5228 24.8735C11.3209 24.9877 11.1161 25.1047 10.9142 25.2189C10.789 25.2913 10.6639 25.3609 10.5388 25.4333C10.3482 25.5419 10.1548 25.6533 9.96425 25.762C9.8192 25.8427 9.67415 25.9207 9.5291 26.0015C9.26744 26.1491 9.00578 26.2995 8.74412 26.4471C8.72421 26.461 8.70714 26.4749 8.67586 26.4972Z" fill="#C4C4C4"/>
</svg>
