<svg width="80" height="80" fill="none" xmlns="http://www.w3.org/2000/svg"><path d="M49.386 67.773v1.014c0 .55.459.919.918.919.438 0 .758-.236.87-.61l-.339-.242-1.45-1.081zM9.629 39.224c.55 0 .918-.368.918-.918V34.45c0-.55-.368-.919-.918-.919s-.919.368-.919.919v3.855c0 .46.368.919.919.919zm0 10.192c.55 0 .918-.368.918-.918v-3.856c0-.55-.368-.919-.918-.919s-.919.368-.919.919v3.856a.92.92 0 00.919.918zm6.336-10.192c.55 0 .918-.368.918-.918V34.45c0-.55-.368-.919-.918-.919s-.919.368-.919.919v3.855c0 .46.367.919.919.919zm6.335 0c.55 0 .918-.368.918-.918V34.45c0-.55-.368-.919-.919-.919-.55 0-.918.368-.918.919v3.855c0 .46.459.919.918.919zM9.629 29.125c.55 0 .918-.368.918-.919v-3.855c0-.55-.368-.919-.918-.919s-.919.368-.919.919v3.855c0 .46.368.919.919.919zm6.336 0c.55 0 .918-.368.918-.919v-3.855c0-.55-.368-.919-.918-.919s-.919.368-.919.919v3.855c0 .46.367.919.919.919zm6.335 0c.55 0 .918-.368.918-.919v-3.855c0-.55-.368-.919-.919-.919-.55 0-.918.368-.918.919v3.855c0 .46.459.919.918.919zm17.078 4.406c-.55 0-.919.368-.919.919v3.855c0 .55.368.919.919.919.55 0 .918-.368.918-.918V34.45a.92.92 0 00-.918-.919zm0-10.099c-.55 0-.919.368-.919.919v3.855c0 .55.368.919.919.919.55 0 .918-.368.918-.919v-3.855a.92.92 0 00-.918-.919zm0 20.291c-.55 0-.919.368-.919.919v3.856c0 .55.368.918.919.918.55 0 .918-.368.918-.918v-3.856a.92.92 0 00-.918-.919zm0 10.099c-.55 0-.919.368-.919.919v3.856c0 .55.368.918.919.918.55 0 .918-.368.918-.918V54.74c0-.46-.46-.919-.918-.919zm-5.784-20.291c-.55 0-.919.368-.919.919v3.855c0 .55.368.919.919.919.55 0 .918-.368.918-.918V34.45a.922.922 0 00-.918-.919zm0-10.099c-.55 0-.919.368-.919.919v3.855c0 .55.368.919.919.919.55 0 .918-.368.918-.919v-3.855a.92.92 0 00-.918-.919zm5.784-10.192c-.55 0-.919.368-.919.918v3.856c0 .55.368.919.919.919.55 0 .918-.368.918-.919v-3.856c0-.459-.46-.918-.918-.918zm-5.784 0c-.55 0-.919.368-.919.918v3.856c0 .55.368.919.919.919.55 0 .918-.368.918-.919v-3.856c-.002-.459-.46-.918-.918-.918zm0 30.483c-.55 0-.919.368-.919.919v3.856c0 .55.368.918.919.918.55 0 .918-.368.918-.918v-3.856a.92.92 0 00-.918-.919zm0 10.099c-.55 0-.919.368-.919.919v3.856c0 .55.368.918.919.918.55 0 .918-.368.918-.918V54.74c-.002-.46-.46-.919-.918-.919z" fill="#737373"/><path d="M67.373 73.738H65.69l-2.75 1.958a2.156 2.156 0 01-2.498 0l-.989-.704-1.76-1.254H46.09v-8.976c-.178-.239-.35-.48-.51-.732 0 0-.73-1.012-1.218-2.412a11.995 11.995 0 01-.583-2.253v14.373h-3.288V64.93c0-.707-.494-1.201-1.201-1.201h-6.336c-.708 0-1.202.494-1.202 1.201v8.807h-2.738v-53.97h.727c.707 0 1.201-.494 1.201-1.202v-6.152c0-.707-.494-1.201-1.201-1.201h-3.298v-.626h17.333V25.63h-.726c-.708 0-1.202.494-1.202 1.201 0 .708.494 1.202 1.202 1.202h.726v2.37h-.726c-.708 0-1.202.494-1.202 1.201v6.152c0 .707.494 1.202 1.202 1.202h.726v.377c.126-.208.314-.377.546-.478l3.046-1.315v.022l.114-.07 2.39-1.032H44.16v-3.747h14.394l1.942-.839.723-.315a1.21 1.21 0 01.955 0l.724.315 1.939.839h4.371v1.888l2.405 1.038v-4.128c0-.707-.495-1.202-1.202-1.202h-.817v-2.37h.817c.707 0 1.202-.494 1.202-1.2 0-.708-.495-1.202-1.202-1.202H46.088V10.494h.726c.708 0 1.202-.494 1.202-1.201V4.242c0-.708-.494-1.202-1.202-1.202H23.677c-.707 0-1.202.494-1.202 1.202v5.05c0 .706.495 1.2 1.202 1.2h.267v.626h-5.86V8.557c0-.707-.494-1.202-1.2-1.202h-5.878c-.707 0-1.201.495-1.201 1.202v2.563h-7.52c-.707 0-1.202.494-1.202 1.202v6.152c0 .707.495 1.201 1.202 1.201h.633v54.063h-1.46c-.708 0-1.202.494-1.202 1.201 0 .707.494 1.202 1.202 1.202h70.056c.707 0 1.201-.495 1.201-1.202s-.494-1.201-1.201-1.201h-1.828v-2.844l-2.312 1.647v1.197h-.001zM64.819 28.03h2.37v2.37h-2.37v-2.37zm-4.592 0h2.279v2.37h-2.279v-2.37zm-4.681 0h2.278v2.37h-2.278v-2.37zm-4.59 0h2.278v2.37h-2.279v-2.37zm-4.775 0h2.37v2.37h-2.37v-2.37zM24.878 5.445h20.733V8.09H24.878V5.445zM12.208 9.76h3.472v1.36h-3.472V9.76zm-.835 57.827a1.353 1.353 0 01-1.368-1.368v-3.307c0-.768.601-1.37 1.368-1.37h.55c.768 0 1.368.602 1.368 1.37v3.306c0 .768-.601 1.368-1.368 1.368h-.55v.001zm9.55 1.651a1.76 1.76 0 01-1.736-1.736V65.3c0-.94.795-1.736 1.736-1.736s1.736.795 1.736 1.736v2.192c-.085 1.047-.782 1.747-1.736 1.747zm5.683 4.5h-4.481v-2.261c1.74-.575 2.937-2.143 2.937-3.883v-2.202a4.144 4.144 0 00-4.14-4.14 4.145 4.145 0 00-4.141 4.14v2.203c0 1.824 1.222 3.426 2.937 3.896v2.248h-6.867v-3.891c1.639-.389 2.847-1.909 2.847-3.629v-3.307a3.777 3.777 0 00-3.773-3.773h-.55a3.777 3.777 0 00-3.773 3.773v3.306a3.727 3.727 0 002.846 3.627v3.893H5.322V57.87h21.284v15.868zM5.322 55.468V52.73h2.187v2.737H5.322zm4.592 0V52.73h2.37v2.737h-2.37zm4.774 0V52.73h2.37v2.737h-2.37zm3.122-5.143v-5.309h4.022v5.309H17.81zm4.022 2.405v2.737h-2.37V52.73h2.37zm4.774 2.737h-2.37V52.73h2.37v2.737zm0-5.142h-2.37v-6.51c0-.708-.494-1.202-1.2-1.202h-6.428c-.707 0-1.202.494-1.202 1.201v6.51H5.322V19.676h21.284v30.65zm1.928-32.962H3.486v-3.747h25.048v3.747zm9.55 56.375h-3.932v-7.604h3.931v7.604z" fill="#737373"/><path d="M46.01 57.408c.001.403.028.803.078 1.198V40.728l-.078.034v16.646zM61.691 67.7l-4.053-2.884c.004.038.01.077.01.117v2.851l3.344 2.38c.42.299.98.299 1.4 0l4.98-3.545v-2.956l-5.68 4.038zm10.858-23.766v13.474a5.04 5.04 0 01-2.135 4.091l-.73.519v2.955l2.13-1.517a7.454 7.454 0 003.146-6.048V43.136c0-.48-.283-.915-.723-1.107l-4.552-1.967v2.634l2.864 1.239zm-24.127-.8v14.272a7.452 7.452 0 003.146 6.048l4.243 3.021v-1.544c0-.483.283-.825.725-.902l-3.568-2.54a5.034 5.034 0 01-1.848-2.449c-.144.294-.435.474-.818.474a.92.92 0 01-.918-.919V54.74c0-.55.368-.918.918-.918.207 0 .388.051.532.145V49.27a.98.98 0 01-.532.145c-.459 0-.918-.459-.918-.918V44.64c0-.55.368-.918.918-.918a.94.94 0 01.581.184l10.808-4.668 5.682 2.456v-2.633l-.456-.197H56.469l-7.322 3.163c-.44.192-.725.627-.725 1.107z" fill="#737373"/><path d="M50.883 43.907a.95.95 0 00-.58-.184c-.551 0-.919.368-.919.919v3.856c0 .459.46.918.918.918a.958.958 0 00.532-.145v-5.343l.05-.02zm-.048 10.061a.98.98 0 00-.531-.146c-.55 0-.918.368-.918.919v3.856c0 .55.459.918.918.918.384 0 .674-.18.818-.473a5.046 5.046 0 01-.287-1.634v-3.44zm6.803 10.848l-1.102-.784c-.442.077-.725.418-.725.902v1.544l1.837 1.308v-2.852c0-.043-.005-.08-.01-.118zm4.536-28a1.205 1.205 0 00-.964 0l-4.743 2.048h10.448l-4.74-2.048zm5.199 26.844v2.958l2.312-1.647v-2.955l-2.312 1.645zm2.312-20.964v-2.635l-2.312-.999v2.634l2.312 1zM59.069 57.54l-1.42-1.063v2.121c0 .288-.102.525-.278.687l1.184.888c.522.39 1.26.297 1.666-.211l1.926-2.408v-2.812c0-.55.368-.918.919-.918.55 0 .918.368.918.918v.517l3.389-4.235v-3.862L59.069 57.54zm10.803-9.642a1.205 1.205 0 00-.187-1.695v1.928l.187-.233zm-14.694 6.725a1.205 1.205 0 10-1.448 1.93l2.081 1.56v-3.015l-.633-.475z" fill="#737373"/><path d="M57.648 58.597v-2.122l-1.837-1.377v3.016l1.559 1.17a.909.909 0 00.278-.687zm5.418-4.775c-.55 0-.919.368-.919.919v2.811l1.837-2.296v-.517c0-.549-.368-.917-.918-.917zm6.619-7.619l-.002-.001a1.206 1.206 0 00-1.696.188l-.614.768v3.863l2.312-2.891v-1.927zm9.377-7.347l-3.046-1.315-4.403-1.901v2.024c0 .205-.043.392-.119.554l4.522 1.953 1.357.586v16.651a9.869 9.869 0 01-4.16 8.014l-3.528 2.512v2.962l4.926-3.506a12.281 12.281 0 005.175-9.98V39.965a1.205 1.205 0 00-.724-1.109zm-32.974 1.872l2.106-.91.022-.01 2.182-.942h-4.31v1.862zm1.517 25.715l1.78 1.33V64.93c0-.043.007-.084.012-.126a9.862 9.862 0 01-3.307-6.2v6.155c.452.606.958 1.171 1.515 1.683zm3.617-.273v2.619c0 .112-.019.214-.048.309l6.234 4.436.286.204h7.998l1.682-1.197v-2.962l-5.681 4.043-10.47-7.452z" fill="#737373"/><path d="M49.386 67.773l1.45 1.083.338.242a1.05 1.05 0 00.048-.31V66.17l-1.05-.75a9.667 9.667 0 01-.775-.614c-.005.042-.011.082-.011.127v2.84zm12.305-33.791l5.738 2.479h1.779V34.6l-3.898-1.683-.473-.204h-6.283l-2.508 1.081-1.857.803c.001-.001.001-.003.003-.003l-1.126.487-3.196 1.379h6.088l5.733-2.479zm-18.093 5.981v16.832c0 1.296.15 2.413.15 2.413.009.053.02.106.028.16V39.334a1.19 1.19 0 00-.178.63zM67.373 69.58v2.96l2.312-1.646v-2.961l-2.312 1.646z" fill="#737373"/><path d="M69.21 36.46h-1.78l4.064 1.756c.077-.162.119-.349.119-.553v-2.024L69.208 34.6v1.86h.002zm-7.255 37.278h-4.262l1.76 1.254.989.704a2.156 2.156 0 002.497 0l2.75-1.958h-3.734zM46.01 57.408V40.762l.078-.034v-1.862h4.309l5.56-2.405h-6.088l-2.39 1.032-.114.07v-.022l-3.047 1.315c-.232.1-.419.27-.545.478v20.03c.123.769.315 1.524.582 2.254a10.574 10.574 0 001.218 2.412c.161.252.333.493.51.732v-6.156a11.027 11.027 0 01-.073-1.198zm16.888-25.533l-.724-.315a1.208 1.208 0 00-.955 0l-.723.315-1.942.839h6.283l-1.94-.839z" fill="#737373"/></svg>