<svg width="80" height="81" fill="none" xmlns="http://www.w3.org/2000/svg"><path d="M8 14.804h8a1.34 1.34 0 001.333-1.346A1.34 1.34 0 0016 12.112H8a1.34 1.34 0 00-1.333 1.346A1.34 1.34 0 008 14.804zm14.667 0h12A1.34 1.34 0 0036 13.458a1.34 1.34 0 00-1.333-1.346h-12a1.34 1.34 0 00-1.334 1.346 1.34 1.34 0 001.334 1.346zM8 29.608h42.667A1.34 1.34 0 0052 28.262a1.34 1.34 0 00-1.333-1.346H8a1.34 1.34 0 00-1.333 1.346A1.34 1.34 0 008 29.608zm0 5.382h18.667A1.34 1.34 0 0028 33.646a1.34 1.34 0 00-1.333-1.346H8a1.34 1.34 0 00-1.333 1.346A1.34 1.34 0 008 34.99zm0 10.767h18.667A1.34 1.34 0 0028 44.411a1.34 1.34 0 00-1.333-1.346H8a1.34 1.34 0 00-1.333 1.346A1.34 1.34 0 008 45.757zm0 10.766h18.667A1.34 1.34 0 0028 55.178a1.34 1.34 0 00-1.333-1.346H8a1.34 1.34 0 00-1.333 1.346A1.34 1.34 0 008 56.523zM8 67.29h18.667A1.34 1.34 0 0028 65.944a1.34 1.34 0 00-1.333-1.346H8a1.34 1.34 0 00-1.333 1.346A1.34 1.34 0 008 67.29z" fill="#737373"/><path d="M79.2 39.203L64 32.578V4.038C64 1.807 62.21 0 60 0H9.333c-2.209 0-4 1.808-4 4.037v1.346H4c-2.21 0-4 1.808-4 4.038v67.29c0 2.23 1.79 4.037 4 4.037h50.667a3.972 3.972 0 002.86-1.229l1.093.785a2.366 2.366 0 002.76 0l12.9-9.269A13.746 13.746 0 0080 59.9V40.438c0-.535-.313-1.02-.8-1.235zM8 4.037a1.34 1.34 0 011.333-1.345H60a1.34 1.34 0 011.333 1.345v27.378l-.8-.351a1.322 1.322 0 00-1.056 0l-.8.35v-8.536c0-.03-.014-.057-.017-.087a1.274 1.274 0 00-.064-.331c-.01-.031-.008-.063-.02-.093s-.021-.03-.028-.046a1.347 1.347 0 00-.267-.394l-16-16.15a1.334 1.334 0 00-.39-.269c-.018-.008-.03-.021-.046-.028-.016-.007-.061-.01-.09-.02a1.323 1.323 0 00-.332-.066c-.034.004-.06-.01-.09-.01H8V4.036zm34.667 5.94l11.448 11.556H44a1.34 1.34 0 01-1.333-1.346V9.977zm12 68.08H4a1.34 1.34 0 01-1.333-1.347V9.42A1.34 1.34 0 014 8.076h36v12.112c0 2.23 1.79 4.037 4 4.037h12v8.354l-4.292 1.874c.184-.228.287-.513.292-.807a1.34 1.34 0 00-1.333-1.346H32a1.34 1.34 0 00-1.333 1.346A1.34 1.34 0 0032 34.99h18.465l-6.173 2.691H8a1.34 1.34 0 00-1.333 1.346A1.34 1.34 0 008 40.374h32.01c0 .021-.01.042-.01.064v2.627h-8a1.34 1.34 0 00-1.333 1.346A1.34 1.34 0 0032 45.757h8v2.692H8a1.34 1.34 0 00-1.333 1.345A1.34 1.34 0 008 51.14h32v2.692h-8a1.34 1.34 0 00-1.333 1.346A1.34 1.34 0 0032 56.523h8v2.692H8a1.34 1.34 0 00-1.333 1.346A1.34 1.34 0 008 61.907h32.167c.132.918.358 1.82.674 2.691H32a1.34 1.34 0 00-1.333 1.346A1.34 1.34 0 0032 67.29h10.188c.63.99 1.383 1.894 2.241 2.691H8a1.34 1.34 0 00-1.333 1.346A1.34 1.34 0 008 72.673h40l7.264 5.219a1.292 1.292 0 01-.597.164zM77.333 59.9a11.042 11.042 0 01-4.598 8.941L60 77.991l-12.735-9.15a11.043 11.043 0 01-4.598-8.941V41.328l2.413-1.052.025-.011L60 33.765l17.333 7.558V59.9z" fill="#737373"/><path d="M59.467 36.927l-13.334 5.814c-.486.215-.8.7-.8 1.236V59.9a8.338 8.338 0 003.478 6.748l10.416 7.484a1.324 1.324 0 001.546 0l10.416-7.484a8.34 8.34 0 003.478-6.748V43.977a1.35 1.35 0 00-.8-1.236l-13.334-5.814c-.34-.15-.726-.15-1.066 0zM72 44.867V59.9a5.639 5.639 0 01-2.359 4.564L60 71.384l-9.641-6.928A5.634 5.634 0 0148 59.9V44.86l12-5.23 12 5.237z" fill="#737373"/><path d="M52.8 56.793a1.323 1.323 0 00-1.324-.161 1.351 1.351 0 00-.276 2.314l5.333 4.037a1.325 1.325 0 001.842-.235L69.04 49.29c.46-.58.367-1.428-.208-1.892a1.325 1.325 0 00-1.874.21L57.1 60.047l-4.3-3.255z" fill="#737373"/></svg>