<svg width="82" height="82" fill="none" xmlns="http://www.w3.org/2000/svg"><g clip-path="url(#clip0)" fill="#26C765"><path d="M41 8.2c.755 0 1.367-.612 1.367-1.367V1.367a1.367 1.367 0 00-2.734 0v5.466c0 .755.612 1.367 1.367 1.367zM24.1 6.262l2.733 4.733A1.367 1.367 0 1029.2 9.628l-2.733-4.733A1.367 1.367 0 1024.1 6.262zM13.08 18.258l.016.009L17.828 21a1.367 1.367 0 001.383-2.358l-.016-.01-4.733-2.733a1.367 1.367 0 00-1.382 2.359zM16.4 32.8c0-.755-.612-1.367-1.366-1.367H9.567a1.367 1.367 0 000 2.733h5.467c.754 0 1.366-.611 1.366-1.366zm1.444 11.79l-.016.01-4.732 2.733a1.367 1.367 0 101.366 2.367l4.733-2.733a1.367 1.367 0 10-1.35-2.377zm51.076 2.752l-.016-.01-4.732-2.733a1.367 1.367 0 10-1.367 2.367l4.732 2.734a1.367 1.367 0 001.383-2.358zm3.513-15.909h-5.466a1.367 1.367 0 000 2.733h5.466a1.367 1.367 0 000-2.733zm-8.943-10.25c.24 0 .475-.063.683-.183l4.733-2.733a1.367 1.367 0 10-1.351-2.376l-.016.009-4.733 2.733a1.367 1.367 0 00.684 2.55zm-10.192-9.688l.002.001c.654.377 1.49.153 1.867-.501L57.9 6.262a1.367 1.367 0 00-2.358-1.383l-.01.016L52.8 9.628a1.367 1.367 0 00.498 1.867zm-9.565 43.171c.755 0 1.367-.612 1.367-1.367V38.266h2.733a5.467 5.467 0 10-5.466-5.466v2.733h-2.733V32.8a5.467 5.467 0 10-5.467 5.466H36.9V53.3a1.367 1.367 0 002.733 0V38.266h2.734V53.3c0 .755.611 1.367 1.366 1.367zM45.1 32.8a2.733 2.733 0 112.733 2.733H45.1V32.8zm-8.2 2.733h-2.733A2.733 2.733 0 1136.9 32.8v2.733z"/><path d="M42.062 10.959c-12.063-.58-22.311 8.73-22.89 20.792a21.866 21.866 0 007.968 17.951 4.073 4.073 0 011.56 3.126v3.205a4.1 4.1 0 002.733 3.848V61.5a4.074 4.074 0 001.066 2.733 4.037 4.037 0 000 5.467 4.082 4.082 0 003.034 6.833 1.332 1.332 0 001.124-2.1 1.447 1.447 0 00-.153-.237 1.412 1.412 0 00-.38-.248c-.04-.02-.08-.037-.12-.054a1.45 1.45 0 00-.43-.086c-.015 0-.027-.008-.04-.008a1.367 1.367 0 110-2.733H41a1.367 1.367 0 000-2.734h-5.467a1.367 1.367 0 110-2.733H41a1.367 1.367 0 000-2.733h-5.467a1.367 1.367 0 01-1.366-1.367v-1.367H41a1.367 1.367 0 000-2.733h-8.2a1.367 1.367 0 01-1.366-1.366v-3.205a6.794 6.794 0 00-2.563-5.241c-8.164-6.71-9.343-18.767-2.633-26.93a19.133 19.133 0 0115.694-6.963c10.097.6 18.029 8.876 18.201 18.99a19.021 19.021 0 01-7.1 14.982 6.775 6.775 0 00-2.466 5.32v3.047c0 .754-.612 1.366-1.367 1.366h-4.1a1.367 1.367 0 000 2.733h2.733V61.5c0 .755-.612 1.367-1.366 1.367H45.1a1.367 1.367 0 000 2.733h1.367a1.367 1.367 0 010 2.733H45.1a1.367 1.367 0 000 2.734h1.367a1.367 1.367 0 010 2.733h-6.834a1.367 1.367 0 000 2.733h5.233a4.1 4.1 0 01-6.93 1.357 1.367 1.367 0 00-2.042 1.818 6.818 6.818 0 0011.823-3.39 4.06 4.06 0 001.784-6.618 4.037 4.037 0 000-5.466 4.074 4.074 0 001.066-2.734v-1.618a4.1 4.1 0 002.733-3.848v-3.047a4.109 4.109 0 011.45-3.194 21.737 21.737 0 008.117-17.13c-.198-11.559-9.264-21.017-20.805-21.703z"/></g><defs><clipPath id="clip0"><path fill="#fff" d="M0 0h82v82H0z"/></clipPath></defs></svg>