<svg width="26" height="26" fill="none" xmlns="http://www.w3.org/2000/svg"><g clip-path="url(#clip0)" fill="#C4C4C4"><path d="M2.495 9.083c.33.232 1.32.921 2.975 2.067a724.581 724.581 0 013.801 2.648c.097.068.302.215.617.443.314.227.575.41.783.551.208.14.46.297.755.471s.573.305.834.392a2.3 2.3 0 00.725.13h.03a2.3 2.3 0 00.725-.13 4.38 4.38 0 00.834-.392c.295-.174.547-.33.755-.471.208-.14.469-.324.783-.551.315-.228.52-.375.617-.443l6.79-4.716a6.893 6.893 0 001.77-1.784c.474-.696.711-1.427.711-2.19 0-.64-.23-1.186-.69-1.64a2.242 2.242 0 00-1.631-.682H2.32c-.744 0-1.318.251-1.719.754S0 4.672 0 5.426c0 .61.266 1.27.798 1.981.532.71 1.098 1.27 1.697 1.676z"/><path d="M24.549 10.635c-3.172 2.147-5.581 3.816-7.225 5.006-.552.406-.999.723-1.342.95-.344.227-.8.46-1.371.696-.571.238-1.103.356-1.596.356h-.029c-.494 0-1.026-.119-1.597-.356-.57-.237-1.027-.469-1.37-.696a34.31 34.31 0 01-1.343-.95c-1.305-.958-3.709-2.627-7.21-5.006A7.685 7.685 0 010 9.373v11.52c0 .638.227 1.185.682 1.64a2.235 2.235 0 001.64.681h21.357c.638 0 1.184-.227 1.64-.682.454-.454.681-1 .681-1.64V9.373c-.416.465-.9.886-1.451 1.263z"/></g><defs><clipPath id="clip0"><path fill="#fff" d="M0 0h26v26H0z"/></clipPath></defs></svg>