<svg width="26" height="26" fill="none" xmlns="http://www.w3.org/2000/svg"><path fill-rule="evenodd" clip-rule="evenodd" d="M13 2.167a8.667 8.667 0 00-8.667 8.666c0 3.357 2.184 6.613 4.578 9.14A31.885 31.885 0 0013 23.588a31.88 31.88 0 004.088-3.613c2.395-2.528 4.579-5.784 4.579-9.14A8.667 8.667 0 0013 2.166zm0 22.75c-.6.901-.601.9-.601.9l-.004-.001-.007-.005-.025-.017a13.864 13.864 0 01-.416-.293 34.036 34.036 0 01-4.608-4.037c-2.481-2.619-5.172-6.404-5.172-10.63a10.833 10.833 0 0121.666 0c0 4.226-2.691 8.011-5.172 10.63a34.034 34.034 0 01-4.608 4.037c-.14.1-.25.178-.327.231l-.09.062-.024.017-.007.005-.003.001s-.001.001-.602-.9zm0 0l.6.901a1.084 1.084 0 01-1.201 0l.601-.901z" fill="#737373"/><path fill-rule="evenodd" clip-rule="evenodd" d="M13 8.667A2.167 2.167 0 1013 13a2.167 2.167 0 000-4.333zm-4.333 2.166a4.333 4.333 0 118.666 0 4.333 4.333 0 01-8.666 0z" fill="#737373"/></svg>