<svg width="82" height="82" fill="none" xmlns="http://www.w3.org/2000/svg"><path d="M26.906 12.813A17.938 17.938 0 1044.844 30.75a17.957 17.957 0 00-17.938-17.938zm0 33.312A15.374 15.374 0 1142.281 30.75a15.392 15.392 0 01-15.375 15.375z" fill="#26C765"/><path d="M28.326 36.643h-4.09V40h-2.33v-3.357h-2.528v-1.929h2.527v-1.672h-2.527v-1.917h2.527v-8.898h6.555c1.905 0 3.414.484 4.53 1.452 1.114.969 1.672 2.279 1.672 3.93 0 1.734-.538 3.073-1.612 4.017-1.066.936-2.583 1.408-4.553 1.416h-4.26v1.672h4.09v1.93zm-4.09-5.518h4.224c1.262 0 2.222-.297 2.881-.89.66-.595.99-1.461.99-2.6 0-1.034-.343-1.868-1.026-2.503-.684-.643-1.608-.969-2.771-.977h-4.297v6.97zm33.09 25.518h-4.09V60h-2.33v-3.357h-2.528v-1.929h2.527v-1.672h-2.527v-1.916h2.527v-8.9h6.555c1.905 0 3.414.485 4.53 1.453 1.114.969 1.672 2.279 1.672 3.93 0 1.734-.538 3.073-1.612 4.017-1.066.936-2.583 1.408-4.553 1.416h-4.26v1.672h4.09v1.93zm-4.09-5.517h4.224c1.262 0 2.222-.297 2.881-.892.66-.594.99-1.46.99-2.6 0-1.033-.343-1.867-1.026-2.502-.684-.643-1.608-.969-2.771-.977h-4.297v6.97z" fill="#26C765"/><path d="M55.094 26.906a23.292 23.292 0 00-4.126.36 24.42 24.42 0 10-19.936 27.456 24.328 24.328 0 1024.062-27.816zm0 8.97a15.375 15.375 0 11-15.362 15.528 24.363 24.363 0 0010.775-14.811 15.046 15.046 0 014.587-.718zM26.906 52.53a21.78 21.78 0 1121.782-21.78 21.812 21.812 0 01-21.782 21.78zm28.188 20.5a21.87 21.87 0 01-21.55-18.872 24.63 24.63 0 003.69-1.397 17.974 17.974 0 1013.811-18.975c.127-1.008.196-2.021.205-3.037 0-.307-.038-.59-.051-.897a21.766 21.766 0 113.895 43.178z" fill="#26C765"/></svg>