<svg width="73" height="98" fill="none" xmlns="http://www.w3.org/2000/svg"><path d="M72.608 20.94v55.6c-.021.005-.047 0-.067.01l-.813.477c-.245.143-.491.282-.736.425a64.52 64.52 0 00-.757.44l-.757.436c-.337.195-.675.394-1.012.59-.353.204-.706.404-1.059.609-.337.194-.675.394-1.013.589-.352.205-.705.404-1.058.61-.465.27-.926.542-1.39.814-.241.138-.482.276-.722.41-.25.143-.506.292-.757.44l-.797.461c-.24.139-.481.277-.716.415-.24.138-.476.277-.716.42-.051.03-.108.062-.159.087-.05-.025-.092-.04-.133-.066-.215-.123-.424-.246-.639-.37-.353-.204-.706-.404-1.058-.609-.338-.194-.675-.394-1.013-.589-.46-.266-.92-.527-1.38-.789-.471-.271-.941-.548-1.412-.824-.23-.134-.465-.267-.7-.4-.348-.2-.69-.405-1.033-.604-.348-.2-.696-.395-1.038-.595-.338-.194-.675-.394-1.013-.589l-1.135-.66c-.174-.098-.348-.195-.527-.298-.036.087-.015.175-.015.257v12.299c0 .081 0 .169-.005.25-.082.047-.149.093-.225.139-.266.154-.532.312-.798.466-.23.133-.465.266-.7.4-.261.148-.522.297-.778.45-.42.241-.833.487-1.253.733l-.874.507c-.348.2-.696.394-1.038.594-.235.133-.465.272-.696.405-.24.138-.48.276-.715.415-.261.148-.522.297-.778.445-.347.2-.69.405-1.033.605-.24.138-.48.271-.72.41-.348.2-.691.404-1.034.604-.347.2-.69.395-1.038.594-.26.149-.516.303-.777.451-.03.02-.066.03-.097.046-.082-.046-.159-.082-.23-.123l-.798-.46c-.245-.144-.49-.282-.741-.426-.348-.2-.69-.404-1.033-.604-.348-.2-.696-.395-1.038-.594-.338-.195-.675-.395-1.013-.59-.378-.22-.762-.43-1.14-.65-.466-.266-.93-.543-1.391-.81-.24-.138-.48-.271-.721-.41-.358-.204-.716-.414-1.079-.62-.25-.143-.506-.286-.757-.435-.445-.256-.89-.517-1.335-.773-.352-.205-.705-.405-1.058-.61-.072-.04-.138-.092-.2-.133-.01-.02-.015-.03-.015-.036 0-4.226-.005-8.447-.005-12.673v-.071c0-.005-.005-.016-.005-.02a.141.141 0 01-.02-.027c-.261.149-.527.298-.793.456-.256.154-.522.297-.777.446l-.798.461c-.266.154-.532.313-.798.461-.266.154-.537.302-.802.456-.261.148-.517.302-.778.45-.266.154-.532.313-.797.467-.266.154-.532.302-.798.456-.261.148-.517.302-.777.456-.266.153-.532.312-.798.466-.266.154-.537.302-.803.456a54.94 54.94 0 00-.798.466c-.26.148-.516.307-.777.45-.266.15-.527.313-.793.446a13.917 13.917 0 01-.311-.174c-.348-.2-.69-.404-1.033-.604-.348-.2-.696-.395-1.038-.594-.348-.2-.69-.405-1.033-.605-.266-.154-.537-.302-.803-.456-.45-.261-.9-.522-1.355-.789l-.813-.476c-.24-.138-.481-.272-.721-.41-.246-.143-.491-.282-.742-.425-.348-.2-.69-.405-1.033-.605-.348-.2-.695-.394-1.038-.594-.337-.194-.675-.394-1.012-.589l-1.136-.66c-.179-.103-.363-.2-.542-.303V20.987c.333-.19.665-.38.997-.574.225-.128.45-.261.675-.394l1.033-.605c.24-.138.481-.276.721-.41.251-.143.507-.292.757-.44l.757-.436 1.033-.604c.348-.2.695-.394 1.038-.594.338-.195.675-.395 1.013-.59.352-.204.705-.404 1.058-.609.46-.266.915-.533 1.37-.799l.737-.425c.25-.143.506-.292.757-.44.25-.144.506-.293.756-.436.343-.2.69-.405 1.033-.604.348-.2.696-.395 1.038-.595.338-.194.675-.394 1.013-.589.353-.205.706-.405 1.058-.61.46-.266.916-.532 1.37-.799.246-.143.492-.281.737-.425.25-.143.506-.292.757-.44l.757-.436c.445-.256.89-.517 1.334-.773.246-.144.491-.282.742-.425.337-.195.675-.395 1.012-.59.353-.204.706-.404 1.059-.609.45-.261.9-.528 1.355-.789.245-.143.49-.282.736-.425.338-.195.675-.394 1.013-.589l1.135-.66c.24-.14.48-.277.721-.41.245-.144.491-.282.742-.426.337-.194.675-.394 1.012-.589.353-.205.706-.405 1.058-.61.45-.26.9-.522 1.356-.788.27-.16.542-.318.813-.477.22-.128.44-.256.66-.379l.935-.538c.02-.015.067-.036.102-.056.051.03.097.056.133.082.261.149.522.297.778.446.363.21.73.425 1.094.635l.798.46c.225.134.45.262.675.395.347.2.695.395 1.038.594.347.2.69.405 1.033.605.347.2.695.394 1.038.594.45.261.9.528 1.355.789.347.2.695.394 1.038.594l1.39.815c.241.138.481.276.722.41.25.143.506.291.756.44.225.133.45.261.655.384.082.108.056.21.056.308 0 2.51.005 5.014.005 7.524v4.749c0 .082.005.17.005.266.133-.071.251-.138.369-.204.347-.2.69-.405 1.033-.605.347-.2.695-.394 1.038-.594.337-.195.675-.395 1.012-.59l1.135-.66c.24-.138.481-.271.721-.41l.757-.435c.42-.241.834-.487 1.253-.733.266-.153.537-.302.803-.456.45-.26.9-.522 1.355-.789l.813-.476c.205-.118.41-.24.619-.353.061-.031.112-.082.204-.082.133.077.282.159.425.24.276.164.557.328.833.487.24.138.48.271.721.41l.798.46c.22.129.44.257.66.38.24.138.48.271.72.41.358.205.716.415 1.074.62.251.143.507.286.757.435.338.195.675.394 1.013.59.353.204.705.404 1.058.604.46.266.915.532 1.37.799.246.143.492.281.737.425.25.143.506.292.757.44l.797.461c.277.175.543.328.808.477zM37.14 42.333v52.9c0 .036-.016.077.03.103.164-.092.333-.185.502-.282.337-.195.675-.394 1.012-.59.46-.265.92-.527 1.376-.788.47-.272.94-.548 1.411-.825.23-.133.465-.266.7-.4.348-.2.69-.404 1.034-.604.347-.2.695-.394 1.038-.594l1.012-.589c.353-.205.706-.405 1.059-.61l1.073-.63c.041-.02.072-.05.113-.082v-40.99c.04-.072.097-.097.148-.128.174-.097.348-.194.522-.297.337-.195.675-.394 1.012-.59.353-.204.706-.404 1.059-.609.45-.26.9-.527 1.355-.788.25-.15.506-.292.757-.436.25-.143.506-.292.756-.44l.757-.436c.348-.2.69-.405 1.033-.604.348-.2.696-.395 1.038-.595.348-.2.69-.404 1.033-.604.348-.2.696-.394 1.038-.594.338-.195.675-.395 1.013-.594.383-.226.767-.451 1.155-.671.164-.098.333-.19.502-.282.015-.01.04-.005.056-.005a.09.09 0 01.02.025c.005.005.005.016.005.02v40.883a.04.04 0 00.01.02.07.07 0 01.016.021c.02 0 .046.005.066-.005.225-.128.456-.256.68-.389.374-.215.742-.43 1.115-.645.22-.129.44-.257.66-.38.25-.148.506-.291.757-.44.25-.144.506-.292.757-.435.347-.2.69-.405 1.033-.605.347-.2.695-.394 1.038-.594.337-.195.674-.395 1.012-.59.353-.204.706-.404 1.058-.609.338-.195.675-.394 1.013-.594.353-.205.706-.405 1.058-.61.047-.025.082-.066.123-.102l-.015-52.956c0-.006-.01-.01-.016-.02-.005 0-.015-.006-.02 0-11.275 6.52-22.55 13.036-33.826 19.557-.03.02-.082.061-.138.102zm-1.452-.01c-.149-.082-.302-.169-.456-.256-.47-.272-.94-.548-1.41-.825-.262-.148-.517-.302-.778-.45-.24-.139-.48-.272-.721-.41a3268.517 3268.517 0 00-1.457-.84c-.348-.2-.696-.395-1.039-.595-.368-.21-.73-.425-1.094-.635-.25-.143-.506-.292-.757-.435-.358-.205-.716-.415-1.073-.625l-.696-.405-.798-.46c-.03-.016-.056-.047-.097-.032-.005.01-.01.016-.01.02v20.388c0 .005-.005.016-.005.02a.141.141 0 00-.02.026l-.077-.03c-.246-.139-.491-.282-.737-.425-.245-.144-.49-.287-.736-.426-.26-.148-.522-.297-.777-.445-.348-.2-.69-.405-1.033-.605-.24-.138-.48-.271-.721-.41-.25-.143-.507-.291-.757-.44-.26-.149-.522-.297-.777-.45-.348-.2-.69-.405-1.033-.605a40.16 40.16 0 00-.721-.41c-.25-.144-.507-.292-.757-.44-.25-.144-.506-.293-.757-.436-.348-.2-.69-.405-1.033-.605-.348-.2-.695-.394-1.038-.594-.337-.194-.675-.394-1.012-.589-.353-.205-.706-.405-1.059-.61-.072-.04-.138-.092-.215-.143V29.67c0-.338.005-.676-.005-1.009-.03-.025-.046-.04-.066-.05l-1.054-.616c-.46-.266-.92-.527-1.375-.788-.558-.323-1.115-.646-1.672-.974-.47-.271-.941-.548-1.412-.824-.511-.298-1.022-.59-1.534-.887l-1.513-.876c-.517-.297-1.038-.594-1.56-.896-.051-.03-.097-.061-.169-.072 0 .046-.005.087-.005.123v52.885c.092.056.174.112.261.159.348.2.695.394 1.038.594.368.21.731.425 1.094.635l.757.435c.25.144.506.292.757.44.271.16.542.319.818.477.24.139.48.272.721.41l.757.436c.25.143.506.291.757.44.27.159.542.318.818.477.24.138.48.271.72.41l.799.46c.332.195.664.384.997.574.015.01.04.005.056.01.01-.01.015-.015.02-.025.006-.005 0-.016.006-.02V61.205c0-.006.005-.016.015-.031.092.051.19.092.281.148.338.195.675.395 1.013.59.353.204.705.404 1.058.609.46.266.916.533 1.37.8.246.142.491.28.737.424.42.241.834.487 1.253.733.348.2.695.394 1.038.594.337.195.675.394 1.012.594.353.205.706.405 1.059.61.45.261.9.527 1.355.789.424.246.854.491 1.278.737.496.287.998.58 1.494.871.097.056.194.118.296.18v20.515l.839.487c.26.148.521.297.777.445.26.149.516.302.777.451l.757.436.757.435.798.46.695.406c.266.153.532.302.798.456l.756.435.798.46c.24.14.48.278.721.416.271.159.542.317.818.476.317.185.64.369.957.553.046.026.087.057.138.062.01-.215.01-52.798-.005-53.023zm-11.833-7.689c.056-.036.107-.072.163-.097l.502-.287c.25-.144.506-.292.756-.44l.757-.436 1.095-.635.695-.405c.24-.138.48-.276.716-.415.26-.148.521-.297.777-.445.348-.2.69-.405 1.033-.605.24-.138.48-.271.721-.41.25-.143.506-.292.757-.44.25-.144.506-.287.757-.436.337-.194.675-.394 1.012-.589.353-.205.706-.404 1.059-.61.45-.26.9-.522 1.355-.788l.813-.476c.24-.139.48-.272.72-.41.246-.144.492-.282.737-.425.358-.205.716-.415 1.074-.625l.695-.405c.246-.144.491-.287.737-.425.26-.149.521-.297.777-.446.348-.2.69-.405 1.033-.604.348-.2.695-.395 1.038-.595.348-.2.69-.404 1.033-.604.348-.2.695-.394 1.038-.594l1.115-.646c.22-.128.434-.256.66-.384V9.072c0-.026-.01-.056-.021-.097a6.388 6.388 0 01-.256.133c-.26.148-.516.302-.777.45-.25.15-.506.293-.757.436-.347.2-.69.405-1.033.604-.24.139-.48.272-.72.41-.251.144-.507.292-.758.44a196.568 196.568 0 00-1.83 1.066c-.23.133-.466.267-.696.405-.25.143-.506.292-.756.44l-.757.436-1.115.645c-.22.128-.44.256-.66.38-.25.148-.506.291-.756.44l-.798.46c-.338.196-.675.395-1.018.59-.245.143-.49.287-.736.425-.24.139-.48.277-.716.415-.26.149-.522.297-.777.446-.348.2-.69.404-1.033.604-.348.2-.696.395-1.038.594-.348.2-.69.405-1.033.605-.348.2-.696.394-1.038.594l-1.355.789c-.266.154-.532.312-.798.466-.24.138-.48.272-.721.41-.25.143-.506.292-.757.435-.42.241-.833.487-1.253.733-.266.154-.537.302-.802.456-.46.266-.916.532-1.371.799-.24.138-.48.271-.721.41-.348.2-.69.404-1.033.604l-1.115.646c-.22.128-.44.256-.66.379-.347.2-.695.394-1.037.594-.348.2-.69.405-1.033.604-.266.154-.537.302-.803.456-.466.272-.93.543-1.391.815a.593.593 0 00-.102.077v18.512c0 .072 0 .138.005.21 0 .02.015.036.03.067.19-.103.369-.205.548-.308.337-.194.675-.394 1.012-.589.46-.266.92-.527 1.376-.788.465-.272.925-.544 1.39-.815.24-.138.481-.271.722-.41.347-.2.69-.404 1.032-.604.348-.2.696-.395 1.039-.595.347-.2.69-.404 1.032-.604.348-.2.696-.394 1.039-.594.352-.205.7-.41 1.053-.615.04-.02.072-.051.113-.077v-5.844c.015-.328.015-.651.015-.979zM36.414 1.696a8.294 8.294 0 00-.358.2l-.716.414c-.266.154-.532.302-.798.456-.348.2-.69.405-1.033.605-.24.138-.48.276-.72.41-.251.143-.507.291-.758.44l-.756.435c-.348.2-.69.405-1.033.605-.348.2-.696.394-1.038.594-.45.261-.9.522-1.355.789l-.814.476c-.24.139-.48.277-.72.41-.24.138-.481.272-.722.41-.347.2-.69.405-1.032.604-.246.144-.491.282-.737.425-.25.144-.506.292-.757.441l-.756.435c-.338.195-.675.395-1.013.59-.353.204-.706.404-1.058.61-.338.194-.675.393-1.013.588-.353.205-.706.405-1.058.61-.466.271-.926.543-1.391.814-.24.138-.481.277-.721.41-.25.143-.507.292-.757.44-.25.144-.506.293-.757.436-.348.2-.69.405-1.033.604-.348.2-.695.395-1.038.595-.338.194-.675.394-1.012.589-.353.205-.706.404-1.059.61-.46.266-.915.532-1.37.798-.246.144-.491.282-.737.426-.25.143-.506.292-.757.44l-.756.435c-.348.2-.69.405-1.033.605-.348.2-.696.394-1.038.594-.45.261-.9.528-1.355.789-.277.164-.558.323-.84.487-.03.02-.066.03-.07.082 3.44 1.987 6.882 3.98 10.329 5.973.036-.021.082-.036.117-.062.353-.2.706-.405 1.059-.61.337-.194.675-.394 1.012-.589.374-.215.742-.43 1.115-.645.23-.133.465-.266.7-.4.261-.148.522-.297.778-.45.348-.2.69-.405 1.033-.605.24-.138.48-.276.72-.41.251-.143.507-.292.758-.44l.757-.436c.373-.215.74-.43 1.114-.645.22-.128.44-.256.66-.38.25-.148.506-.291.757-.44l.756-.435c.348-.2.69-.405 1.033-.605.348-.2.696-.394 1.038-.594.338-.194.675-.394 1.013-.589.353-.205.706-.404 1.059-.61.337-.194.674-.394 1.012-.594.46-.266.92-.527 1.375-.788.47-.272.941-.549 1.412-.825.26-.149.516-.302.777-.456l.64-.369c.347-.2.695-.394 1.037-.594.348-.2.69-.405 1.033-.605.266-.153.537-.302.803-.456l1.376-.799c.24-.138.48-.271.72-.41.338-.194.676-.394 1.013-.588.353-.205.706-.405 1.059-.61.337-.195.675-.394 1.012-.59.353-.204.706-.404 1.059-.609.444-.256.89-.517 1.334-.778.46-.267.92-.528 1.376-.79.48-.276.956-.552 1.432-.834.015-.01.025-.03.046-.057a4847.73 4847.73 0 01-10.355-5.977zm0 39.35l.874-.502c.353-.204.706-.404 1.059-.61.24-.137.475-.276.715-.414.24-.138.481-.277.716-.415.261-.148.522-.297.778-.446.347-.2.69-.404 1.033-.604.347-.2.695-.394 1.038-.594.347-.2.69-.405 1.033-.605.347-.2.695-.394 1.038-.594.337-.194.675-.394 1.012-.589.46-.266.92-.528 1.38-.789.466-.271.926-.543 1.392-.814.24-.139.48-.277.72-.41.251-.143.507-.292.758-.44a290.346 290.346 0 012.096-1.215c.25-.143.506-.292.757-.435.348-.2.69-.405 1.033-.605.348-.2.695-.394 1.038-.594.348-.2.69-.404 1.033-.604.347-.2.695-.395 1.038-.594.45-.262.9-.523 1.355-.79l.813-.476c.24-.138.48-.271.721-.41.245-.143.49-.281.736-.425.348-.2.69-.404 1.033-.604.24-.138.481-.277.721-.41.25-.143.507-.292.757-.44l.757-.436c.348-.2.69-.404 1.033-.604.348-.2.695-.395 1.038-.595.337-.194.675-.394 1.012-.589.46-.266.92-.527 1.381-.788.47-.272.941-.549 1.411-.825.2-.118.4-.23.599-.348.025-.016.056-.026.05-.067-.004-.01-.004-.02-.01-.02-3.385-1.962-6.775-3.924-10.165-5.886-.041-.026-.082-.046-.123-.067-.005-.005-.015-.005-.02-.005h-.031c-.24.138-.48.282-.731.42-.46.266-.92.528-1.38.789-.466.271-.926.543-1.392.814-.24.139-.48.277-.72.41-.251.144-.507.292-.758.44l-.797.462-1.274.737c-.26.149-.521.297-.777.446-.348.2-.69.405-1.033.605-.24.138-.48.27-.72.41-.262.148-.517.302-.778.45-.245.144-.496.282-.741.425-.338.195-.675.395-1.013.59-.353.204-.706.404-1.059.609-.337.194-.675.394-1.012.589-.46.266-.92.528-1.38.789-.471.271-.942.548-1.412.825-.332.194-.665.379-.997.573-.527.302-1.048.615-1.57.917-.46.267-.92.528-1.376.789-.47.271-.94.548-1.41.825-.241.138-.482.276-.717.415-.245.143-.49.287-.736.425-.261.148-.522.297-.777.445-.348.2-.69.405-1.033.605-.348.2-.696.394-1.038.594-.348.2-.69.405-1.033.605-.348.2-.696.394-1.038.594-.45.261-.9.528-1.356.789-.347.2-.695.394-1.038.594-.45.261-.9.527-1.355.789-.424.246-.854.486-1.273.737-.077.047-.163.072-.22.16a.566.566 0 00.174.122c.2.113.399.23.598.349.215.122.425.245.64.368.347.2.695.395 1.038.594.347.2.69.405 1.032.605.266.154.538.302.803.456.45.261.9.522 1.355.789l.813.476c.24.138.481.272.722.41.245.143.49.282.741.425.25.143.506.292.757.44.27.16.542.318.818.477.271.154.552.313.844.482zm22.898 40.591c.01-.02.02-.03.02-.046V43.234c0-.016-.01-.026-.025-.051-.046.02-.097.04-.138.066l-.798.461c-.245.144-.49.282-.741.425-.348.2-.69.405-1.033.605-.348.2-.696.394-1.038.594-.338.195-.675.394-1.013.59-.46.266-.92.527-1.375.788l-1.391.814c-.24.139-.48.272-.721.41-.348.2-.69.405-1.033.605-.343.2-.69.4-1.033.594-.005.015-.01.02-.01.026-.005.03-.005.061-.005.092v26.38c0 .006 0 .016.005.021 0 .005.005.015.015.03.281.165.573.334.864.503.348.2.696.394 1.038.594.338.195.675.394 1.013.59.46.266.92.527 1.38.788.471.271.941.548 1.412.825.26.148.516.302.777.456.215.123.425.246.64.368.347.2.695.395 1.037.595.348.2.69.404 1.033.604.292.17.583.338.88.507.072.051.143.118.24.123zM23.85 75.654v-5.921c0-.006-.005-.016-.005-.021-.005-.005-.005-.015-.01-.026-.016-.01-.031-.03-.052-.04-.286-.165-.573-.334-.854-.498-.245-.143-.49-.281-.736-.425-.42-.24-.834-.486-1.253-.732l-1.038-.594a95.368 95.368 0 01-1.012-.595c-.353-.205-.706-.404-1.059-.61-.465-.27-.925-.542-1.39-.814-.262-.148-.517-.302-.778-.45-.22-.129-.44-.251-.66-.38-.25-.148-.506-.291-.757-.44-.22-.128-.44-.256-.66-.38-.025-.014-.05-.035-.091.006 0 .072-.005.159-.005.24v17.392c0 .071 0 .138.005.21 0 .02.015.04.025.066.051-.025.103-.051.149-.077.158-.092.317-.19.475-.281.246-.144.491-.282.736-.425l1.033-.605c.348-.2.696-.394 1.038-.594.348-.2.69-.405 1.033-.605.348-.2.696-.394 1.038-.594.338-.195.676-.394 1.013-.589.353-.205.706-.405 1.058-.604.445-.257.89-.518 1.335-.779.43-.251.864-.497 1.299-.748.046-.015.077-.051.123-.087zm-9.64-26.919c.154.093.282.164.405.236.27.159.547.313.818.471.225.133.45.261.675.395l1.038.594 1.012.589c.353.205.706.405 1.059.61.337.194.675.394 1.012.589.46.266.92.527 1.376.788.47.272.94.549 1.411.825.261.149.517.303.777.451.01.005.026-.005.052-.01.01-.082.005-.164.005-.246V43.234c0-.02-.016-.036-.026-.067-.056.026-.102.046-.148.072-.286.164-.573.328-.86.497a202.265 202.265 0 00-2.787 1.614c-.23.133-.465.266-.7.399-.363.21-.73.425-1.094.635-.225.133-.45.261-.675.395l-1.033.604c-.26.149-.521.292-.782.44-.47.272-.941.549-1.412.82l-.122.092z" fill="#fff"/></svg>