<svg width="42" height="53" fill="none" xmlns="http://www.w3.org/2000/svg"><path d="M41.156 11.385v30.23c-.011.002-.026 0-.037.005l-.452.26-.41.23c-.14.078-.282.16-.42.24l-.422.237c-.188.105-.375.214-.563.32l-.589.331c-.187.106-.375.215-.563.32-.196.112-.392.22-.589.332l-.773.443c-.134.075-.267.15-.401.223-.14.078-.282.158-.421.24l-.444.25-.398.225c-.134.076-.264.15-.398.229-.029.017-.06.033-.088.047-.029-.014-.052-.022-.074-.036-.12-.067-.236-.134-.356-.2-.196-.112-.392-.22-.589-.332-.187-.106-.375-.215-.563-.32-.256-.145-.512-.287-.768-.43a109.81 109.81 0 01-.785-.448 46.993 46.993 0 00-.39-.217c-.193-.108-.383-.22-.574-.328-.193-.11-.386-.215-.577-.323-.188-.106-.375-.215-.563-.32l-.632-.36-.293-.162c-.02.048-.008.095-.008.14v6.687c0 .044 0 .091-.003.136-.045.025-.082.05-.125.075l-.444.254c-.128.072-.258.145-.39.217-.144.08-.29.162-.432.245-.233.13-.463.265-.697.398l-.486.276c-.193.109-.387.215-.577.323-.131.072-.259.148-.387.22-.134.075-.267.15-.398.226l-.433.242c-.193.109-.383.22-.574.329l-.401.222c-.193.109-.384.22-.575.33l-.577.322c-.145.08-.287.164-.432.245-.017.011-.037.017-.054.025-.046-.025-.088-.044-.128-.067l-.444-.25c-.136-.078-.273-.153-.412-.231-.194-.109-.384-.22-.575-.329-.193-.109-.387-.215-.577-.323-.188-.106-.376-.215-.563-.32-.21-.12-.424-.234-.635-.354-.258-.145-.517-.295-.773-.44l-.401-.223c-.2-.111-.398-.225-.6-.337-.14-.078-.282-.156-.421-.237-.248-.139-.495-.28-.743-.42-.196-.112-.392-.22-.588-.332-.04-.022-.077-.05-.111-.072a.066.066 0 01-.009-.02c0-2.297-.003-4.592-.003-6.89V42.1l-.002-.01a.075.075 0 01-.012-.015c-.145.08-.293.162-.44.248-.143.084-.29.162-.433.242l-.444.251c-.148.084-.295.17-.443.25-.148.084-.299.165-.447.248-.145.081-.287.165-.432.246-.148.083-.296.17-.444.253-.148.084-.296.164-.444.248-.145.08-.287.164-.432.248-.148.083-.296.17-.444.253-.147.084-.298.164-.446.248-.148.084-.296.167-.444.254-.145.08-.287.167-.432.245-.148.08-.293.17-.44.242a7.576 7.576 0 01-.174-.095c-.194-.108-.384-.22-.575-.328-.193-.109-.387-.215-.577-.324-.194-.108-.384-.22-.575-.328-.148-.084-.298-.164-.446-.248l-.754-.429-.452-.259-.401-.223a31.925 31.925 0 00-.413-.23l-.574-.33c-.194-.108-.387-.214-.577-.323-.188-.105-.376-.214-.564-.32l-.631-.36-.302-.163V11.41c.185-.103.37-.206.555-.312l.376-.214.574-.329c.134-.075.267-.15.401-.222.14-.078.282-.16.421-.24l.42-.237.575-.328c.194-.109.387-.215.578-.323.188-.106.375-.215.563-.32.196-.112.392-.22.589-.332l.762-.435.41-.23.42-.24.421-.237.575-.329c.193-.108.387-.214.577-.323.188-.105.376-.214.563-.32l.59-.331.761-.435.41-.231c.14-.078.281-.159.42-.24.14-.077.282-.158.422-.236.247-.14.495-.282.742-.42.137-.079.273-.154.412-.232l.564-.32c.196-.112.392-.22.588-.332.25-.142.5-.286.754-.429.136-.078.273-.153.41-.23.187-.107.375-.215.563-.321l.631-.36c.134-.074.267-.15.401-.222.137-.078.273-.153.413-.231.187-.106.375-.215.563-.32.196-.112.392-.22.588-.332l.754-.429.452-.259c.123-.07.245-.14.367-.206l.52-.292c.012-.009.038-.02.058-.031.028.017.054.03.073.045l.433.242.608.345.444.25c.125.073.25.143.376.215l.577.323c.193.109.384.22.574.329.194.109.387.214.578.323.25.142.5.287.753.429.194.109.387.214.578.323l.773.443a32.91 32.91 0 01.822.462c.125.073.25.142.364.21.046.058.032.113.032.166 0 1.365.003 2.727.003 4.091v2.582l.002.145.205-.111c.194-.109.384-.22.575-.329.193-.109.387-.214.577-.323l.563-.32.632-.36c.133-.075.267-.147.4-.222.14-.078.282-.16.422-.237.233-.131.463-.265.696-.398.148-.084.299-.165.447-.248l.754-.43.452-.258c.114-.064.227-.131.344-.192.034-.017.063-.045.114-.045l.236.131c.153.09.31.178.463.265.134.075.268.147.401.222l.444.251c.122.07.245.14.367.206l.401.223c.2.111.398.226.597.337.14.078.282.156.421.237.188.105.376.214.563.32.197.111.393.22.59.329.255.144.508.29.761.434l.41.231c.14.078.281.159.42.24l.444.25c.154.095.302.179.45.26zm-19.727 11.63v28.762c0 .02-.009.042.017.056.091-.05.185-.1.279-.153.187-.106.375-.215.563-.32l.765-.43c.262-.147.523-.297.785-.448l.39-.217c.193-.109.383-.22.574-.329.194-.108.387-.214.577-.323.188-.105.376-.214.564-.32l.588-.331.598-.343c.022-.011.04-.028.062-.044V26.288c.023-.039.054-.053.083-.07.096-.052.193-.105.29-.16.188-.107.375-.215.563-.321l.589-.331c.25-.143.5-.287.753-.43.14-.08.282-.158.421-.236.14-.078.282-.159.421-.24l.421-.236c.194-.109.384-.22.575-.33.193-.108.386-.213.577-.322.193-.109.384-.22.575-.329.193-.108.386-.214.577-.323.188-.106.375-.214.563-.323.213-.122.427-.245.643-.365.09-.053.185-.103.279-.153.008-.006.022-.003.03-.003.006.006.01.009.012.014.003.003.003.009.003.011V44.37a.02.02 0 00.006.011l.008.011c.012 0 .026.003.037-.002.125-.07.253-.14.379-.212l.62-.351c.122-.07.244-.14.366-.206.14-.08.282-.159.421-.24l.421-.236c.194-.109.384-.22.575-.329l.577-.323.563-.32c.197-.112.393-.22.589-.332.188-.106.375-.214.563-.323l.589-.331c.026-.014.045-.036.068-.056l-.008-28.792c0-.003-.006-.006-.009-.011-.003 0-.009-.003-.011 0L21.506 22.96c-.017.011-.046.034-.077.056zm-.808-.005a25.223 25.223 0 01-.253-.139c-.262-.148-.523-.298-.785-.448-.145-.081-.287-.165-.432-.245-.134-.076-.268-.148-.401-.223l-.444-.25c-.122-.07-.245-.14-.367-.207-.193-.109-.387-.214-.577-.323-.205-.114-.407-.231-.609-.345-.14-.078-.281-.16-.42-.237-.2-.111-.399-.226-.598-.34l-.387-.22-.444-.25c-.017-.009-.03-.026-.053-.017-.003.005-.006.008-.006.01v11.086l-.003.012c-.003.002-.006.005-.011.014l-.043-.017c-.137-.075-.273-.153-.41-.231a30.224 30.224 0 00-.41-.232 61.52 61.52 0 01-.431-.242c-.194-.108-.385-.22-.575-.328-.134-.076-.267-.148-.401-.223a25.24 25.24 0 01-.421-.24c-.145-.08-.29-.161-.432-.245-.194-.109-.384-.22-.575-.329a33.322 33.322 0 01-.822-.462l-.42-.237c-.194-.108-.385-.22-.575-.328-.194-.109-.387-.215-.578-.323-.187-.106-.375-.215-.563-.32-.196-.112-.392-.22-.588-.332-.04-.022-.077-.05-.12-.078V16.132c0-.184.003-.367-.003-.549-.017-.013-.025-.022-.037-.027l-.586-.335-.765-.429c-.31-.175-.62-.35-.93-.529-.261-.147-.523-.298-.785-.448-.284-.162-.569-.32-.853-.482l-.842-.476c-.287-.162-.577-.323-.867-.488-.029-.016-.054-.033-.094-.039 0 .026-.003.048-.003.067V41.15c.051.03.097.06.145.086.194.108.387.214.577.323.205.114.407.231.61.345l.42.237c.14.078.282.159.421.24.15.086.301.172.455.258.134.076.267.148.401.223.14.078.282.16.421.237.14.078.282.159.42.24l.456.259.401.222.444.251c.185.106.37.209.554.312.009.005.023.003.032.005a.048.048 0 00.01-.013c.004-.003 0-.009.004-.011V33.278c0-.004.003-.01.008-.018.052.028.106.05.157.081.187.106.375.215.563.32.196.112.392.22.589.332l.762.434c.136.078.273.154.41.231.233.131.463.265.696.399.194.108.387.214.578.323.187.106.375.214.563.323l.588.331c.25.142.501.287.754.43l.711.4c.276.156.555.315.83.474.055.03.109.064.166.097v11.154c.156.09.31.176.466.265.145.08.29.162.432.242.145.081.288.165.433.245.139.078.281.16.42.237l.421.237.444.25.387.22c.148.084.296.165.444.248.14.078.281.16.42.237l.444.25.401.226.455.26.532.3c.026.014.049.03.077.034.006-.117.006-28.706-.003-28.829zm-6.581-4.18c.031-.02.06-.04.09-.053l.28-.156c.139-.078.281-.159.42-.24l.421-.236.61-.346.386-.22.398-.225.432-.242c.194-.11.384-.22.575-.33l.401-.222c.14-.078.281-.159.42-.24.14-.077.283-.155.422-.236.188-.106.375-.215.563-.32.196-.112.393-.22.589-.332l.753-.429.453-.259c.133-.075.267-.147.4-.223l.41-.23c.2-.112.398-.226.598-.34l.386-.22c.137-.079.273-.156.41-.232.145-.08.29-.161.432-.242.194-.109.384-.22.575-.329.193-.108.386-.214.577-.323.193-.108.384-.22.575-.328l.577-.323.62-.351c.122-.07.242-.14.367-.21V4.932c0-.014-.006-.03-.012-.053-.05.028-.096.05-.142.073-.145.08-.287.164-.432.245-.14.08-.282.159-.421.237-.193.108-.384.22-.575.328-.133.076-.267.148-.4.223-.14.078-.282.159-.422.24a106.188 106.188 0 00-1.018.58c-.128.071-.259.144-.387.219-.139.078-.281.159-.42.24-.14.077-.282.158-.421.236l-.62.351c-.123.07-.245.14-.367.206-.14.081-.282.159-.421.24l-.444.25c-.188.106-.375.215-.566.32-.136.079-.273.157-.41.232l-.398.225-.432.243c-.193.108-.384.22-.574.328-.194.109-.387.215-.578.323l-.574.33c-.194.108-.387.213-.578.322-.25.142-.5.284-.753.43l-.444.252c-.134.076-.267.148-.401.223-.14.078-.282.16-.421.237-.233.13-.464.265-.697.398-.148.084-.299.165-.446.248l-.763.435c-.133.075-.267.147-.4.222-.194.11-.385.22-.575.33-.208.116-.412.233-.62.35-.122.07-.245.14-.367.206-.193.109-.387.215-.577.323-.194.109-.384.22-.575.329-.148.083-.299.164-.446.248-.26.147-.518.295-.774.442a.494.494 0 00-.057.042V25.65c0 .04 0 .076.003.115 0 .01.008.02.017.036.105-.056.205-.111.304-.167.188-.106.376-.215.563-.32.256-.145.512-.287.766-.43l.773-.442.401-.223c.194-.109.384-.22.575-.329.193-.108.386-.214.577-.323.193-.108.384-.22.575-.328l.577-.323.586-.335c.023-.01.04-.027.062-.041v-3.179c.009-.177.009-.353.009-.531zM21.025.922a5.677 5.677 0 00-.199.108l-.398.226c-.148.084-.296.164-.444.248-.193.109-.384.22-.574.329-.134.075-.268.15-.401.222-.14.078-.282.16-.421.24l-.421.237c-.194.108-.384.22-.575.328-.193.109-.387.215-.577.323l-.754.43-.452.258a28.3 28.3 0 01-.401.223l-.401.223c-.194.108-.384.22-.575.329l-.41.23-.42.24-.421.237-.563.32c-.196.112-.393.22-.589.332-.188.105-.375.214-.563.32l-.589.331-.773.443-.401.223c-.14.078-.282.159-.421.24-.14.077-.282.158-.421.236-.194.109-.384.22-.575.329-.193.108-.387.214-.577.323l-.563.32c-.197.112-.393.22-.589.332-.256.144-.51.29-.762.434l-.41.231c-.14.078-.281.159-.42.24-.14.078-.282.159-.422.236l-.574.33c-.194.108-.387.214-.578.322-.25.142-.5.287-.753.43l-.467.264c-.017.01-.037.016-.04.044 1.915 1.08 3.829 2.164 5.746 3.248.02-.011.045-.02.065-.034.196-.108.393-.22.589-.331.188-.106.375-.215.563-.32l.62-.351c.128-.073.259-.145.39-.218.145-.08.29-.161.432-.245.193-.108.384-.22.574-.328.134-.075.268-.15.402-.223.139-.078.281-.159.42-.24l.421-.236.62-.351c.123-.07.245-.14.367-.206.14-.081.282-.16.421-.24l.421-.237c.194-.108.384-.22.575-.328l.577-.323c.188-.106.375-.215.563-.32.196-.112.393-.22.589-.332.188-.106.375-.215.563-.323l.765-.43c.262-.147.523-.297.785-.447.145-.081.287-.165.432-.248.12-.067.236-.134.356-.2.193-.11.387-.215.577-.324.194-.109.384-.22.575-.329l.446-.247.765-.435.401-.223.564-.32.588-.331c.188-.106.376-.215.563-.32l.59-.332.741-.423.765-.43c.268-.15.532-.3.797-.453.008-.006.014-.017.025-.031-1.925-1.083-3.84-2.164-5.759-3.25zm0 21.395l.486-.273.59-.332.397-.225c.134-.075.268-.15.398-.226.146-.08.29-.161.433-.242.193-.109.384-.22.574-.329.194-.108.387-.214.578-.323.193-.108.384-.22.574-.328.194-.109.387-.215.578-.323.187-.106.375-.215.563-.32.256-.146.512-.288.768-.43l.773-.443c.134-.075.268-.15.401-.222.14-.078.282-.159.421-.24l.455-.259c.236-.133.472-.267.711-.4l.421-.238c.194-.108.384-.22.575-.328.193-.109.387-.215.577-.323.194-.109.384-.22.575-.329.193-.108.386-.214.577-.323l.754-.429.452-.259.4-.223.41-.23c.194-.11.384-.22.575-.33.134-.075.267-.15.401-.222.14-.078.282-.16.42-.24l.422-.237c.193-.108.384-.22.574-.328.194-.109.387-.215.578-.323.187-.106.375-.215.563-.32.256-.145.512-.287.768-.43.261-.147.523-.297.785-.448.11-.064.222-.125.333-.19.014-.008.03-.013.028-.035-.003-.006-.003-.012-.006-.012l-5.654-3.2a.745.745 0 00-.068-.036c-.003-.003-.009-.003-.012-.003h-.017c-.133.076-.267.154-.406.229-.256.145-.512.287-.768.429l-.774.442c-.133.076-.267.15-.4.223a994.37 994.37 0 00-1.573.891l-.433.243c-.193.108-.384.22-.574.328-.134.076-.268.148-.402.223-.145.081-.287.165-.432.245-.136.078-.276.154-.412.232-.188.105-.376.214-.563.32l-.589.331c-.188.106-.375.215-.563.32-.256.145-.512.287-.768.43-.262.147-.523.297-.785.448-.185.106-.37.206-.555.312-.293.164-.583.334-.873.498l-.765.43c-.262.147-.523.297-.785.447-.134.076-.267.15-.398.226-.137.078-.273.156-.41.231l-.432.243c-.193.108-.384.22-.574.328-.194.109-.387.215-.578.323-.193.109-.384.22-.574.329-.194.109-.387.214-.578.323-.25.142-.5.287-.753.429-.194.108-.387.214-.578.323-.25.142-.5.287-.753.429-.237.134-.475.264-.709.4-.042.026-.09.04-.122.087.029.03.063.05.097.067.11.061.222.125.333.19l.355.2c.194.109.387.215.577.323.194.109.384.22.575.329.148.083.299.164.447.248l.753.428.452.26c.134.075.268.147.401.222l.413.232c.14.078.281.158.42.239.151.086.302.173.456.259l.47.262zm12.736 22.069c.006-.011.011-.017.011-.025V23.506c0-.008-.005-.014-.014-.028-.025.011-.054.022-.077.036l-.443.251c-.137.078-.273.153-.413.231-.193.109-.384.22-.574.329-.194.108-.387.214-.577.323l-.564.32-.765.43-.773.442-.401.223c-.194.108-.384.22-.575.328-.19.109-.384.218-.574.324-.003.008-.006.01-.006.013-.003.017-.003.034-.003.05v14.344c0 .002 0 .008.003.01 0 .004.003.01.009.018l.48.272c.194.11.387.215.578.324.187.105.375.214.563.32.256.145.512.287.768.429.261.147.523.298.784.448.146.08.288.164.433.248l.355.2c.194.11.387.215.578.324.193.108.384.22.574.328l.49.276c.04.028.08.064.133.067zm-19.724-3.253v-3.22l-.003-.01c-.003-.004-.003-.01-.006-.015-.008-.005-.017-.017-.028-.022l-.475-.27c-.136-.078-.273-.153-.41-.231-.233-.131-.463-.265-.696-.399l-.578-.323a66.729 66.729 0 01-.563-.323l-.588-.331-.774-.443c-.145-.08-.287-.164-.432-.245l-.367-.206c-.14-.081-.282-.159-.421-.24-.123-.07-.245-.139-.367-.206-.014-.008-.029-.02-.051.003 0 .039-.003.086-.003.13v9.456c0 .04 0 .075.003.114 0 .012.008.023.014.037.028-.014.057-.028.082-.042.089-.05.177-.103.265-.153l.41-.232.574-.328c.193-.109.387-.215.577-.323.194-.109.384-.22.575-.329.193-.108.387-.214.577-.323l.563-.32c.197-.112.393-.22.59-.329l.741-.423c.24-.137.481-.27.723-.407.025-.008.042-.028.068-.047zM8.676 26.497c.085.05.156.09.225.128.15.087.304.17.455.257l.375.214.577.323c.188.106.376.215.563.32l.59.332.562.32c.256.145.512.287.766.429l.784.448c.146.081.288.165.433.245.005.003.014-.002.028-.005.006-.045.003-.09.003-.134v-5.868c0-.011-.009-.02-.014-.036-.031.014-.057.025-.083.039-.159.089-.318.178-.477.27-.256.142-.512.284-.765.429-.262.148-.524.298-.786.448-.128.073-.258.145-.39.218l-.608.345-.375.214-.575.329-.435.24c-.262.147-.523.297-.785.445l-.068.05z" fill="#C4C4C4"/></svg>