<svg width="28" height="28" fill="none" xmlns="http://www.w3.org/2000/svg"><path d="M26.712.04h-8.163a1.288 1.288 0 100 2.576h5.054l-12.35 12.35a1.288 1.288 0 101.82 1.822l12.351-12.35V9.49a1.288 1.288 0 102.576 0V1.328C28 .617 27.423.04 26.712.04z" fill="#fff"/><path d="M21.443 10.779c-.711 0-1.288.576-1.288 1.288v12.659H2.695V7.265h13.421a1.288 1.288 0 100-2.576H1.408A1.29 1.29 0 00.12 5.978v20.035c0 .712.577 1.288 1.288 1.288h20.035c.711 0 1.288-.576 1.288-1.287V12.067c0-.712-.577-1.288-1.288-1.288z" fill="#fff"/></svg>