<svg width="28" height="28" viewBox="0 0 28 28" fill="none" xmlns="http://www.w3.org/2000/svg">
<path d="M26.712 0.0400391H18.5491C17.8378 0.0400391 17.2612 0.616621 17.2612 1.32801C17.2612 2.0394 17.8378 2.61598 18.5491 2.61598H23.6026L11.2524 14.9662C10.7493 15.4692 10.7493 16.2846 11.2524 16.7877C11.5039 17.0391 11.8335 17.1649 12.1631 17.1649C12.4927 17.1649 12.8223 17.0391 13.0738 16.7877L25.4241 4.43746V9.49103C25.4241 10.2024 26.0006 10.779 26.712 10.779C27.4234 10.779 28 10.2024 28 9.49103V1.32815C28 0.616621 27.4234 0.0400391 26.712 0.0400391Z" fill="white"/>
<path d="M21.4431 10.7788C20.7317 10.7788 20.1551 11.3554 20.1551 12.0668V24.7255H2.69594V7.26637H16.1163C16.8277 7.26637 17.4043 6.68979 17.4043 5.9784C17.4043 5.26701 16.8277 4.69043 16.1163 4.69043H1.40797C0.696577 4.69043 0.119995 5.26701 0.119995 5.9784V26.0135C0.119995 26.7249 0.696577 27.3015 1.40797 27.3015H21.4431C22.1545 27.3015 22.731 26.7249 22.731 26.0135V12.0668C22.731 11.3554 22.1545 10.7788 21.4431 10.7788Z" fill="white"/>
</svg>
